<svg xmlns="http://www.w3.org/2000/svg" width="272" height="131" fill="none" viewBox="0 0 272 131"><mask id="a" width="62" height="57" x="105" y="4" maskUnits="userSpaceOnUse" style="mask-type:alpha"><path fill="#d9d9d9" d="M133.236 4.93a4.69 4.69 0 0 1 5.517 0l25.803 18.747a4.7 4.7 0 0 1 1.933 3.797V60.93h-11.752a7831 7831 0 0 1-.052-17.222c0-2.141-1.379-4.452-3.605-4.452a.83.83 0 0 1-.831-.825c0-.024-.019-1.192-.602-2.316-.734-1.418-2.043-2.136-3.889-2.136a.83.83 0 0 1-.832-.825c0-.015-.017-.931-.488-1.821-.593-1.117-1.649-1.707-3.141-1.753a.83.83 0 0 1-.571-.25.82.82 0 0 1-.235-.574c0-1.37-2.86-2.884-4.491-3.517-1.631.635-4.491 2.151-4.491 3.517a.82.82 0 0 1-.235.574.83.83 0 0 1-.571.25c-3.588.11-3.63 3.433-3.63 3.574a.836.836 0 0 1-.831.825c-1.846 0-3.156.718-3.89 2.136a5.7 5.7 0 0 0-.601 2.319.83.83 0 0 1-.832.822c-2.226 0-3.603 2.31-3.604 4.452 0 2.547-.028 10.787-.052 17.222H105.5V27.474c0-1.502.719-2.914 1.935-3.797z"/></mask><g mask="url(#a)"><path stroke="#c88c00" stroke-linecap="round" stroke-linejoin="round" stroke-width="1.423" d="M135.995 2.535v33.616m3.724-33.271-2.345 33.534m6.057-33.19-4.678 33.29m8.368-32.255-6.989 32.881m10.886-31.908-9.266 32.314m13.14-30.917-11.498 31.589m15.265-29.925-13.673 30.71M162.3 10.214l-15.781 29.681m19.28-27.509-17.813 28.508m21.152-26.097-19.759 27.195m22.922-24.558-21.608 25.751m24.579-22.899L147.228 49.16m30.808-25.82-29.673 27.185m32.218-23.948L149.4 51.965m33.494-21.981-32.56 23.49m34.63-19.93-33.804 21.5m35.62-17.804-34.905 19.428m36.46-15.615-35.861 17.285m37.145-13.372-36.663 15.08m37.671-11.087-37.309 12.824m38.036-8.77-37.797 10.529m38.24-6.436-38.124 8.206m38.28-4.09-38.287 5.865M132.376 2.88l2.344 33.534m-6.057-33.19 4.678 33.29m-8.368-32.255 6.989 32.881M121.077 5.232l9.265 32.314M117.203 6.629 128.7 38.218M113.436 8.293l13.672 30.71m-17.314-28.788 15.781 29.681m-19.28-27.509 17.814 28.508m-21.153-26.097 19.759 27.195M99.793 17.435l21.608 25.751M96.823 20.287l23.351 24.181M94.058 23.34l24.981 22.493M91.513 26.577l31.182 25.388M89.2 29.984l32.561 23.49m-34.63-19.93 33.803 21.5M85.314 37.24l34.906 19.428M83.76 41.053l35.86 17.285M82.475 44.966l36.663 15.08M81.468 48.96l37.309 12.824m-38.037-8.77 37.797 10.529m-38.24-6.436 38.124 8.206m-38.28-4.09 38.288 5.865"/></g><path fill="#c88c00" fill-rule="evenodd" d="M135.788 41.04a.6.6 0 0 1 .304.125c.09.074.333.358.541.641s.513.727.676.994a15 15 0 0 1 .654 1.22c.192.409.44 1.01.755 1.959l.44-.386c.237-.21.586-.5.772-.642s.53-.386.761-.545.687-.425 1.014-.602c.327-.17.705-.357.846-.408.203-.08.287-.085.422-.034a.5.5 0 0 1 .243.204 8 8 0 0 1 .208.835c.074.386.169 1.016.203 1.407.034.392.057 1 .045 1.351-.017.41 0 .63.034.614.034-.012.288-.125.564-.25a16 16 0 0 1 1.099-.426c.327-.108.884-.267 1.24-.346.355-.08.929-.176 1.279-.216.609-.074.637-.068.789.045.135.103.158.165.175.426.011.17-.023.585-.074.931s-.163.903-.253 1.249c-.085.346-.254.88-.367 1.192a16.3 16.3 0 0 1-1.538 3.037c-.282.42-.722 1.022-.981 1.334-.259.307-.732.829-1.059 1.158-.327.324-.857.806-1.184 1.067-.327.267-.868.67-1.212.897s-.884.556-1.211.727a18 18 0 0 1-1.015.5c-.231.102-.665.266-1.493.561h.947c.552 0 1.2-.034 1.572-.09.349-.046.981-.177 1.398-.284a14 14 0 0 0 1.409-.454c.355-.142.913-.404 1.24-.574s.845-.488 1.155-.698c.31-.216.778-.573 1.043-.806s.67-.63.901-.891c.231-.256.541-.636.688-.846s.27-.403.27-.437-.248-.12-.546-.199c-.305-.074-.598-.182-.648-.238-.057-.057-.108-.148-.108-.205-.005-.05 0-.147.006-.21a.45.45 0 0 1 .102-.215c.062-.063.174-.103.321-.097.124 0 .456.063.732.136.277.074.654.193.835.256.18.068.343.17.377.232a.8.8 0 0 1 .057.267c0 .091-.119.358-.265.613-.153.25-.434.67-.637.937-.197.267-.603.727-.902 1.022-.293.3-.75.71-1.014.914-.265.21-.694.516-.959.692-.264.17-.755.454-1.099.63s-.873.42-1.183.545c-.31.12-.868.307-1.24.415a16 16 0 0 1-1.381.323 12 12 0 0 1-1.747.154c-.766.022-1.223.005-1.719-.063a12 12 0 0 1-1.24-.233 4.2 4.2 0 0 0-1.042-.142 4.2 4.2 0 0 0-1.043.142c-.31.08-.868.188-1.24.233-.496.068-.952.085-1.719.063a12 12 0 0 1-1.719-.148 17 17 0 0 1-1.296-.295 16 16 0 0 1-1.155-.375 15 15 0 0 1-2.48-1.249 17 17 0 0 1-.958-.692 12 12 0 0 1-1.015-.914 11 11 0 0 1-.901-1.022 13 13 0 0 1-.637-.937c-.147-.255-.265-.522-.265-.613 0-.085.028-.204.056-.267.034-.062.197-.164.383-.232.175-.063.553-.182.829-.256.282-.074.609-.136.733-.136.146-.006.259.034.321.097a.44.44 0 0 1 .101.215c.006.063.012.16.006.21 0 .057-.051.148-.102.205-.056.056-.349.164-.653.238-.299.08-.547.159-.547.182 0 .028.079.164.18.312.096.153.322.448.502.67.175.221.535.607.806.863.265.26.749.67 1.071.908.327.244.862.596 1.2.783.333.188.924.471 1.313.636s1.02.386 1.409.488c.389.108.947.244 1.24.295.361.069.924.108 2.903.142l-.451-.159c-.248-.09-.631-.238-.846-.323a15 15 0 0 1-.873-.398c-.265-.13-.693-.369-.958-.528a13 13 0 0 1-1.015-.67c-.293-.21-.761-.578-1.042-.811a22 22 0 0 1-1.037-.97 17 17 0 0 1-1.037-1.164c-.282-.347-.699-.92-.936-1.278a17 17 0 0 1-.744-1.277c-.18-.346-.439-.903-.58-1.249a18 18 0 0 1-.446-1.305c-.107-.375-.253-1-.315-1.391a8 8 0 0 1-.119-1.067c0-.318.017-.364.153-.472.141-.107.208-.119.58-.085.231.017.665.074.958.125s.851.182 1.24.29c.389.102 1.031.335 1.437.505s.755.323.789.34.051-.21.034-.641a14 14 0 0 1 .045-1.351c.04-.375.13-.993.203-1.374a8 8 0 0 1 .209-.84.48.48 0 0 1 .242-.204c.135-.051.22-.046.423.034.141.057.484.215.76.363.277.142.801.454 1.156.693s.935.68 1.916 1.527l.203-.608c.113-.34.361-.942.552-1.35.197-.41.502-.983.688-1.278.18-.295.524-.783.761-1.084.242-.301.467-.562.513-.58a.8.8 0 0 1 .214-.039m-.744 2.214c-.107.17-.31.528-.451.795-.141.266-.355.738-.479 1.05-.13.312-.31.823-.406 1.135s-.22.8-.282 1.079a23 23 0 0 0-.214 1.163c-.073.494-.096 1.005-.101 2.084v1.424c.287.38.597.84.879 1.26s.693 1.136.913 1.59c.225.454.507 1.124.631 1.493.124.364.242.664.265.664.028 0 .045-.034.045-.068 0-.04.09-.329.203-.641s.389-.948.614-1.42a16.6 16.6 0 0 1 1.883-2.951 21 21 0 0 1 2.203-2.22c.231-.187.654-.505.941-.71.282-.198.632-.43.773-.516l.259-.159c.056-1.033.056-1.652.034-2.043a12 12 0 0 0-.124-1.25c-.051-.294-.102-.55-.119-.567-.011-.017-.208.068-.428.182-.225.119-.626.363-.896.539-.265.182-.688.488-.93.681s-.62.54-.845.767l-.406.414c.09.397.163.84.225 1.249.057.408.107.857.107 1.01 0 .148-.022.318-.056.38a.37.37 0 0 1-.214.16.6.6 0 0 1-.293.01c-.085-.016-.181-.107-.237-.226a1 1 0 0 1-.101-.38c0-.103-.04-.477-.091-.824a18 18 0 0 0-.304-1.493 16 16 0 0 0-.423-1.419c-.112-.312-.36-.874-.541-1.249-.186-.374-.529-.97-.772-1.328-.237-.358-.462-.658-.496-.67-.034-.011-.18.136-.321.335-.135.199-.338.5-.445.67m-6.194 2.526c-.04.369-.051 1.01-.034 1.561.028.812.051.948.135 1.01.057.04.355.245.665.449s.795.556 1.071.783c.276.222.722.613.987.863l.479.46c.067-1.465.135-2.22.191-2.628.062-.409.135-.852.169-.994l.057-.255c-.587-.602-.958-.943-1.206-1.147-.248-.198-.654-.5-.902-.67a14 14 0 0 0-.874-.533c-.231-.125-.451-.233-.484-.233-.034 0-.091.159-.124.352-.04.199-.096.636-.13.982m-4.948 3.094c.095.392.27.965.389 1.277.118.312.309.772.422 1.022s.378.75.592 1.107c.208.357.552.885.761 1.163a26 26 0 0 0 .761.965c.214.25.586.648.828.886s.654.619.919.846c.265.221.823.641 1.24.925a17 17 0 0 0 1.578.914 14 14 0 0 0 1.55.653c.405.136 1.02.306 1.369.38.344.074.705.136.8.136s.169-.028.169-.073c0-.034-.039-.284-.084-.551a14 14 0 0 0-.231-1.022 16 16 0 0 0-.344-1.078 19 19 0 0 0-.564-1.278 18 18 0 0 0-.834-1.447 16 16 0 0 0-.946-1.277c-.26-.313-.789-.874-1.173-1.25a17 17 0 0 0-1.262-1.106 22 22 0 0 0-1.127-.784 19 19 0 0 0-1.24-.692 16 16 0 0 0-1.522-.619 14 14 0 0 0-1.454-.397 7 7 0 0 0-.733-.12c-.129 0-.129.012-.084.353.022.198.124.675.22 1.067m21.664-.886c-.434.148-1.093.42-1.465.602s-.981.528-1.353.766c-.372.244-.89.608-1.155.812-.265.21-.795.687-1.178 1.062-.384.374-.908.936-1.161 1.248-.254.313-.603.772-.772 1.022-.175.25-.457.71-.637 1.022-.181.312-.434.812-.564 1.107a18 18 0 0 0-.417 1.05 11.7 11.7 0 0 0-.49 1.873c-.045.25-.079.489-.079.523 0 .04.068.073.158.073.084 0 .417-.05.744-.113.327-.068.946-.238 1.38-.386a14 14 0 0 0 1.607-.67 16 16 0 0 0 1.578-.92 20 20 0 0 0 1.324-.993c.31-.261.806-.732 1.099-1.039.293-.312.716-.789.93-1.061.22-.273.569-.761.778-1.079.208-.318.569-.948.794-1.402.232-.454.513-1.09.626-1.42.118-.328.282-.873.372-1.22.085-.346.175-.794.203-1.004l.045-.386c-.259.005-.614.068-.958.136-.338.074-.975.25-1.409.397" clip-rule="evenodd"/><mask id="b" width="199" height="37" x="36.5" y="88" fill="#000" maskUnits="userSpaceOnUse"><path fill="#fff" d="M36.5 88h199v37h-199z"/><path d="M53.623 110.694c2.408 4.204 3.714 5.592 5.306 7.02V118h-6.286v-.286c1.061-1.061.204-2.53-1.388-5.347l-4.367-7.632c-.612.041-1.225.081-1.837.081h-3.796v10.49c0 1.429.286 2.041.898 2.408V118h-5.02v-.286c.612-.367.898-.979.898-2.408V92.163c0-1.47-.286-2.04-.898-2.408v-.326h7.918c6.327 0 12.04 2.367 12.04 7.714 0 3.837-3.06 6.163-7.142 7.102zm-8.572-6.204c7.714 0 8.816-4.204 8.816-7.347 0-3.184-1.06-7.388-8.816-7.388h-3.796v14.735zm25.345-6.123c5.47 0 10.204 3.429 10.204 9.062 0 6.53-5.592 10.816-11.061 10.816-5.51 0-10.205-3.347-10.205-9.061 0-6.735 5.592-10.817 11.062-10.817m2.285 19.143c4.654-1.347 5.919-6.449 4.49-11.388-1.428-4.898-5.265-8.367-9.918-7.02s-5.919 6.449-4.49 11.388c1.429 4.898 5.265 8.408 9.918 7.02m28.277-18.816c-1.755 1.796-3.183 3.796-4.694 7.551 0 0-3.265 8.122-4.734 11.755-1.47 3.673-3.306 6.735-6.531 6.735-2.204 0-3.796-1.021-4.816-2.898l3.183-2.898.245.204c-.408 2.286.041 5.428 2.286 5.184 2.122-.245 3.796-2.939 5.143-5.96l-5.225-12.285c-1.714-4-2.571-5.755-4.53-7.388v-.327h6.245v.327c-1.02 1.102-.694 2.204.245 4.49l4.857 11.347 3.347-8.327c1.51-3.755 2-6 .163-7.51v-.327h4.816zm16.958 19.02V118h-4.122v-5.714c-1.061 3.592-3.306 5.959-7.224 5.959-3.347 0-6.613-1.592-7.143-4.531-.694-4.163 1.796-6.612 4.938-7.918-1.061-2.367.205-7.429 5.674-7.429 3.388 0 6.979 1.796 6.979 6.817v10.122c0 1.429.286 2.041.898 2.408m-8.244-18.939c-3.674 0-6.123 3.552-4.898 6.858 2.204-.817 4.653-1.102 6.571-1.102.939 0 1.755.163 2.449.367v-.286c0-3.102-1.224-5.837-4.122-5.837m-2.123 18.939c3.551-.204 5.429-3.224 6.245-6.163v-6.286c-.204-.081-1.184-.367-2.449-.367-4.449 0-10.49 2.204-8.735 9.388.531 2.204 2.898 3.551 4.939 3.428m17.332-2.408c0 1.429.285 2.041.898 2.408V118h-5.021v-.286c.613-.367.898-.979.898-2.408V91.714c0-1.428-.122-1.836-.898-1.959v-.326l3.837-.858h.286zm15.525-26.286c3.142 0 6.571 1.96 8.979 3.837l-1.224 4.245h-.286c-2.327-5.47-5.306-7.551-8.531-7.551-4.04 0-6.367 2.286-6.612 4.735-.775 8.163 16.735 5.47 16.735 15.673 0 4.857-4.368 8.286-10.163 8.286-4.858 0-7.878-1.633-11.062-4.041l1.225-4.653h.286c2.081 4.163 5.877 7.878 11.224 7.878 3.469 0 6.367-2.245 6.694-4.817 1.061-8.694-16.49-5.918-16.49-16.163 0-3.306 2.653-7.429 9.225-7.429m30.942 28.694V118h-4.164v-9.918c-.53 4.612-1.918 10.163-7.224 10.163-3.755 0-6.735-2.367-6.735-7.184v-9.551c0-1.428-.122-1.837-.898-1.959v-.286l3.837-.898h.286v13.306c0 3.551 1.836 6.49 5.347 5.837 4.571-.898 5.387-9.428 5.387-12.857v-3.143c0-1.428-.122-1.837-.898-1.959v-.286l3.837-.898h.286v16.939c0 1.429.286 2.041.939 2.408m6.985-2.408c0 1.429.285 2.041.938 2.408V118h-5.061v-.286c.612-.367.898-.979.898-2.408V101.51c0-1.428-.122-1.837-.898-1.959v-.286l3.837-.898h.286zm-1.715-20.245a1.916 1.916 0 0 1-1.918-1.918c0-1.061.857-1.918 1.918-1.918 1.062 0 1.919.857 1.919 1.918a1.916 1.916 0 0 1-1.919 1.918m19.973 15.715.204.081c-.775 3.837-2.49 7.388-6.775 7.388-3.633 0-5.878-2.367-5.878-7.184V98.694h-2.408v-.327c3.469 0 3.755-3.632 3.755-5.592h3.225c0 3.143-3.102 5.47-5.551 5.592h9.02v.327h-4.816v12.979c0 3.551.979 6.286 4.449 5.837 2.694-.367 4.041-3.592 4.775-6.734m15.536-5.96c2.327.613 4.449 2.98 4.123 6.694-.245 2.898-2.817 6.735-8.613 6.735-5.632 0-11.061-2.776-11.224-9.51-.204-7.062 6.204-10.123 10.694-10.368 3.469-.163 8.245 1.51 8.816 6.449zm-6.857-5.959c-2.775.53-4.571 2.857-5.306 5.633h13.02c-.53-3.551-3.714-6.408-7.714-5.633m10.612 12.735c.49-4.245-2.326-6.776-5.428-6.776h-10.572c-.53 2.164-.408 4.572.286 6.531 1.51 4.286 4.571 6.163 8.735 6 3.51-.163 6.571-2.571 6.979-5.755m11.137-13.225c2.123 0 4.898 1.347 6.531 2.613l-.817 3.755h-.204c-1.265-3.47-3.877-6-6.204-6-2.775 0-4.326 1.551-4.53 3.224-.572 5.47 13.183 4 12.734 10.653-.245 3.225-3.265 5.633-7.836 5.633-3.307 0-5.755-1.102-7.96-2.735l.858-4.081h.204c1.387 2.857 4.449 6.244 8.081 6.244 2.939 0 5.143-1.51 5.388-3.265.776-5.347-13.469-2.979-12.49-10.979.327-2.653 1.796-5.062 6.245-5.062"/></mask><path fill="#fff" d="M53.623 110.694c2.408 4.204 3.714 5.592 5.306 7.02V118h-6.286v-.286c1.061-1.061.204-2.53-1.388-5.347l-4.367-7.632c-.612.041-1.225.081-1.837.081h-3.796v10.49c0 1.429.286 2.041.898 2.408V118h-5.02v-.286c.612-.367.898-.979.898-2.408V92.163c0-1.47-.286-2.04-.898-2.408v-.326h7.918c6.327 0 12.04 2.367 12.04 7.714 0 3.837-3.06 6.163-7.142 7.102zm-8.572-6.204c7.714 0 8.816-4.204 8.816-7.347 0-3.184-1.06-7.388-8.816-7.388h-3.796v14.735zm25.345-6.123c5.47 0 10.204 3.429 10.204 9.062 0 6.53-5.592 10.816-11.061 10.816-5.51 0-10.205-3.347-10.205-9.061 0-6.735 5.592-10.817 11.062-10.817m2.285 19.143c4.654-1.347 5.919-6.449 4.49-11.388-1.428-4.898-5.265-8.367-9.918-7.02s-5.919 6.449-4.49 11.388c1.429 4.898 5.265 8.408 9.918 7.02m28.277-18.816c-1.755 1.796-3.183 3.796-4.694 7.551 0 0-3.265 8.122-4.734 11.755-1.47 3.673-3.306 6.735-6.531 6.735-2.204 0-3.796-1.021-4.816-2.898l3.183-2.898.245.204c-.408 2.286.041 5.428 2.286 5.184 2.122-.245 3.796-2.939 5.143-5.96l-5.225-12.285c-1.714-4-2.571-5.755-4.53-7.388v-.327h6.245v.327c-1.02 1.102-.694 2.204.245 4.49l4.857 11.347 3.347-8.327c1.51-3.755 2-6 .163-7.51v-.327h4.816zm16.958 19.02V118h-4.122v-5.714c-1.061 3.592-3.306 5.959-7.224 5.959-3.347 0-6.613-1.592-7.143-4.531-.694-4.163 1.796-6.612 4.938-7.918-1.061-2.367.205-7.429 5.674-7.429 3.388 0 6.979 1.796 6.979 6.817v10.122c0 1.429.286 2.041.898 2.408m-8.244-18.939c-3.674 0-6.123 3.552-4.898 6.858 2.204-.817 4.653-1.102 6.571-1.102.939 0 1.755.163 2.449.367v-.286c0-3.102-1.224-5.837-4.122-5.837m-2.123 18.939c3.551-.204 5.429-3.224 6.245-6.163v-6.286c-.204-.081-1.184-.367-2.449-.367-4.449 0-10.49 2.204-8.735 9.388.531 2.204 2.898 3.551 4.939 3.428m17.332-2.408c0 1.429.285 2.041.898 2.408V118h-5.021v-.286c.613-.367.898-.979.898-2.408V91.714c0-1.428-.122-1.836-.898-1.959v-.326l3.837-.858h.286zm15.525-26.286c3.142 0 6.571 1.96 8.979 3.837l-1.224 4.245h-.286c-2.327-5.47-5.306-7.551-8.531-7.551-4.04 0-6.367 2.286-6.612 4.735-.775 8.163 16.735 5.47 16.735 15.673 0 4.857-4.368 8.286-10.163 8.286-4.858 0-7.878-1.633-11.062-4.041l1.225-4.653h.286c2.081 4.163 5.877 7.878 11.224 7.878 3.469 0 6.367-2.245 6.694-4.817 1.061-8.694-16.49-5.918-16.49-16.163 0-3.306 2.653-7.429 9.225-7.429m30.942 28.694V118h-4.164v-9.918c-.53 4.612-1.918 10.163-7.224 10.163-3.755 0-6.735-2.367-6.735-7.184v-9.551c0-1.428-.122-1.837-.898-1.959v-.286l3.837-.898h.286v13.306c0 3.551 1.836 6.49 5.347 5.837 4.571-.898 5.387-9.428 5.387-12.857v-3.143c0-1.428-.122-1.837-.898-1.959v-.286l3.837-.898h.286v16.939c0 1.429.286 2.041.939 2.408m6.985-2.408c0 1.429.285 2.041.938 2.408V118h-5.061v-.286c.612-.367.898-.979.898-2.408V101.51c0-1.428-.122-1.837-.898-1.959v-.286l3.837-.898h.286zm-1.715-20.245a1.916 1.916 0 0 1-1.918-1.918c0-1.061.857-1.918 1.918-1.918 1.062 0 1.919.857 1.919 1.918a1.916 1.916 0 0 1-1.919 1.918m19.973 15.715.204.081c-.775 3.837-2.49 7.388-6.775 7.388-3.633 0-5.878-2.367-5.878-7.184V98.694h-2.408v-.327c3.469 0 3.755-3.632 3.755-5.592h3.225c0 3.143-3.102 5.47-5.551 5.592h9.02v.327h-4.816v12.979c0 3.551.979 6.286 4.449 5.837 2.694-.367 4.041-3.592 4.775-6.734m15.536-5.96c2.327.613 4.449 2.98 4.123 6.694-.245 2.898-2.817 6.735-8.613 6.735-5.632 0-11.061-2.776-11.224-9.51-.204-7.062 6.204-10.123 10.694-10.368 3.469-.163 8.245 1.51 8.816 6.449zm-6.857-5.959c-2.775.53-4.571 2.857-5.306 5.633h13.02c-.53-3.551-3.714-6.408-7.714-5.633m10.612 12.735c.49-4.245-2.326-6.776-5.428-6.776h-10.572c-.53 2.164-.408 4.572.286 6.531 1.51 4.286 4.571 6.163 8.735 6 3.51-.163 6.571-2.571 6.979-5.755m11.137-13.225c2.123 0 4.898 1.347 6.531 2.613l-.817 3.755h-.204c-1.265-3.47-3.877-6-6.204-6-2.775 0-4.326 1.551-4.53 3.224-.572 5.47 13.183 4 12.734 10.653-.245 3.225-3.265 5.633-7.836 5.633-3.307 0-5.755-1.102-7.96-2.735l.858-4.081h.204c1.387 2.857 4.449 6.244 8.081 6.244 2.939 0 5.143-1.51 5.388-3.265.776-5.347-13.469-2.979-12.49-10.979.327-2.653 1.796-5.062 6.245-5.062"/><path fill="#fff" d="m53.622 110.694-.206.118zm5.307 7.02h.237v-.106l-.078-.071zm0 .286v.238h.237V118zm-6.286 0h-.238v.238h.238zm0-.286-.168-.168-.07.07v.098zm-1.388-5.347.207-.117v-.001zm-4.367-7.632.206-.118-.074-.13-.148.01zm-5.633.081v-.238h-.238v.238zm.898 12.898h.238v-.134l-.115-.07zm0 .286v.238h.238V118zm-5.02 0h-.238v.238h.238zm0-.286-.123-.204-.115.07v.134zm0-27.959h-.238v.135l.115.07zm0-.326v-.238h-.238v.238zm12.816 14.816-.053-.232-.312.072.158.278zm-8.694-14.49v-.238h-.238v.238zm0 14.735h-.238v.238h.238zm12.367 6.204-.206.118c2.419 4.222 3.74 5.631 5.354 7.079l.159-.177.158-.177c-1.57-1.409-2.86-2.775-5.258-6.961zm5.307 7.02h-.238V118h.475v-.286zm0 .286v-.238h-6.286v.476h6.286zm-6.286 0h.238v-.286h-.476V118zm0-.286.168.169c.3-.3.471-.638.522-1.024.051-.381-.017-.79-.163-1.234-.29-.88-.918-1.977-1.708-3.375l-.207.117-.207.117c.802 1.419 1.398 2.465 1.67 3.289.134.408.181.741.144 1.023a1.26 1.26 0 0 1-.387.75zm-1.388-5.347.207-.118-4.368-7.632-.206.118-.207.118 4.368 7.633zm-4.367-7.632-.016-.238c-.614.041-1.218.081-1.821.081v.476c.621 0 1.242-.041 1.853-.082zm-1.837.081v-.238h-3.796v.476h3.796zm-3.796 0h-.238v10.49h.476v-10.49zm0 10.49h-.238c0 .726.072 1.271.236 1.689.168.429.429.714.778.923l.122-.204.123-.204a1.3 1.3 0 0 1-.58-.689c-.132-.337-.203-.812-.203-1.515zm.898 2.408h-.238V118h.476v-.286zm0 .286v-.238h-5.02v.476h5.02zm-5.02 0h.238v-.286h-.476V118zm0-.286.122.204c.349-.209.61-.494.778-.923.164-.418.236-.963.236-1.689h-.476c0 .703-.071 1.178-.203 1.515a1.3 1.3 0 0 1-.58.689zm.898-2.408h.238V92.163h-.476v23.143zm0-23.143h.238c0-.745-.072-1.29-.237-1.705a1.77 1.77 0 0 0-.777-.907l-.122.204-.123.204c.267.16.454.356.58.675.131.33.203.805.203 1.53zm-.898-2.408h.238v-.326h-.476v.326zm0-.326v.237h7.918v-.475h-7.918zm7.918 0v.237c3.139 0 6.104.589 8.275 1.822 2.162 1.227 3.528 3.085 3.528 5.655h.476c0-2.777-1.492-4.776-3.769-6.07-2.267-1.287-5.322-1.882-8.51-1.882zm12.04 7.714h-.237c0 3.67-2.919 5.941-6.958 6.87l.053.232.053.232c4.124-.949 7.328-3.331 7.328-7.334zm-7.142 7.102-.207.118 3.674 6.449.206-.118.207-.118-3.673-6.449zm-4.898.245v.238c3.899 0 6.181-1.064 7.481-2.578 1.295-1.508 1.573-3.414 1.573-5.007h-.476c0 1.55-.273 3.317-1.457 4.697-1.18 1.373-3.305 2.412-7.121 2.412zm8.816-7.347h.238c0-1.612-.267-3.529-1.557-5.042-1.295-1.52-3.578-2.584-7.497-2.584v.476c3.836 0 5.962 1.039 7.135 2.416 1.18 1.385 1.443 3.162 1.443 4.734zm-8.816-7.388v-.238h-3.796v.476h3.796zm-3.796 0h-.238v14.735h.476V89.755zm0 14.735v.238h3.796v-.476h-3.796zm31.426 13.02-.066-.228h-.002zm4.49-11.388.229-.066zm-9.918-7.02-.066-.228zm-4.49 11.388-.228.066zm7.633-12.123v.238c5.38 0 9.966 3.36 9.966 8.824h.476c0-5.803-4.883-9.3-10.442-9.3zM80.6 107.43h-.238c0 6.377-5.463 10.578-10.823 10.578v.476c5.578 0 11.299-4.371 11.299-11.054zm-11.061 10.816v-.238c-2.71 0-5.204-.823-7.017-2.333-1.808-1.506-2.95-3.704-2.95-6.49h-.475c0 2.928 1.205 5.26 3.121 6.856 1.912 1.592 4.52 2.443 7.32 2.443zm-10.205-9.061h.238c0-6.579 5.46-10.579 10.824-10.579v-.476c-5.576 0-11.3 4.164-11.3 11.055zm13.347 8.326.067.229c2.408-.697 3.942-2.371 4.684-4.497.739-2.119.692-4.681-.032-7.186l-.229.066-.228.067c.704 2.433.739 4.892.04 6.896-.698 1.996-2.123 3.547-4.368 4.197zm4.49-11.388.229-.066c-.726-2.487-2.066-4.626-3.835-5.975-1.774-1.353-3.974-1.904-6.378-1.207l.066.228.066.229c2.248-.651 4.294-.14 5.958 1.129 1.67 1.274 2.963 3.317 3.666 5.729zm-9.918-7.02-.066-.228c-2.409.697-3.942 2.371-4.684 4.497-.74 2.118-.693 4.68.032 7.185l.228-.066.229-.066c-.704-2.434-.74-4.892-.04-6.897.697-1.996 2.122-3.547 4.367-4.196zm-4.49 11.388-.228.066c.725 2.486 2.065 4.636 3.833 5.99 1.775 1.359 3.976 1.91 6.381 1.192l-.068-.228-.068-.228c-2.247.67-4.291.16-5.955-1.114-1.67-1.279-2.963-3.333-3.666-5.745zm38.195-11.796.17.166.068-.07v-.096zm-4.694 7.551-.22-.089zM91.53 118l-.22-.089-.001.001zm-11.347 3.837-.16-.176-.138.125.089.164zm3.183-2.898.153-.183-.16-.133-.153.14zm.245.204.234.042.025-.136-.106-.089zm2.286 5.184.026.236h.001zm5.143-5.96.217.097.042-.094-.04-.096zm-5.225-12.285.22-.093v-.001zm-4.53-7.388h-.238v.111l.085.072zm0-.327v-.238h-.238v.238zm6.245 0h.238v-.238h-.238zm0 .327.174.162.064-.069v-.093zm.245 4.49-.22.09v.003zm4.857 11.347-.219.093.226.527.213-.532zm3.347-8.327-.221-.089zm.163-7.51h-.238v.112l.087.072zm0-.327v-.238h-.238v.238zm4.816 0h.238v-.238h-.238zm0 .327-.17-.166c-1.779 1.82-3.224 3.847-4.744 7.628l.22.089.221.089c1.5-3.729 2.912-5.702 4.643-7.474zm-4.694 7.551-.22-.089v.001l-.001.001-.002.004-.007.018-.027.068-.107.264-.39.97-1.283 3.189c-1 2.485-2.183 5.424-2.918 7.24l.22.089.221.089a4613 4613 0 0 0 2.919-7.24l1.283-3.189.39-.97.106-.264.028-.069.007-.017.001-.005.001-.001zM91.53 118l-.221-.088c-.733 1.831-1.548 3.484-2.567 4.678-1.015 1.188-2.219 1.907-3.743 1.907v.476c1.7 0 3.027-.812 4.104-2.074 1.073-1.255 1.91-2.968 2.648-4.811zm-6.531 6.735v-.238c-2.112 0-3.626-.969-4.607-2.774l-.21.114-.208.113c1.06 1.95 2.73 3.023 5.025 3.023zm-4.816-2.898.16.176 3.183-2.898-.16-.176-.16-.176-3.183 2.898zm3.183-2.898-.152.183.245.204.152-.183.153-.183-.245-.204zm.245.204-.234-.042c-.209 1.168-.201 2.568.156 3.657.18.546.453 1.031.85 1.365.402.34.917.508 1.54.44l-.026-.236-.026-.237c-.5.054-.883-.078-1.182-.331-.307-.258-.541-.654-.704-1.15-.326-.992-.339-2.307-.14-3.424zm2.286 5.184.027.236c1.155-.133 2.155-.928 3.022-2.028.87-1.105 1.635-2.554 2.311-4.071l-.217-.097-.217-.097c-.671 1.504-1.417 2.912-2.25 3.971-.838 1.062-1.736 1.738-2.703 1.849zm5.143-5.96.219-.093-5.225-12.285-.219.093-.219.093 5.225 12.285zm-5.225-12.285.22-.094c-1.713-3.995-2.589-5.803-4.598-7.477l-.152.183-.153.183c1.91 1.591 2.748 3.293 4.465 7.298zm-4.53-7.388h.238v-.327h-.476v.327zm0-.327v.238h6.245v-.476h-6.245zm6.245 0h-.238v.327h.476v-.327zm0 .327-.175-.162c-.557.601-.753 1.22-.674 1.987.075.739.407 1.619.874 2.755l.22-.09.22-.091c-.473-1.149-.774-1.964-.84-2.622-.065-.631.085-1.115.55-1.615zm.245 4.49-.22.093 4.858 11.347.219-.093.218-.094-4.857-11.347zm4.857 11.347.22.088 3.347-8.326-.22-.089-.221-.089-3.347 8.327zm3.347-8.327.22.089c.755-1.876 1.27-3.408 1.354-4.67.086-1.283-.273-2.302-1.26-3.113l-.151.184-.151.184c.85.698 1.164 1.558 1.087 2.713-.079 1.177-.565 2.645-1.32 4.524zm.163-7.51h.238v-.327h-.476v.327zm0-.327v.238h4.816v-.476h-4.816zm4.816 0h-.238v.327h.476v-.327zm16.958 19.347h.238v-.134l-.115-.07zm0 .286v.238h.238V118zm-4.122 0h-.238v.238h.238zm0-5.714h.238l-.466-.068zm-14.367 1.428-.235.039v.004zm4.938-7.918.092.22.226-.094-.1-.223zm.409-.163-.224.082.083.223.223-.082zm9.02-.735-.067.228.305.09v-.318zm-6.245 12.816-.014-.237zm6.245-6.163.229.064.009-.032v-.032zm0-6.286h.238v-.161l-.15-.06zm-11.184 9.021.232-.056-.001-.001zm15.306 3.428h-.237V118h.475v-.286zm0 .286v-.238h-4.122v.476h4.122zm-4.122 0h.238v-5.714h-.476V118zm0-5.714-.228-.068c-.522 1.768-1.33 3.213-2.47 4.216-1.136.998-2.619 1.573-4.526 1.573v.476c2.01 0 3.609-.609 4.84-1.692 1.228-1.079 2.073-2.614 2.612-4.438zm-7.224 5.959v-.238c-1.639 0-3.249-.39-4.507-1.13s-2.152-1.819-2.402-3.205l-.234.042-.235.043c.28 1.553 1.284 2.738 2.629 3.53 1.344.79 3.04 1.196 4.749 1.196zm-7.143-4.531.234-.039c-.337-2.023.1-3.611.99-4.853.894-1.248 2.26-2.164 3.806-2.806l-.092-.22-.091-.22c-1.597.664-3.047 1.625-4.01 2.969-.968 1.35-1.429 3.068-1.072 5.208zm4.938-7.918.218-.097c-.497-1.108-.457-2.886.378-4.39.825-1.485 2.429-2.704 5.078-2.704v-.476c-2.821 0-4.584 1.312-5.494 2.949-.899 1.619-.961 3.555-.397 4.815zm5.674-7.429v.238c1.656 0 3.342.44 4.61 1.472 1.259 1.026 2.132 2.659 2.132 5.107h.475c0-2.573-.923-4.349-2.307-5.476-1.375-1.12-3.178-1.579-4.91-1.579zm6.979 6.817h-.237v10.122h.475v-10.122zm0 10.122h-.237c0 .726.071 1.271.235 1.689.168.429.429.714.778.923l.122-.204.123-.204a1.3 1.3 0 0 1-.58-.689c-.132-.337-.203-.812-.203-1.515zm-7.346-16.53v-.238c-3.836 0-6.405 3.712-5.122 7.177l.224-.082.223-.083c-1.166-3.147 1.163-6.537 4.675-6.537zm-4.898 6.857.082.223c2.171-.804 4.59-1.087 6.489-1.087v-.476c-1.938 0-4.417.288-6.654 1.117zm6.571-1.102v.238a8.4 8.4 0 0 1 2.382.357l.067-.228.067-.228a8.8 8.8 0 0 0-2.516-.377zm2.449.367h.238v-.286h-.476v.286zm0-.286h.238c0-1.577-.31-3.085-1.011-4.207-.707-1.135-1.811-1.867-3.349-1.867v.475c1.359 0 2.316.635 2.946 1.644.636 1.02.938 2.43.938 3.955zm-6.245 13.102.014.238c3.71-.213 5.636-3.371 6.46-6.337l-.229-.064-.229-.064c-.809 2.911-2.638 5.795-6.03 5.99zm6.245-6.163h.238v-6.286h-.476v6.286zm0-6.286.088-.221c-.232-.093-1.242-.384-2.537-.384v.476c1.236 0 2.185.28 2.361.35zm-2.449-.367v-.238c-2.254 0-4.936.557-6.841 2.051-.956.75-1.716 1.737-2.122 3.005-.405 1.266-.45 2.797-.003 4.626l.231-.056.231-.057c-.43-1.762-.378-3.201-.005-4.368.372-1.166 1.071-2.077 1.962-2.776 1.789-1.404 4.352-1.949 6.547-1.949zm-8.735 9.388-.231.055c.563 2.339 3.053 3.739 5.184 3.611l-.014-.238-.014-.237c-1.951.117-4.195-1.178-4.693-3.247zm23.169 3.428h.238v-.134l-.116-.07zm0 .286v.238h.238V118zm-5.021 0h-.238v.238h.238zm0-.286-.122-.204-.116.07v.134zm0-27.959h-.238v.203l.201.032zm0-.326-.052-.233-.186.042v.19zm3.837-.858v-.237h-.026l-.026.005zm.286 0h.238v-.237h-.238zm0 26.735h-.238c0 .726.072 1.271.236 1.689.168.429.428.714.777.923l.123-.204.122-.204a1.3 1.3 0 0 1-.579-.689c-.132-.337-.203-.812-.203-1.515zm.898 2.408h-.238V118h.476v-.286zm0 .286v-.238h-5.021v.476h5.021zm-5.021 0h.238v-.286h-.476V118zm0-.286.123.204c.349-.209.609-.494.777-.923.164-.418.236-.963.236-1.689h-.476c0 .703-.071 1.178-.203 1.515a1.3 1.3 0 0 1-.579.689zm.898-2.408h.238V91.714h-.476v23.592zm0-23.592h.238c0-.703-.027-1.214-.177-1.563a.96.96 0 0 0-.362-.439 1.4 1.4 0 0 0-.56-.192l-.037.235-.037.235c.177.028.294.07.376.122.076.05.135.117.183.227.104.243.138.65.138 1.375zm-.898-1.959h.238v-.326h-.476v.326zm0-.326.052.232 3.837-.857-.052-.233-.052-.232-3.837.857zm3.837-.858v.238h.286v-.475h-.286zm.286 0h-.238v26.735h.476V88.571zm24.504 4.286.229.066.044-.154-.127-.1zm-1.224 4.245v.238h.179l.049-.172zm-.286 0-.219.093.062.145h.157zm-15.143-2.816-.237-.024v.001zm-4.49 19.918-.23-.06-.04.154.127.096zm1.225-4.653v-.238h-.184l-.046.177zm.286 0 .212-.106-.065-.132h-.147zm17.918 3.061.236.03v-.001zm-7.265-23.592v.238c3.059 0 6.434 1.917 8.833 3.787l.146-.188.146-.187c-2.417-1.886-5.9-3.888-9.125-3.888zm8.979 3.837-.228-.066-1.225 4.245.229.066.228.066 1.225-4.245zm-1.224 4.245v-.238h-.286v.476h.286zm-.286 0 .219-.093c-2.346-5.515-5.391-7.696-8.75-7.696v.476c3.09 0 6.005 1.982 8.312 7.406zm-8.531-7.551v-.238c-4.132 0-6.589 2.35-6.849 4.949l.237.024.237.023c.23-2.298 2.426-4.52 6.375-4.52zm-6.612 4.735-.237-.023c-.101 1.065.096 1.965.526 2.737.427.77 1.078 1.399 1.864 1.94 1.562 1.075 3.713 1.834 5.839 2.64 2.145.812 4.274 1.676 5.87 2.959 1.582 1.272 2.635 2.952 2.635 5.42h.476c0-2.634-1.136-4.443-2.813-5.791-1.663-1.337-3.863-2.224-5.999-3.033-2.155-.817-4.236-1.553-5.738-2.587-.747-.514-1.337-1.094-1.719-1.78-.379-.682-.56-1.484-.467-2.46zm16.735 15.673h-.238c0 4.681-4.21 8.048-9.925 8.048v.476c5.876 0 10.401-3.49 10.401-8.524zm-10.163 8.286v-.238c-4.788 0-7.759-1.603-10.918-3.993l-.144.19-.143.19c3.208 2.426 6.278 4.089 11.205 4.089zm-11.062-4.041.23.061 1.225-4.653-.23-.061-.23-.061-1.225 4.654zm1.225-4.653v.238h.286v-.476h-.286zm.286 0-.213.106c2.103 4.207 5.965 8.009 11.437 8.009v-.475c-5.221 0-8.952-3.626-11.012-7.746zm11.224 7.878v.237c3.55 0 6.584-2.299 6.93-5.024l-.236-.03-.236-.03c-.307 2.418-3.07 4.609-6.458 4.609zm6.694-4.817.236.029c.138-1.127-.026-2.082-.426-2.903-.399-.82-1.027-1.492-1.796-2.069-1.528-1.146-3.659-1.947-5.774-2.778-2.133-.839-4.259-1.712-5.855-3.002-1.582-1.279-2.637-2.962-2.637-5.44h-.476c0 2.644 1.139 4.456 2.814 5.81 1.662 1.343 3.858 2.24 5.98 3.075 2.14.841 4.198 1.618 5.662 2.716.728.546 1.297 1.163 1.654 1.896.356.731.509 1.591.382 2.637zm-16.49-16.163h.238c0-1.592.639-3.386 2.076-4.784 1.434-1.394 3.677-2.407 6.911-2.407v-.475c-3.338 0-5.707 1.048-7.243 2.541-1.533 1.491-2.22 3.41-2.22 5.125zm40.167 21.265h.237v-.139l-.121-.068zm0 .286v.238h.237V118zm-4.164 0h-.238v.238h.238zm0-9.918h.238l-.474-.028zm-14.857-8.531h-.238v.203l.201.032zm0-.286-.054-.231-.184.043v.188zm3.837-.898v-.238h-.028l-.026.007zm.286 0h.238v-.238h-.238zm5.347 19.143.043.234h.002zm4.489-17.959h-.238v.203l.201.032zm0-.286-.054-.231-.184.043v.188zm3.837-.898v-.238h-.027l-.027.007zm.286 0h.238v-.238h-.238zm.939 19.347h-.238V118h.475v-.286zm0 .286v-.238h-4.164v.476h4.164zm-4.164 0h.238v-9.918h-.476V118zm0-9.918-.236-.028c-.265 2.301-.741 4.803-1.794 6.725-1.045 1.906-2.647 3.228-5.194 3.228v.476c2.759 0 4.504-1.454 5.612-3.476 1.099-2.007 1.583-4.587 1.849-6.898zm-7.224 10.163v-.238c-1.828 0-3.447-.576-4.609-1.717-1.16-1.141-1.888-2.871-1.888-5.229h-.476c0 2.459.762 4.321 2.031 5.568 1.267 1.246 3.015 1.854 4.942 1.854zm-6.735-7.184h.238v-9.551h-.476v9.551zm0-9.551h.238c0-.703-.027-1.214-.178-1.563a.95.95 0 0 0-.361-.439 1.4 1.4 0 0 0-.56-.192l-.037.235-.037.235c.177.028.294.07.376.122.076.05.135.117.182.227.105.243.139.65.139 1.375zm-.898-1.959h.238v-.285h-.476v.285zm0-.286.054.232 3.837-.898-.054-.232-.054-.231-3.837.898zm3.837-.898v.238h.286v-.476h-.286zm.286 0h-.238v13.306h.476V98.367zm0 13.306h-.238c0 1.811.467 3.494 1.411 4.646.954 1.166 2.379 1.767 4.217 1.425l-.043-.234-.044-.234c-1.672.311-2.92-.23-3.762-1.258-.853-1.042-1.303-2.604-1.303-4.345zm5.347 5.837.045.234c1.218-.239 2.173-.986 2.917-1.999.742-1.01 1.282-2.297 1.674-3.648.784-2.703.989-5.717.989-7.444h-.476c0 1.702-.203 4.667-.97 7.311-.383 1.323-.904 2.551-1.601 3.5-.695.946-1.556 1.603-2.624 1.813zm5.387-12.857h.238v-3.143h-.476v3.143zm0-3.143h.238c0-.703-.027-1.214-.177-1.563a.96.96 0 0 0-.362-.439 1.4 1.4 0 0 0-.56-.192l-.037.235-.037.235c.177.028.294.07.376.122.076.05.135.117.183.227.104.243.138.65.138 1.375zm-.898-1.959h.238v-.285h-.476v.285zm0-.286.055.232 3.836-.898-.054-.232-.054-.231-3.837.898zm3.837-.898v.238h.286v-.476h-.286zm.286 0h-.238v16.939h.476V98.367zm0 16.939h-.238c0 .725.072 1.272.242 1.692.175.431.448.716.818.924l.117-.208.116-.207a1.3 1.3 0 0 1-.61-.688c-.136-.336-.207-.81-.207-1.513zm8.862 2.408h.238v-.139l-.121-.068zm0 .286v.238h.238V118zm-5.061 0h-.238v.238h.238zm0-.286-.122-.204-.116.07v.134zm0-18.163h-.238v.203l.201.032zm0-.286-.054-.231-.184.043v.188zm3.837-.898v-.238h-.028l-.026.007zm.286 0h.238v-.238h-.238zm0 16.939h-.238c0 .725.071 1.272.242 1.692.174.431.448.716.818.924l.116-.208.117-.207a1.3 1.3 0 0 1-.61-.688c-.136-.336-.207-.81-.207-1.513zm.938 2.408h-.238V118h.476v-.286zm0 .286v-.238h-5.061v.476h5.061zm-5.061 0h.238v-.286h-.476V118zm0-.286.123.204c.348-.209.609-.494.777-.923.164-.418.236-.963.236-1.689h-.476c0 .703-.071 1.178-.203 1.515a1.3 1.3 0 0 1-.579.689zm.898-2.408h.238V101.51h-.476v13.796zm0-13.796h.238c0-.703-.027-1.214-.178-1.563a.95.95 0 0 0-.361-.439 1.4 1.4 0 0 0-.56-.192l-.037.235-.037.235c.177.028.294.07.376.122.076.05.135.117.182.227.105.243.139.65.139 1.375zm-.898-1.959h.238v-.285h-.476v.285zm0-.286.054.232 3.837-.898-.054-.232-.054-.231-3.837.898zm3.837-.898v.238h.286v-.476h-.286zm.286 0h-.238v16.939h.476V98.367zm-1.715-3.306v-.238c-.93 0-1.68-.75-1.68-1.68h-.476c0 1.192.964 2.156 2.156 2.156zm-1.918-1.918h.238c0-.93.75-1.68 1.68-1.68v-.476a2.154 2.154 0 0 0-2.156 2.156zm1.918-1.918v.237c.93 0 1.681.751 1.681 1.68h.476a2.154 2.154 0 0 0-2.157-2.155zm1.919 1.918h-.238c0 .93-.751 1.68-1.681 1.68v.476a2.154 2.154 0 0 0 2.157-2.156zm18.054 17.633.089-.221-.257-.103-.063.269zm.204.081.233.047.04-.194-.184-.074zm-12.653-12.163h.238v-.238h-.238zm-2.408 0h-.238v.238h.238zm0-.327v-.238h-.238v.238zm3.755-5.592v-.237h-.238v.237zm3.225 0h.238v-.237h-.238zm-5.551 5.592-.012-.237.012.475zm9.02 0h.238v-.238h-.238zm0 .327v.238h.238v-.238zm-4.816 0v-.238h-.238v.238zm4.449 18.816.03.236h.002zm4.775-6.734-.088.22.204.082.088-.221.089-.221-.204-.081zm.204.081-.233-.047c-.385 1.905-.998 3.709-2.026 5.034-1.019 1.313-2.452 2.163-4.516 2.163v.476c2.221 0 3.788-.926 4.892-2.347 1.094-1.41 1.726-3.3 2.116-5.232zm-6.775 7.388v-.238c-1.762 0-3.159-.572-4.12-1.702-.966-1.136-1.52-2.869-1.52-5.244h-.476c0 2.442.569 4.3 1.634 5.552 1.069 1.258 2.611 1.87 4.482 1.87zm-5.878-7.184h.238V98.694h-.476v12.367zm0-12.367v-.238h-2.408v.476h2.408zm-2.408 0h.238v-.327h-.476v.327zm0-.327v.238c.911 0 1.63-.24 2.19-.643.557-.402.942-.956 1.207-1.56.526-1.202.596-2.643.596-3.627h-.476c0 .976-.072 2.331-.556 3.436-.241.548-.578 1.025-1.05 1.365-.469.339-1.087.553-1.911.553zm3.755-5.592v.238h3.225v-.475h-3.225zm3.225 0h-.238c0 1.49-.735 2.797-1.78 3.754-1.047.958-2.384 1.543-3.545 1.6l.012.238.012.238c1.288-.064 2.726-.704 3.842-1.725 1.118-1.024 1.935-2.451 1.935-4.105zm-5.551 5.592v.238h9.02v-.476h-9.02zm9.02 0h-.238v.327h.476v-.327zm0 .327v-.238h-4.816v.476h4.816zm-4.816 0h-.238v12.979h.476v-12.98zm0 12.979h-.238c0 1.787.244 3.416.96 4.546.362.571.845 1.017 1.474 1.287.628.269 1.384.356 2.283.24l-.03-.236-.031-.236c-.836.108-1.502.023-2.034-.206-.53-.227-.943-.603-1.26-1.103-.641-1.013-.886-2.527-.886-4.292zm4.449 5.837.032.236c1.444-.197 2.507-1.16 3.293-2.438.785-1.277 1.312-2.897 1.682-4.478l-.232-.054-.231-.055c-.366 1.562-.879 3.125-1.625 4.338-.745 1.212-1.702 2.045-2.951 2.215zm20.311-12.694v-.238l-.06.468zm4.123 6.694-.237-.021v.001zm-19.837-2.775.238-.006v-.001zm10.694-10.368-.011-.237h-.002zm8.816 6.449v.238h.267l-.031-.265zm-10.653-5.959.045.234zm-5.306 5.633-.23-.061-.079.299h.309zm13.02 0v.238h.276l-.04-.273zm2.898 7.102.236.03.001-.003zm-16-6.776v-.238h-.186l-.045.182zm.286 6.531.224-.079zm8.735 6 .009.238h.002zm3.224-12.531-.06.23c2.21.582 4.262 2.841 3.946 6.443l.237.021.237.021c.336-3.826-1.857-6.302-4.299-6.945zm4.123 6.694-.237-.02c-.235 2.781-2.709 6.517-8.376 6.517v.476c5.926 0 8.595-3.938 8.85-6.953zm-8.613 6.735v-.238c-2.781 0-5.492-.686-7.522-2.183-2.021-1.491-3.384-3.799-3.464-7.095l-.238.006-.238.005c.083 3.439 1.516 5.886 3.658 7.467 2.134 1.574 4.953 2.276 7.804 2.276zm-11.224-9.51.238-.007c-.1-3.446 1.41-5.908 3.496-7.546 2.093-1.644 4.769-2.457 6.973-2.577l-.013-.238-.013-.237c-2.286.124-5.059.965-7.241 2.678-2.19 1.719-3.782 4.319-3.678 7.934zm10.694-10.368.011.238c1.697-.08 3.71.29 5.362 1.278 1.644.982 2.931 2.574 3.207 4.961l.236-.028.236-.027c-.295-2.552-1.681-4.267-3.435-5.315-1.746-1.043-3.856-1.428-5.628-1.344zm8.816 6.449v-.238h-2.898v.476h2.898zm-2.898 0v-.238h-.898v.476h.898zm-7.755-5.959-.045-.233c-2.896.553-4.742 2.977-5.491 5.805l.23.061.23.061c.721-2.723 2.466-4.953 5.121-5.46zm-5.306 5.633v.238h13.02v-.476h-13.02zm13.02 0 .236-.035c-.548-3.664-3.842-6.637-7.995-5.831l.045.233.045.234c3.847-.746 6.92 1.995 7.434 5.434zm2.898 7.102.237.027c.251-2.182-.346-3.945-1.426-5.165-1.078-1.216-2.624-1.876-4.239-1.876v.476c1.486 0 2.9.606 3.883 1.716.981 1.107 1.547 2.732 1.309 4.795zm-5.428-6.776v-.238h-10.572v.476h10.572zm-10.572 0-.231-.056c-.541 2.207-.417 4.662.293 6.666l.224-.079.224-.079c-.678-1.915-.799-4.275-.279-6.395zm.286 6.531-.224.079c.768 2.181 1.939 3.768 3.464 4.787 1.526 1.019 3.384 1.455 5.504 1.372l-.009-.238-.01-.238c-2.043.08-3.797-.341-5.22-1.292-1.424-.95-2.539-2.444-3.281-4.549zm8.735 6 .011.238c3.599-.168 6.778-2.64 7.204-5.963l-.236-.03-.236-.03c-.39 3.044-3.333 5.388-6.754 5.547zm24.647-16.367.232.05.032-.147-.119-.091zm-.817 3.755v.238h.192l.041-.188zm-.204 0-.223.081.057.157h.166zm-10.734-2.776-.237-.029v.004zm12.734 10.653.238.018v-.002zm-15.796 2.898-.232-.049-.032.15.123.09zm.858-4.081v-.238h-.194l-.039.189zm.204 0 .214-.104-.065-.134h-.149zm13.469 2.979-.235-.034-.001.001zm-12.49-10.979-.236-.029zm6.245-5.062v.238c1.017 0 2.208.324 3.356.813 1.146.487 2.23 1.13 3.029 1.75l.146-.188.145-.188c-.833-.646-1.953-1.31-3.134-1.812-1.178-.501-2.436-.85-3.542-.85zm6.531 2.613-.233-.051-.816 3.755.232.051.233.05.816-3.755zm-.817 3.755v-.238h-.204v.476h.204zm-.204 0 .224-.082c-.644-1.765-1.632-3.296-2.762-4.39-1.127-1.09-2.418-1.766-3.666-1.766v.476c1.079 0 2.258.59 3.335 1.632 1.073 1.038 2.024 2.507 2.646 4.211zm-6.204-6v-.238c-2.87 0-4.545 1.617-4.767 3.433l.237.029.236.029c.186-1.53 1.613-3.015 4.294-3.015zm-4.53 3.224-.237-.025c-.077.738.088 1.367.438 1.909.347.537.868.977 1.486 1.355 1.23.753 2.913 1.299 4.556 1.869 1.661.575 3.286 1.176 4.471 2.036 1.17.849 1.888 1.933 1.783 3.493l.237.016.238.016c.119-1.766-.714-2.993-1.979-3.91-1.25-.908-2.944-1.529-4.594-2.101-1.669-.578-3.289-1.106-4.463-1.824-.584-.358-1.041-.752-1.335-1.208-.291-.45-.431-.971-.365-1.601zm12.734 10.653-.237-.018c-.232 3.056-3.102 5.413-7.599 5.413v.476c4.645 0 7.816-2.46 8.074-5.853zm-7.836 5.633v-.238c-3.245 0-5.645-1.078-7.818-2.688l-.142.191-.141.191c2.235 1.656 4.733 2.782 8.101 2.782zm-7.96-2.735.233.049.857-4.082-.232-.048-.233-.049-.857 4.081zm.858-4.081v.237h.204v-.475h-.204zm.204 0-.214.104c.706 1.454 1.837 3.042 3.257 4.269s3.146 2.109 5.038 2.109v-.475c-1.74 0-3.361-.813-4.727-1.994-1.365-1.18-2.459-2.714-3.14-4.117zm8.081 6.244v.238c1.509 0 2.84-.387 3.831-1.011.989-.622 1.658-1.492 1.793-2.459l-.236-.033-.236-.033c-.11.788-.665 1.551-1.574 2.123-.907.57-2.148.938-3.578.938zm5.388-3.265.235.034c.106-.724-.044-1.332-.392-1.846-.344-.507-.869-.907-1.492-1.243-1.236-.669-2.948-1.134-4.599-1.666-1.673-.539-3.296-1.149-4.442-2.103-1.128-.938-1.798-2.212-1.564-4.127l-.236-.028-.236-.029c-.255 2.085.488 3.515 1.731 4.55 1.225 1.02 2.931 1.652 4.601 2.19 1.69.544 3.333.99 4.519 1.631.588.318 1.04.673 1.324 1.092.278.411.404.899.316 1.511zm-12.49-10.979.236.029c.16-1.295.595-2.501 1.506-3.384.909-.88 2.322-1.469 4.503-1.469v-.476c-2.268 0-3.814.615-4.834 1.603-1.017.985-1.48 2.31-1.647 3.668z" mask="url(#b)"/></svg>