<svg width="60" height="60" viewBox="0 0 60 60" fill="none" xmlns="http://www.w3.org/2000/svg">
<path d="M42.234 52.7805C44.4033 52.7805 46.5239 52.1372 48.3277 50.932C50.1314 49.7268 51.5373 48.0137 52.3674 46.0095C53.1976 44.0053 53.4148 41.8 52.9916 39.6723C52.5684 37.5446 51.5237 35.5903 49.9898 34.0563C48.4558 32.5224 46.5015 31.4777 44.3738 31.0545C42.2462 30.6313 40.0408 30.8485 38.0366 31.6787C36.0324 32.5088 34.3193 33.9147 33.1141 35.7184C31.9089 37.5222 31.2656 39.6428 31.2656 41.8121C31.269 44.7201 32.4256 47.508 34.4819 49.5642C36.5381 51.6205 39.326 52.7771 42.234 52.7805ZM33.8643 37.8036L35.1181 38.0145L35.4387 39.7298L33.871 41.1236L33.0239 40.6866C33.1444 39.6861 33.4283 38.7121 33.8643 37.8036ZM38.5039 50.3075C37.5425 49.8833 36.6599 49.2994 35.8934 48.5804L36.3212 47.5891L38.4183 47.7182L39.2687 49.4191L38.5039 50.3075ZM45.1992 49.4191L46.0497 47.7182L48.1464 47.5895L48.5745 48.5809C47.8081 49.2996 46.9255 49.8834 45.9641 50.3075L45.1992 49.4191ZM51.444 40.6866L50.5969 41.1236L49.0297 39.7298L49.3499 38.0145L50.6037 37.8036C51.0397 38.7121 51.3236 39.6861 51.444 40.6866ZM43.7029 32.6485L43.9092 33.8689L42.2631 34.6574L40.5546 33.7065L40.7284 32.6961C40.7305 32.6822 40.7296 32.6687 40.7313 32.6548C41.7151 32.4921 42.7184 32.49 43.7029 32.6485ZM38.9401 33.1374L38.7895 34.0094C38.7599 34.1817 38.7845 34.359 38.86 34.5167C38.9355 34.6745 39.0581 34.8048 39.2109 34.8898L41.8235 36.344C41.9414 36.4096 42.0733 36.446 42.2081 36.4501C42.343 36.4542 42.4768 36.4259 42.5985 36.3676L45.2111 35.1164C45.3763 35.0373 45.5113 34.9066 45.5957 34.7441C45.6801 34.5815 45.7093 34.3959 45.6789 34.2153L45.4945 33.1239C47.1517 33.7496 48.5964 34.8343 49.6596 36.2512L48.4885 36.4482C48.318 36.4768 48.1604 36.5571 48.0371 36.6782C47.9137 36.7993 47.8305 36.9553 47.7987 37.1253L47.2832 39.8884C47.2565 40.0314 47.2672 40.1789 47.3143 40.3165C47.3614 40.4542 47.4433 40.5773 47.552 40.6739L49.9085 42.7693C50.0358 42.8825 50.1945 42.9545 50.3635 42.9758C50.5325 42.9971 50.7041 42.9668 50.8555 42.8887L51.4816 42.566C51.348 44.2244 50.7683 45.8157 49.8038 47.1714L49.4609 46.3766C49.3924 46.2171 49.2762 46.0826 49.1282 45.9917C48.9802 45.9009 48.8077 45.858 48.6345 45.8691L45.4608 46.0636C45.3131 46.0726 45.1704 46.1203 45.047 46.2019C44.9235 46.2835 44.8237 46.3962 44.7576 46.5285L43.4388 49.1664C43.3644 49.3152 43.3356 49.4827 43.3561 49.6479C43.3765 49.813 43.4454 49.9684 43.554 50.0945L44.2264 50.8754C42.914 51.1656 41.554 51.1656 40.2415 50.8754L40.914 50.0941C41.0225 49.968 41.0913 49.8127 41.1118 49.6476C41.1323 49.4826 41.1035 49.3152 41.0292 49.1664L39.7104 46.5285C39.6443 46.3962 39.5445 46.2835 39.421 46.2019C39.2976 46.1203 39.1549 46.0726 39.0072 46.0636L35.8335 45.8691C35.6602 45.8579 35.4876 45.9006 35.3396 45.9915C35.1916 46.0824 35.0754 46.217 35.0071 46.3766L34.6641 47.1714C33.6997 45.8157 33.12 44.2244 32.9864 42.566L33.6124 42.8887C33.7639 42.9668 33.9354 42.9971 34.1045 42.9758C34.2735 42.9545 34.4322 42.8825 34.5595 42.7693L36.916 40.6739C37.0247 40.5773 37.1065 40.4543 37.1536 40.3167C37.2006 40.1792 37.2114 40.0318 37.1847 39.8889L36.6692 37.1257C36.6376 36.9557 36.5544 36.7995 36.431 36.6783C36.3077 36.5571 36.15 36.4768 35.9795 36.4482L34.8084 36.2512C35.8643 34.8444 37.2969 33.765 38.9401 33.1374Z" fill="#C88C00"/>
<path d="M39.6114 45.0005C39.6646 45.1727 39.7715 45.3233 39.9165 45.4304C40.0615 45.5374 40.237 45.5952 40.4172 45.5953H44.0507C44.2309 45.5952 44.4064 45.5374 44.5514 45.4304C44.6964 45.3233 44.8033 45.1727 44.8564 45.0005L45.9794 41.367C46.0305 41.2021 46.0297 41.0255 45.9772 40.861C45.9247 40.6965 45.823 40.5521 45.6858 40.4473L42.7463 38.2022C42.5993 38.0897 42.4193 38.0288 42.2342 38.0288C42.049 38.0288 41.869 38.0897 41.722 38.2022L38.7825 40.4478C38.6453 40.5526 38.5436 40.6969 38.4911 40.8614C38.4386 41.0259 38.4378 41.2025 38.4889 41.3674L39.6114 45.0005ZM42.2342 39.9339L44.1937 41.4315L43.4284 43.9079H41.0399L40.2746 41.4315L42.2342 39.9339ZM39.6136 16.5004C40.3419 16.5036 41.057 16.3062 41.6807 15.9301C41.9085 16.4891 42.2566 16.9911 42.7001 17.4005C43.1437 17.8099 43.6719 18.1168 44.2473 18.2993C45.3707 22.4875 42.127 27.4363 42.0928 27.4874C41.9721 27.6735 41.9295 27.8997 41.9743 28.117C42.0192 28.3343 42.1478 28.5252 42.3323 28.6484C42.5169 28.7715 42.7426 28.817 42.9604 28.775C43.1783 28.733 43.3708 28.6069 43.4964 28.4239C43.6596 28.1796 47.4677 22.3875 45.7111 17.3189C45.6599 17.1751 45.5712 17.0477 45.4541 16.9497C45.3371 16.8518 45.196 16.787 45.0454 16.762C44.5184 16.6688 44.0378 16.4017 43.6804 16.0033C43.3231 15.6048 43.1096 15.0981 43.0741 14.5641C43.0686 14.5141 43.0588 14.4647 43.0445 14.4165C43.2258 14.02 43.3199 13.5893 43.3204 13.1534C43.3204 12.9296 43.2315 12.715 43.0733 12.5568C42.9151 12.3986 42.7005 12.3097 42.4767 12.3097C42.253 12.3097 42.0384 12.3986 41.8801 12.5568C41.7219 12.715 41.633 12.9296 41.633 13.1534C41.633 14.0688 40.7268 14.813 39.6136 14.813C38.4998 14.813 37.5937 14.0684 37.5937 13.1534C37.6261 12.7664 37.786 12.4011 38.0484 12.1148C38.3109 11.8284 38.6609 11.6373 39.0436 11.5714C39.0542 11.5731 39.0635 11.5769 39.074 11.5778C39.4231 11.6107 39.7502 11.7628 40.0004 12.0085C40.1376 12.1853 40.3395 12.3003 40.5615 12.3282C40.7835 12.3562 41.0076 12.2948 41.1844 12.1576C41.3611 12.0204 41.4762 11.8185 41.5041 11.5965C41.5321 11.3745 41.4707 11.1504 41.3335 10.9737C41.0384 10.6061 40.6527 10.3217 40.2143 10.1485C40.1016 9.91004 40.042 9.64994 40.0396 9.38619C40.0396 8.18938 41.2078 7.21615 42.6434 7.21615L42.6628 7.21699C42.7215 7.315 42.7997 7.39998 42.8925 7.46672C42.9853 7.53345 43.0907 7.58054 43.2023 7.6051C43.4978 7.68034 43.757 7.85792 43.9338 8.10627C43.9842 8.20496 44.0535 8.29277 44.1378 8.36468C44.2221 8.43659 44.3197 8.4912 44.4251 8.52538C44.5305 8.55955 44.6416 8.57264 44.752 8.56388C44.8625 8.55513 44.9701 8.5247 45.0688 8.47434C45.1675 8.42399 45.2553 8.35468 45.3273 8.27039C45.3992 8.18609 45.4538 8.08846 45.4879 7.98307C45.5221 7.87767 45.5352 7.76657 45.5265 7.65612C45.5177 7.54567 45.4873 7.43802 45.4369 7.33933C45.3201 7.11281 45.1672 6.90679 44.9843 6.72932C44.9901 6.64729 44.9838 6.56485 44.9657 6.48464C44.9442 6.39196 44.9335 6.29713 44.9336 6.20199C44.9336 5.36755 45.7647 4.68836 46.786 4.68836C47.8078 4.68836 48.6393 5.36755 48.6393 6.20242C48.6383 6.40349 48.5891 6.6014 48.4958 6.77952C48.4065 6.95358 48.3804 7.15327 48.4221 7.34443C48.4637 7.53559 48.5705 7.70634 48.7241 7.82745C48.8778 7.94856 49.0688 8.0125 49.2644 8.00834C49.46 8.00418 49.6481 7.93217 49.7964 7.80464C50.1362 7.52265 50.5656 7.37138 51.0072 7.37814C51.3826 7.34981 51.7557 7.45672 52.0592 7.67955C52.3626 7.90238 52.5763 8.22642 52.6617 8.5931C51.8905 8.6846 51.1792 9.05435 50.6612 9.63298C50.56 9.75615 50.4958 9.90555 50.4761 10.0638C50.4565 10.222 50.4822 10.3826 50.5503 10.5268C50.6183 10.671 50.726 10.7929 50.8606 10.8782C50.9953 10.9636 51.1514 11.009 51.3109 11.0091C51.4323 11.0092 51.5522 10.9834 51.6628 10.9335C51.7734 10.8835 51.872 10.8105 51.9521 10.7193C52.1989 10.4602 52.5298 10.2974 52.8857 10.2603C53.0315 10.25 53.172 10.2015 53.2932 10.1198C53.3314 10.1283 53.3702 10.1341 53.4092 10.1371C54.4584 10.1725 55.3118 10.9007 55.3118 11.76C55.3118 12.5577 54.5854 13.2487 53.6218 13.3664C53.4021 13.3964 53.2029 13.5116 53.0675 13.6873C52.932 13.8629 52.8712 14.0848 52.8982 14.305C52.9251 14.5251 53.0377 14.7258 53.2115 14.8636C53.3853 15.0014 53.6064 15.0652 53.8269 15.0412C55.6354 14.8202 56.9993 13.4091 56.9993 11.76C56.9754 11.0124 56.7033 10.2941 56.2259 9.71832C55.7485 9.14257 55.0929 8.74221 54.3626 8.58044C54.274 6.97315 52.8026 5.6907 51.0067 5.6907C50.7671 5.69054 50.5281 5.71357 50.2929 5.75946C50.0538 4.20322 48.5722 3.00092 46.786 3.00092C46.0016 2.975 45.2314 3.2154 44.601 3.68297C43.9706 4.15054 43.517 4.81774 43.3141 5.57595C43.0919 5.54435 42.8678 5.52857 42.6434 5.52871C40.2771 5.52871 38.3522 7.25918 38.3522 9.38619C38.3522 9.58801 38.3698 9.78945 38.4049 9.98819C37.7031 10.1763 37.0807 10.586 36.6305 11.1563C36.1803 11.7266 35.9263 12.4271 35.9062 13.1534C35.9063 14.999 37.5692 16.5004 39.6136 16.5004Z" fill="#C88C00"/>
<path d="M48.9711 11.7499C48.944 11.5343 48.8347 11.3374 48.666 11.2003C48.4973 11.0632 48.2822 10.9966 48.0655 11.0142C47.8489 11.0318 47.6474 11.1324 47.5031 11.2949C47.3587 11.4574 47.2827 11.6694 47.2908 11.8866C47.1108 12.0375 46.9048 12.1543 46.6829 12.2313C46.2785 12.4056 45.9495 12.7184 45.7548 13.1134C45.6773 12.9828 45.611 12.8459 45.5565 12.7042C45.4791 12.4942 45.3214 12.3237 45.1181 12.23C44.9149 12.1363 44.6827 12.1272 44.4728 12.2047C44.2628 12.2822 44.0923 12.4399 43.9986 12.6431C43.9049 12.8464 43.8958 13.0785 43.9733 13.2885C44.0779 13.5741 44.6597 15.008 45.8265 15.221C46.0093 15.2543 46.1979 15.2264 46.3632 15.1416C46.5285 15.0567 46.6612 14.9198 46.7407 14.7519C46.7951 14.6553 46.9483 14.4001 46.9643 14.3735C47.0485 14.2527 47.1254 14.1271 47.1946 13.9972C47.2303 13.9209 47.2772 13.8503 47.3338 13.7879C48.5319 13.2868 49.0833 12.6008 48.9711 11.7499ZM49.3065 18.1453C49.3275 17.3919 50.0114 16.4149 50.3708 15.9799C52.2873 15.1468 52.4848 13.631 52.3114 12.9248C52.2871 12.8151 52.2411 12.7113 52.1762 12.6195C52.1112 12.5278 52.0286 12.4499 51.9331 12.3906C51.8377 12.3312 51.7313 12.2915 51.6203 12.2738C51.5093 12.2561 51.3959 12.2608 51.2867 12.2876C51.1775 12.3143 51.0748 12.3626 50.9845 12.4296C50.8943 12.4967 50.8183 12.581 50.7612 12.6778C50.704 12.7746 50.6667 12.8818 50.6515 12.9932C50.6364 13.1046 50.6436 13.2179 50.6729 13.3264C50.6745 13.3332 50.8024 14.0098 49.5608 14.4882C49.4393 14.5351 49.3303 14.6095 49.2423 14.7055C49.082 14.8806 47.6789 16.4554 47.6207 18.0745C47.5773 18.6351 47.0664 26.2366 50.9256 28.9985C51.0155 29.0653 51.1179 29.1136 51.2266 29.1404C51.3354 29.1672 51.4485 29.1721 51.5592 29.1548C51.6699 29.1374 51.776 29.0982 51.8714 29.0394C51.9667 28.9806 52.0495 28.9034 52.1147 28.8123C52.1799 28.7212 52.2263 28.618 52.2512 28.5088C52.2761 28.3995 52.279 28.2864 52.2598 28.1761C52.2405 28.0657 52.1994 27.9603 52.139 27.8659C52.0785 27.7716 51.9999 27.6903 51.9076 27.6266C48.7618 25.3752 49.2984 18.2613 49.3039 18.1896C49.3052 18.1753 49.306 18.1601 49.3065 18.1453ZM55.5749 52.9745L53.1099 55.3116H6.41298L8.35438 53.8815C8.53002 53.7472 8.6459 53.5493 8.67708 53.3303C8.70826 53.1114 8.65225 52.889 8.5211 52.711C8.38995 52.5329 8.19414 52.4135 7.97582 52.3784C7.75749 52.3432 7.53411 52.3952 7.35373 52.5231L3.34437 55.4762C3.20135 55.5816 3.09525 55.7294 3.0412 55.8987C2.98715 56.0679 2.98791 56.2499 3.04336 56.4187C3.09881 56.5875 3.20613 56.7345 3.35002 56.8387C3.49391 56.9429 3.66703 56.999 3.8447 56.9991H53.4462C53.6621 56.9991 53.8699 56.9164 54.0266 56.7679L56.7358 54.1996C56.8982 54.0457 56.9928 53.8335 56.9988 53.6098C57.0048 53.3861 56.9216 53.1692 56.7677 53.0068C56.6137 52.8444 56.4016 52.7498 56.1779 52.7438C55.9542 52.7379 55.7373 52.8206 55.5749 52.9745ZM3.8447 10.5945C3.62093 10.5945 3.40632 10.6834 3.2481 10.8416C3.08987 10.9998 3.00098 11.2144 3.00098 11.4382C3.00098 11.6619 3.08987 11.8766 3.2481 12.0348C3.40632 12.193 3.62093 12.2819 3.8447 12.2819H4.68842C4.68842 12.5057 4.77731 12.7203 4.93554 12.8785C5.09377 13.0367 5.30837 13.1256 5.53214 13.1256C5.75591 13.1256 5.97051 13.0367 6.12874 12.8785C6.28697 12.7203 6.37586 12.5057 6.37586 12.2819H8.48516V14.8131H6.37586C6.15209 14.8131 5.93749 14.902 5.77926 15.0602C5.62103 15.2184 5.53214 15.433 5.53214 15.6568C5.53214 15.8805 5.62103 16.0952 5.77926 16.2534C5.93749 16.4116 6.15209 16.5005 6.37586 16.5005H23.2503C23.474 16.5005 23.6886 16.4116 23.8469 16.2534C24.0051 16.0952 24.094 15.8805 24.094 15.6568C24.094 15.433 24.0051 15.2184 23.8469 15.0602C23.6886 14.902 23.474 14.8131 23.2503 14.8131H21.141V12.2819H23.2503C23.2503 12.5057 23.3392 12.7203 23.4974 12.8785C23.6556 13.0367 23.8702 13.1256 24.094 13.1256C24.3178 13.1256 24.5324 13.0367 24.6906 12.8785C24.8488 12.7203 24.9377 12.5057 24.9377 12.2819H25.7814C26.0052 12.2819 26.2198 12.193 26.378 12.0348C26.5363 11.8766 26.6251 11.6619 26.6251 11.4382C26.6251 11.2144 26.5363 10.9998 26.378 10.8416C26.2198 10.6834 26.0052 10.5945 25.7814 10.5945H24.9377V8.90702H25.7814C26.0052 8.90702 26.2198 8.81813 26.378 8.6599C26.5363 8.50167 26.6251 8.28707 26.6251 8.0633C26.6251 7.83953 26.5363 7.62493 26.378 7.4667C26.2198 7.30847 26.0052 7.21958 25.7814 7.21958H24.9377V5.53214H25.7814C26.0052 5.53214 26.2198 5.44325 26.378 5.28502C26.5363 5.12679 26.6251 4.91219 26.6251 4.68842C26.6251 4.46465 26.5363 4.25004 26.378 4.09182C26.2198 3.93359 26.0052 3.8447 25.7814 3.8447H24.9377C24.9377 3.62093 24.8488 3.40632 24.6906 3.2481C24.5324 3.08987 24.3178 3.00098 24.094 3.00098C23.8702 3.00098 23.6556 3.08987 23.4974 3.2481C23.3392 3.40632 23.2503 3.62093 23.2503 3.8447H6.37586C6.37586 3.62093 6.28697 3.40632 6.12874 3.2481C5.97051 3.08987 5.75591 3.00098 5.53214 3.00098C5.30837 3.00098 5.09377 3.08987 4.93554 3.2481C4.77731 3.40632 4.68842 3.62093 4.68842 3.8447H3.8447C3.62093 3.8447 3.40632 3.93359 3.2481 4.09182C3.08987 4.25004 3.00098 4.46465 3.00098 4.68842C3.00098 4.91219 3.08987 5.12679 3.2481 5.28502C3.40632 5.44325 3.62093 5.53214 3.8447 5.53214H4.68842V7.21958H3.8447C3.62093 7.21958 3.40632 7.30847 3.2481 7.4667C3.08987 7.62493 3.00098 7.83953 3.00098 8.0633C3.00098 8.28707 3.08987 8.50167 3.2481 8.6599C3.40632 8.81813 3.62093 8.90702 3.8447 8.90702H4.68842V10.5945H3.8447ZM19.4535 14.8131H10.1726V12.2819H19.4535V14.8131ZM6.37586 5.53214H23.2503V7.21958H6.37586V5.53214ZM6.37586 8.90702H23.2503V10.5945H6.37586V8.90702Z" fill="#C88C00"/>
<path d="M3.8447 24.5158H21.1515L17.6184 29.5423C17.4158 29.8331 17.3224 30.1861 17.3546 30.539C17.3869 30.892 17.5428 31.2222 17.7948 31.4714L15.5606 33.8988C14.6587 34.2852 10.953 36.0676 9.76255 39.7007L9.51703 40.0031C9.07066 40.5512 8.856 41.2519 8.91881 41.956C8.98162 42.66 9.31692 43.3117 9.85325 43.772L20.2943 52.8437C20.8779 53.3486 21.6243 53.6258 22.396 53.6242H28.861C29.6011 53.6324 30.3143 53.3468 30.8441 52.83C31.3739 52.3132 31.6772 51.6074 31.6875 50.8673V50.6673C31.6837 50.1094 31.5108 49.5657 31.1916 49.1081C30.8724 48.6505 30.4219 48.3004 29.8996 48.1041C28.877 47.7025 26.766 46.874 25.8751 45.4169L23.9008 39.3366L25.4709 37.4762C25.75 37.5927 26.0573 37.6237 26.354 37.5655C26.6507 37.5072 26.9234 37.3622 27.1377 37.1488L31.4373 32.8952C31.5964 32.7378 31.6865 32.5236 31.6876 32.2998C31.6888 32.076 31.6011 31.8609 31.4436 31.7018C31.2862 31.5427 31.072 31.4526 30.8482 31.4514C30.6244 31.4503 30.4093 31.538 30.2502 31.6954L26.0485 35.8525C25.9443 35.6864 25.7833 35.5638 25.5954 35.5078L19.0979 30.3721L23.1697 24.5791C23.184 24.5588 23.1929 24.5369 23.2051 24.5158H25.8869C26.1107 24.5158 26.3253 24.4269 26.4835 24.2687C26.6417 24.1105 26.7306 23.8959 26.7306 23.6721C26.7306 23.4483 26.6417 23.2337 26.4835 23.0755C26.3253 22.9173 26.1107 22.8284 25.8869 22.8284H3.8447C3.62093 22.8284 3.40632 22.9173 3.2481 23.0755C3.08987 23.2337 3.00098 23.4483 3.00098 23.6721C3.00098 23.8959 3.08987 24.1105 3.2481 24.2687C3.40632 24.4269 3.62093 24.5158 3.8447 24.5158ZM24.299 46.0269L24.3707 46.1872C25.5304 48.2016 28.065 49.1963 29.2833 49.6747C29.4891 49.7484 29.6677 49.8827 29.7956 50.0599C29.9236 50.237 29.9948 50.4488 30 50.6673V50.8673C29.9901 51.1599 29.8647 51.4367 29.6513 51.6371C29.4378 51.8375 29.1537 51.9453 28.861 51.9367H22.396C22.0309 51.9383 21.6775 51.808 21.4008 51.5697L10.9598 42.498C10.7528 42.3254 10.6227 42.0778 10.5979 41.8094C10.5732 41.541 10.6558 41.2738 10.8277 41.0662L11.0256 40.822L13.4201 42.8747C13.5042 42.9469 13.6018 43.0017 13.7071 43.0362C13.8125 43.0706 13.9236 43.0839 14.0341 43.0754C14.1446 43.0669 14.2523 43.0368 14.3512 42.9866C14.45 42.9365 14.538 42.8674 14.6101 42.7832C14.6823 42.699 14.7371 42.6015 14.7716 42.4962C14.806 42.3908 14.8193 42.2797 14.8108 42.1692C14.8023 42.0587 14.7722 41.9509 14.722 41.8521C14.6719 41.7533 14.6028 41.6653 14.5186 41.5931L11.7917 39.256C13.2155 36.6396 16.3216 35.4087 16.3562 35.396L16.541 35.3251L16.719 35.1319L22.1458 39.3961L24.299 46.0269ZM22.9322 37.8677L17.8656 33.8862L19.111 32.5333L24.1037 36.4793L22.9322 37.8677ZM29.1563 24.5158H32.1093C32.3331 24.5158 32.5477 24.4269 32.7059 24.2687C32.8642 24.1105 32.953 23.8959 32.953 23.6721C32.953 23.4483 32.8642 23.2337 32.7059 23.0755C32.5477 22.9173 32.3331 22.8284 32.1093 22.8284H29.1563C28.9325 22.8284 28.7179 22.9173 28.5597 23.0755C28.4015 23.2337 28.3126 23.4483 28.3126 23.6721C28.3126 23.8959 28.4015 24.1105 28.5597 24.2687C28.7179 24.4269 28.9325 24.5158 29.1563 24.5158Z" fill="#C88C00"/>
</svg>
