<svg width="60" height="60" viewBox="0 0 60 60" fill="none" xmlns="http://www.w3.org/2000/svg">
<path d="M59.0323 47.4194H55.1613V46.1238C55.74 45.8489 56.229 45.4156 56.5715 44.8741C56.9141 44.3327 57.0962 43.7052 57.0968 43.0645V35.3226C57.0956 34.5085 56.8017 33.7219 56.2687 33.1065C55.7357 32.4911 54.9992 32.0879 54.1935 31.9706V28.5484C54.1926 27.6504 53.8354 26.7894 53.2004 26.1545C52.5654 25.5195 51.7045 25.1623 50.8064 25.1613H28.5484C27.6504 25.1623 26.7894 25.5195 26.1544 26.1545C25.5195 26.7894 25.1623 27.6504 25.1613 28.5484V31.9706C24.3557 32.0879 23.6191 32.4911 23.0861 33.1065C22.5531 33.7219 22.2592 34.5085 22.2581 35.3226V43.0645C22.2592 43.8786 22.5531 44.6652 23.0861 45.2806C23.6191 45.896 24.3557 46.2992 25.1613 46.4165V47.4194H16.4516V44.5161C16.4516 44.2595 16.3497 44.0133 16.1682 43.8318C15.9867 43.6504 15.7405 43.5484 15.4839 43.5484H11.6129V24.1936H17.4194C17.5519 24.1936 17.683 24.1665 17.8045 24.1138C17.9261 24.0611 18.0355 23.984 18.126 23.8872C18.2166 23.7905 18.2862 23.6761 18.3307 23.5513C18.3752 23.4265 18.3936 23.2939 18.3847 23.1617L17.4169 8.64557C17.4007 8.4006 17.2919 8.17097 17.1127 8.00318C16.9334 7.8354 16.6971 7.74202 16.4516 7.74194H4.83871C4.5932 7.74202 4.35689 7.8354 4.17765 8.00318C3.99842 8.17097 3.88965 8.4006 3.87339 8.64557L2.90565 23.1617C2.89674 23.2939 2.91511 23.4265 2.9596 23.5513C3.00409 23.6761 3.07375 23.7905 3.16427 23.8872C3.25479 23.984 3.36423 24.0611 3.4858 24.1138C3.60737 24.1665 3.73847 24.1936 3.87097 24.1936H9.67742V43.5484H5.80645C5.54979 43.5484 5.30364 43.6504 5.12215 43.8318C4.94067 44.0133 4.83871 44.2595 4.83871 44.5161V47.4194H0.967742C0.711081 47.4194 0.464932 47.5213 0.283445 47.7028C0.101958 47.8843 0 48.1304 0 48.3871V51.2903C0 51.547 0.101958 51.7931 0.283445 51.9746C0.464932 52.1561 0.711081 52.2581 0.967742 52.2581H59.0323C59.2889 52.2581 59.5351 52.1561 59.7166 51.9746C59.898 51.7931 60 51.547 60 51.2903V48.3871C60 48.1304 59.898 47.8843 59.7166 47.7028C59.5351 47.5213 59.2889 47.4194 59.0323 47.4194ZM27.0968 28.5484C27.0971 28.1635 27.2501 27.7945 27.5223 27.5223C27.7945 27.2501 28.1635 27.0971 28.5484 27.0968H50.8064C51.1913 27.0971 51.5604 27.2501 51.8325 27.5223C52.1047 27.7945 52.2577 28.1635 52.2581 28.5484V31.9706C51.4524 32.0879 50.7159 32.4911 50.1829 33.1065C49.6499 33.7219 49.356 34.5085 49.3548 35.3226V38.7097H30V35.3226C29.9988 34.5085 29.7049 33.7219 29.1719 33.1065C28.6389 32.4911 27.9024 32.0879 27.0968 31.9706V28.5484ZM24.1935 43.0645V35.3226C24.1939 34.9377 24.3469 34.5687 24.6191 34.2965C24.8912 34.0243 25.2603 33.8713 25.6452 33.871H26.6129C26.9978 33.8713 27.3668 34.0243 27.639 34.2965C27.9112 34.5687 28.0642 34.9377 28.0645 35.3226V39.6774C28.0645 39.9341 28.1665 40.1802 28.348 40.3617C28.5294 40.5432 28.7756 40.6452 29.0323 40.6452H50.3226C50.5792 40.6452 50.8254 40.5432 51.0069 40.3617C51.1884 40.1802 51.2903 39.9341 51.2903 39.6774V35.3226C51.2906 34.9377 51.4437 34.5687 51.7158 34.2965C51.988 34.0243 52.357 33.8713 52.7419 33.871H53.7097C54.0946 33.8713 54.4636 34.0243 54.7358 34.2965C55.0079 34.5687 55.161 34.9377 55.1613 35.3226V43.0645C55.161 43.4494 55.0079 43.8185 54.7358 44.0906C54.4636 44.3628 54.0946 44.5158 53.7097 44.5161H25.6452C25.2603 44.5158 24.8912 44.3628 24.6191 44.0906C24.3469 43.8185 24.1939 43.4494 24.1935 43.0645ZM53.2258 46.4516V47.4194H51.2903V46.4516H53.2258ZM49.3548 46.4516V47.4194H30.9677V46.4516H49.3548ZM29.0323 46.4516V47.4194H27.0968V46.4516H29.0323ZM4.90524 22.2581L5.74355 9.67743H15.5468L16.3851 22.2581H4.90524ZM6.77419 45.4839H14.5161V47.4194H6.77419V45.4839ZM58.0645 50.3226H1.93548V49.3548H58.0645V50.3226Z" fill="#C88C00"/>
<path d="M30.9677 22.2581H48.3871C48.6438 22.2581 48.8899 22.1561 49.0714 21.9746C49.2529 21.7931 49.3548 21.547 49.3548 21.2903V8.70969C49.3548 8.45302 49.2529 8.20688 49.0714 8.02539C48.8899 7.8439 48.6438 7.74194 48.3871 7.74194H30.9677C30.7111 7.74194 30.4649 7.8439 30.2834 8.02539C30.102 8.20688 30 8.45302 30 8.70969V21.2903C30 21.547 30.102 21.7931 30.2834 21.9746C30.4649 22.1561 30.7111 22.2581 30.9677 22.2581ZM31.9355 9.67743H47.4194V20.3226H31.9355V9.67743Z" fill="#C88C00"/>
<path d="M45.484 10.6453H33.8711C33.6144 10.6453 33.3683 10.7472 33.1868 10.9287C33.0053 11.1102 32.9033 11.3563 32.9033 11.613V18.3872C32.9033 18.6439 33.0053 18.89 33.1868 19.0715C33.3683 19.253 33.6144 19.3549 33.8711 19.3549H45.484C45.7406 19.3549 45.9868 19.253 46.1683 19.0715C46.3498 18.89 46.4517 18.6439 46.4517 18.3872V11.613C46.4517 11.3563 46.3498 11.1102 46.1683 10.9287C45.9868 10.7472 45.7406 10.6453 45.484 10.6453ZM44.5162 17.4195H34.8388V12.5807H44.5162V17.4195Z" fill="#C88C00"/>
</svg>
