<svg width="41" height="40" viewBox="0 0 41 40" fill="none" xmlns="http://www.w3.org/2000/svg">
<path d="M20.4994 20.2298C22.7981 18.9142 24.3687 16.4645 24.3687 13.6316C24.3687 9.42354 20.9451 6 16.7371 6C12.529 6 9.10547 9.42354 9.10547 13.6316C9.10547 16.4645 10.676 18.9142 12.9747 20.2298C7.2251 21.7394 3.00024 26.6007 3.00024 32.3625V34.2368C3.00024 34.6581 3.34216 35 3.76342 35C4.18469 35 4.52661 34.6581 4.52661 34.2368V32.3625C4.52653 26.2436 10.0045 21.2632 16.7371 21.2632C23.4696 21.2632 28.9476 26.2436 28.9476 32.3625V34.2368C28.9476 34.6581 29.2895 35 29.7108 35C30.132 35 30.474 34.6581 30.474 34.2368V32.3625C30.4739 26.6007 26.249 21.7379 20.4994 20.2298ZM10.6318 13.6316C10.6318 10.2646 13.37 7.52636 16.7371 7.52636C20.1041 7.52636 22.8423 10.2646 22.8423 13.6316C22.8423 16.9986 20.1041 19.7368 16.7371 19.7368C13.37 19.7368 10.6318 16.9987 10.6318 13.6316Z" fill="white"/>
<path d="M30.7767 20.2497C32.4312 19.1554 33.5271 17.2841 33.5271 15.158C33.5271 11.7909 30.7889 9.05273 27.4219 9.05273C27.0006 9.05273 26.6587 9.39465 26.6587 9.81591C26.6587 10.2372 27.0006 10.5791 27.4219 10.5791C29.9464 10.5791 32.0008 12.6335 32.0008 15.158C32.0008 17.6825 29.9464 19.737 27.4219 19.737C27.0006 19.737 26.6587 20.0789 26.6587 20.5002C26.6587 20.9214 27.0005 21.2632 27.4218 21.2632C32.4724 21.2632 36.5797 25.0591 36.5797 29.7266V31.1842C36.5797 31.6054 36.9216 31.9474 37.3429 31.9474C37.7641 31.9474 38.106 31.6054 38.106 31.1842V29.7266C38.106 25.3156 35.029 21.5685 30.7767 20.2497Z" fill="white"/>
</svg>
