<svg width="60" height="61" viewBox="0 0 60 61" fill="none" xmlns="http://www.w3.org/2000/svg">
<path d="M40.8353 19.2287C36.4235 23.6405 29.7246 24.0942 29.7246 24.0942C29.7246 24.0942 30.1783 17.3949 34.5901 12.9835C39.002 8.57163 45.7009 8.11792 45.7009 8.11792C45.7009 8.11792 45.2472 14.8168 40.8353 19.2287Z" fill="#FDF4E4" stroke="#C88C00" stroke-width="1.5" stroke-miterlimit="10" stroke-linecap="round" stroke-linejoin="round"/>
<path d="M18.6136 19.2287C23.0254 23.6405 29.7243 24.0942 29.7243 24.0942C29.7243 24.0942 29.2706 17.3949 24.8588 12.9835C20.4469 8.57163 13.748 8.11792 13.748 8.11792C13.748 8.11792 14.2018 14.8168 18.6136 19.2287Z" fill="#FDF4E4" stroke="#C88C00" stroke-width="1.5" stroke-miterlimit="10" stroke-linecap="round" stroke-linejoin="round"/>
<path d="M34.1409 12.7968C34.1409 19.0359 29.7247 24.0936 29.7247 24.0936C29.7247 24.0936 25.3086 19.0359 25.3086 12.7968C25.3086 6.55763 29.7247 1.5 29.7247 1.5C29.7247 1.5 34.1409 6.55763 34.1409 12.7968Z" fill="#FDF4E4" stroke="#C88C00" stroke-width="1.5" stroke-miterlimit="10" stroke-linecap="round" stroke-linejoin="round"/>
<path d="M29.7246 24.0938V59.5002" stroke="#C88C00" stroke-width="1.5" stroke-miterlimit="10" stroke-linecap="round" stroke-linejoin="round"/>
<path d="M29.7188 51.3764L47.9717 33.1821" stroke="#C88C00" stroke-width="1.5" stroke-miterlimit="10" stroke-linecap="round" stroke-linejoin="round"/>
<path d="M50.1137 41.2108C46.0757 41.2108 42.8018 38.3526 42.8018 38.3526C42.8018 38.3526 46.0752 35.4944 50.1137 35.4944C54.1521 35.4944 57.4255 38.3526 57.4255 38.3526C57.4255 38.3526 54.1521 41.2108 50.1137 41.2108Z" fill="#FDF4E4" stroke="#C88C00" stroke-width="1.5" stroke-miterlimit="10" stroke-linecap="round" stroke-linejoin="round"/>
<path d="M39.9434 31.0409C39.9434 35.0789 42.8016 38.3528 42.8016 38.3528C42.8016 38.3528 45.6602 35.0793 45.6602 31.0409C45.6602 27.0025 42.8016 23.729 42.8016 23.729C42.8016 23.729 39.9434 27.0025 39.9434 31.0409Z" fill="#FDF4E4" stroke="#C88C00" stroke-width="1.5" stroke-miterlimit="10" stroke-linecap="round" stroke-linejoin="round"/>
<path d="M49.9932 35.2037C47.1376 38.0593 42.8018 38.3528 42.8018 38.3528C42.8018 38.3528 43.0953 34.0169 45.9509 31.1613C48.8065 28.3057 53.1424 28.0122 53.1424 28.0122C53.1424 28.0122 52.8488 32.3481 49.9932 35.2037Z" fill="#FDF4E4" stroke="#C88C00" stroke-width="1.5" stroke-miterlimit="10" stroke-linecap="round" stroke-linejoin="round"/>
<path d="M29.7066 51.3764L11.4536 33.1821" stroke="#C88C00" stroke-width="1.5" stroke-miterlimit="10" stroke-linecap="round" stroke-linejoin="round"/>
<path d="M9.31189 41.2108C13.3499 41.2108 16.6238 38.3526 16.6238 38.3526C16.6238 38.3526 13.3503 35.4944 9.31189 35.4944C5.27347 35.4944 2 38.3526 2 38.3526C2 38.3526 5.27347 41.2108 9.31189 41.2108Z" fill="#FDF4E4" stroke="#C88C00" stroke-width="1.5" stroke-miterlimit="10" stroke-linecap="round" stroke-linejoin="round"/>
<path d="M19.482 31.0409C19.482 35.0789 16.6238 38.3528 16.6238 38.3528C16.6238 38.3528 13.7651 35.0793 13.7651 31.0409C13.7651 27.0025 16.6238 23.729 16.6238 23.729C16.6238 23.729 19.482 27.0025 19.482 31.0409Z" fill="#FDF4E4" stroke="#C88C00" stroke-width="1.5" stroke-miterlimit="10" stroke-linecap="round" stroke-linejoin="round"/>
<path d="M9.43235 35.2037C12.288 38.0593 16.6238 38.3528 16.6238 38.3528C16.6238 38.3528 16.3303 34.0169 13.4747 31.1613C10.6191 28.3057 6.2832 28.0122 6.2832 28.0122C6.2832 28.0122 6.57675 32.3481 9.43235 35.2037Z" fill="#FDF4E4" stroke="#C88C00" stroke-width="1.5" stroke-miterlimit="10" stroke-linecap="round" stroke-linejoin="round"/>
</svg>
