<svg width="60" height="60" viewBox="0 0 60 60" fill="none" xmlns="http://www.w3.org/2000/svg">
<g clip-path="url(#clip0_740_2410)">
<path fill-rule="evenodd" clip-rule="evenodd" d="M35.9298 44.7425C34.7267 44.7425 32.6112 41.0053 26.621 44.5882C26.3873 44.7274 26.0935 44.721 25.8678 44.5696C23.4908 42.977 19.1881 42.1465 17.5815 44.4103C17.3555 44.7291 16.9127 44.8022 16.5964 44.5734C14.9894 43.4136 11.499 41.7768 9.79012 43.8919C9.73862 43.9549 9.67683 44.0088 9.60736 44.0511C6.84268 45.7315 3.58279 43.2993 4.75565 42.3219C5.05229 42.0738 5.49514 42.1131 5.74328 42.4087C5.8793 42.5669 7.0729 43.8673 8.7814 42.9061C10.9711 40.3463 14.6629 41.658 16.8761 43.0663C19.1618 40.7238 23.5429 41.5205 26.2724 43.1626C29.8595 41.1164 32.7096 41.1202 35.9129 43.1837C38.8041 41.2056 42.2352 41.1947 45.0663 43.1556C51.3425 39.8047 51.5031 42.9756 54.9957 43.2856C56.8729 43.4522 57.2353 41.5216 58.1438 42.3145C59.1814 43.2192 56.6669 44.8444 54.8723 44.6856C50.6592 44.313 51.4497 41.2183 45.3509 44.6001C45.1063 44.7358 44.8044 44.7126 44.5816 44.5421C42.077 42.614 38.9243 42.6354 36.3547 44.5973C36.2303 44.6947 36.0802 44.7428 35.9298 44.7428V44.7425ZM35.9298 50.5941C34.7295 50.5941 32.5992 46.8555 26.621 50.4398C26.3873 50.5797 26.0935 50.573 25.8678 50.4212C23.4894 48.8287 19.1878 47.9982 17.5815 50.2616C17.3563 50.579 16.9145 50.6539 16.5971 50.4251C14.9901 49.2652 11.4993 47.6291 9.79083 49.7436C9.73951 49.8068 9.67769 49.8606 9.60806 49.9028C6.82898 51.5804 3.58771 49.1496 4.75635 48.1736C5.05299 47.9251 5.49479 47.9648 5.74399 48.26C5.87825 48.4161 7.07255 49.72 8.78246 48.7581C10.9725 46.1983 14.664 47.5103 16.8768 48.9176C19.1628 46.574 23.5432 47.3711 26.2731 49.0143C29.8588 46.968 32.7089 46.9715 35.9136 49.0354C38.8048 47.0562 42.2352 47.0453 45.0663 49.0072C51.3397 45.6574 51.4954 48.8217 54.996 49.1373C56.8739 49.307 57.2349 47.3715 58.1442 48.1655C59.181 49.0709 56.668 50.6964 54.8727 50.5372C50.6631 50.1639 51.4423 47.0692 45.3513 50.4514C45.1067 50.5875 44.8048 50.5646 44.5819 50.3934C42.0773 48.466 38.925 48.4867 36.355 50.449C36.2331 50.5433 36.0833 50.5945 35.9291 50.5945L35.9298 50.5941ZM35.9298 56.4458C34.7414 56.4458 32.5978 52.7089 26.621 56.2915C26.3873 56.431 26.0935 56.4243 25.8678 56.2729C23.4908 54.6803 19.1881 53.8498 17.5815 56.1136C17.3563 56.4314 16.9145 56.5062 16.5971 56.2774C14.9901 55.1162 11.4986 53.4815 9.79083 55.5959C9.73968 55.6593 9.67782 55.7132 9.60806 55.7551C6.82792 57.4338 3.58771 55.0009 4.75635 54.0259C5.05299 53.7778 5.49479 53.8164 5.74399 54.1124C5.87825 54.2691 7.07255 55.5727 8.78246 54.6104C10.9721 52.0513 14.6633 53.3627 16.8768 54.77C19.1621 52.4264 23.5439 53.2242 26.2731 54.8663C29.8602 52.8207 32.7103 52.8239 35.9136 54.8874C38.8037 52.9089 42.2359 52.8973 45.0663 54.8596C51.3414 51.5087 51.4992 54.6761 54.996 54.9896C56.8736 55.158 57.2346 53.2246 58.1442 54.0178C59.181 54.9222 56.6687 56.5491 54.8727 56.3896C50.6575 56.0152 51.4497 52.9219 45.3513 56.3034C45.1067 56.4395 44.8048 56.4163 44.5819 56.2454C42.0773 54.318 38.925 54.338 36.355 56.3006C36.2331 56.3951 36.0833 56.4464 35.9291 56.4465L35.9298 56.4458ZM39.6972 35.9051C39.4874 35.9051 39.2803 35.812 39.1412 35.6327L35.8022 31.3324H12.7393C12.6398 31.3324 12.5414 31.3112 12.4506 31.2703C12.3599 31.2294 12.2788 31.1697 12.2128 31.0952L5.31273 23.2964C4.91557 22.8479 5.22943 22.1365 5.82939 22.1278L9.96727 22.0684C10.1905 22.0712 10.3961 22.1654 10.5317 22.3386L14.3687 27.2596H34.0757C34.2926 27.2596 34.4975 27.3601 34.6311 27.5316L40.2518 34.7712C40.6138 35.2376 40.2645 35.9051 39.6968 35.9051H39.6972ZM13.0563 29.9266H34.7112L33.732 28.6651H14.0254C13.9184 28.665 13.8129 28.6406 13.7168 28.5938C13.6208 28.5469 13.5366 28.4787 13.4707 28.3945L9.63759 23.4788L7.38008 23.5112L13.0567 29.9266H13.0563Z" fill="#C88C00"/>
<path fill-rule="evenodd" clip-rule="evenodd" d="M8.78935 35.9048C8.19396 35.9048 7.86252 35.1987 8.25758 34.7418L12.2081 30.1702C12.8137 29.4697 13.8766 30.3899 13.272 31.0893L9.32148 35.6612C9.1823 35.8226 8.98653 35.9048 8.78935 35.9048Z" fill="#C88C00"/>
<path fill-rule="evenodd" clip-rule="evenodd" d="M40.2159 35.905H5.32003C4.39496 35.905 4.39496 34.4992 5.32003 34.4992H40.2159C41.141 34.4992 41.1413 35.905 40.2159 35.905ZM1.29885 20.0839C0.634217 20.0839 0.575873 19.3982 0.422982 18.827C-1.64613 11.1035 4.21852 3.5542 12.1252 3.5542C17.6177 3.5542 22.4448 7.25168 23.863 12.5466C23.9997 13.0559 24.3726 13.9268 23.5628 14.1437L1.29885 20.0843V20.0839ZM12.1256 4.95903C5.18823 4.95903 -0.0518556 11.5319 1.79653 18.5195L22.5207 12.9666C21.2719 8.24564 17.0079 4.95903 12.1256 4.95903Z" fill="#C88C00"/>
<path fill-rule="evenodd" clip-rule="evenodd" d="M7.21941 18.4977C6.9899 18.4977 6.7653 18.386 6.63069 18.18C3.07169 12.7448 8.5427 4.34221 8.59823 4.25821C8.794 3.96192 9.17956 3.85859 9.49835 4.0164C9.58868 4.06139 18.5227 8.70292 18.1639 15.0895C18.1119 16.0213 16.7088 15.9309 16.7605 15.0108C17.0188 10.4104 11.2901 6.67493 9.43754 5.59204C8.3754 7.45625 5.2828 13.556 7.80566 17.4099C8.11566 17.883 7.76384 18.4974 7.21905 18.4974L7.21941 18.4977Z" fill="#C88C00"/>
<path fill-rule="evenodd" clip-rule="evenodd" d="M15.4325 28.6659C15.1221 28.6659 14.8378 28.4589 14.7538 28.1447L11.6615 16.6041C11.4218 15.7103 12.7803 15.3459 13.02 16.2404L16.1122 27.7809C16.2324 28.2287 15.8936 28.6659 15.4325 28.6659ZM35.8115 15.2506C33.9508 15.2506 32.4377 13.7368 32.4377 11.8765C32.4377 10.0161 33.9515 8.50271 35.8115 8.50271C37.6718 8.50271 39.186 10.0165 39.186 11.8765C39.186 13.7372 37.6722 15.2506 35.8115 15.2506ZM35.8115 9.9086C33.2215 9.9086 33.2222 13.8451 35.8115 13.8451C38.4018 13.8451 38.4018 9.9086 35.8115 9.9086ZM35.8115 8.16354C34.8541 8.16354 35.1085 6.82373 35.1085 5.63962C35.1085 4.7142 36.5144 4.7142 36.5144 5.63962C36.5144 6.82514 36.7689 8.16354 35.8115 8.16354Z" fill="#C88C00"/>
<path fill-rule="evenodd" clip-rule="evenodd" d="M38.9348 9.45714C38.3152 9.45714 37.9929 8.70182 38.4382 8.25651C39.2761 7.41895 40.0433 6.29178 40.7203 6.96872C41.3979 7.64636 40.2686 8.41186 39.4314 9.25082C39.3664 9.31632 39.289 9.36828 39.2038 9.40369C39.1185 9.4391 39.0271 9.45727 38.9348 9.45714ZM42.0495 12.5796C40.8654 12.5796 39.526 12.8341 39.526 11.8767C39.526 10.9193 40.8661 11.1737 42.0495 11.1737C42.9746 11.1737 42.975 12.5796 42.0495 12.5796ZM40.2222 16.9902C39.7351 16.9902 38.9914 16.0521 38.4368 15.4972C37.7823 14.842 38.777 13.8484 39.4314 14.5029C40.2686 15.3401 41.3972 16.108 40.7196 16.785C40.6543 16.8502 40.5769 16.902 40.4916 16.9373C40.4063 16.9726 40.3149 16.9907 40.2226 16.9906L40.2222 16.9902ZM35.8116 18.8175C34.8542 18.8175 35.1087 17.4774 35.1087 16.2933C35.1087 15.3682 36.5146 15.3682 36.5146 16.2933C36.5146 17.4788 36.769 18.8175 35.8116 18.8175ZM31.4014 16.9902C30.78 16.9902 30.4601 16.2342 30.904 15.7903C31.7412 14.9531 32.5092 13.8249 33.1861 14.5025C33.8624 15.1794 32.7384 15.9464 31.8983 16.7846C31.7665 16.9163 31.5877 16.9902 31.4014 16.9902ZM31.3957 12.5796C30.2116 12.5796 28.8718 12.8341 28.8718 11.8767C28.8718 10.9193 30.2116 11.1737 31.3957 11.1737C32.3212 11.1737 32.3212 12.5796 31.3957 12.5796ZM32.6892 9.45714C32.2017 9.45714 31.4611 8.51976 30.904 7.96338C30.2489 7.30894 31.2443 6.31463 31.8983 6.96942C32.7366 7.80838 33.8638 8.57389 33.1861 9.25082C33.1209 9.31622 33.0435 9.36811 32.9582 9.40351C32.8729 9.43891 32.7815 9.45714 32.6892 9.45714ZM57.806 35.905H40.2159C39.2905 35.905 39.2908 34.4991 40.2159 34.4991H57.806C58.7311 34.4991 58.7311 35.905 57.806 35.905Z" fill="#C88C00"/>
<path fill-rule="evenodd" clip-rule="evenodd" d="M45.6917 41.7359C45.3037 41.7359 44.9888 41.4207 44.9888 41.033V25.634C44.9888 23.8154 46.4678 22.3372 48.2859 22.3372C51.329 22.3372 52.4691 26.3369 50.8805 26.3369C50.4928 26.3369 50.1775 26.022 50.1775 25.634C50.1775 23.1441 46.3957 23.1445 46.3957 25.634V41.0326C46.3947 41.4207 46.0794 41.7359 45.6917 41.7359ZM54.1 41.7359C53.7119 41.7359 53.397 41.4207 53.397 41.033V25.634C53.397 23.8154 54.876 22.3372 56.6942 22.3372C59.7369 22.3372 60.8774 26.3369 59.2884 26.3369C58.9007 26.3369 58.5854 26.022 58.5854 25.634C58.5854 23.1445 54.8036 23.1438 54.8036 25.634V41.0326C54.8029 41.4207 54.4876 41.7359 54.0996 41.7359H54.1Z" fill="#C88C00"/>
<path fill-rule="evenodd" clip-rule="evenodd" d="M54.1001 29.4637H45.6915C44.7661 29.4637 44.7664 28.0579 45.6915 28.0579H54.1001C55.0255 28.0579 55.0255 29.4637 54.1001 29.4637ZM54.1001 32.6843H45.6915C44.7661 32.6843 44.7664 31.2784 45.6915 31.2784H54.1001C55.0255 31.2784 55.0255 32.6843 54.1001 32.6843ZM54.1001 35.9052H45.6915C44.7661 35.9052 44.7664 34.4993 45.6915 34.4993H54.1001C55.0255 34.4993 55.0255 35.9052 54.1001 35.9052ZM54.1001 39.1246H45.6915C44.7661 39.1246 44.7664 37.7188 45.6915 37.7188H54.1001C55.0255 37.7188 55.0255 39.1246 54.1001 39.1246Z" fill="#C88C00"/>
</g>
<defs>
<clipPath id="clip0_740_2410">
<rect width="60" height="60" fill="white"/>
</clipPath>
</defs>
</svg>
