<svg width="41" height="40" viewBox="0 0 41 40" fill="none" xmlns="http://www.w3.org/2000/svg">
<g clip-path="url(#clip0_645_56)">
<path d="M34.7242 24.9667C35.3276 25.3708 36.0426 25.596 36.7828 25.596C38.8324 25.596 40.5 23.9284 40.5 21.8788V20.6263C40.5 18.5766 38.8324 16.909 36.7828 16.909C36.2796 16.9091 35.7819 17.0129 35.3206 17.2138L35.3845 16.3834C35.4236 15.8745 35.2472 15.3678 34.9003 14.9934C34.728 14.8078 34.5193 14.6597 34.2872 14.5583C34.0552 14.4569 33.8047 14.4044 33.5514 14.4041H18.7213C18.468 14.4044 18.2175 14.4569 17.9854 14.5583C17.7533 14.6597 17.5446 14.8078 17.3723 14.9934C17.2004 15.1794 17.0688 15.3988 16.9855 15.638C16.9022 15.8772 16.8691 16.1309 16.8881 16.3834L17.2946 21.6678C16.4167 21.4213 15.4895 21.2929 14.5535 21.2929H14.5219C13.0619 21.2929 11.6227 21.6036 10.3597 22.1915C10.154 22.2867 9.97571 22.4324 9.8416 22.6152C9.70748 22.7979 9.62189 23.0117 9.59283 23.2365C7.27666 23.6993 5.67017 24.8187 4.90119 25.4645C4.37799 25.9038 4.26853 26.6629 4.64666 27.2299L4.79369 27.4505L3.20806 29.2627C2.85103 29.6707 2.5958 30.1561 2.45556 30.6868H1.08595C0.990195 30.6868 0.895889 30.7102 0.811293 30.7551C0.726698 30.8 0.654393 30.8649 0.600709 30.9442C0.547025 31.0235 0.5136 31.1147 0.503359 31.2099C0.493119 31.3052 0.506376 31.4014 0.541969 31.4903L1.32205 33.4406C1.69853 34.3817 2.59681 34.9899 3.61049 34.9899H37.3895C38.4032 34.9899 39.3015 34.3818 39.678 33.4406L40.4581 31.4903C40.4937 31.4014 40.5069 31.3052 40.4967 31.2099C40.4864 31.1147 40.453 31.0235 40.3993 30.9442C40.3456 30.8649 40.2733 30.8 40.1887 30.7551C40.1041 30.7102 40.0098 30.6868 39.9141 30.6868H33.7481C34.1223 30.218 34.3648 29.6388 34.4136 29.0048L34.7242 24.9667ZM35.2113 18.6342C35.6619 18.2763 36.2121 18.0809 36.7828 18.0809C38.1863 18.0809 39.3281 19.2228 39.3281 20.6263V21.8788C39.3281 23.2824 38.1863 24.4242 36.7828 24.4242C36.0324 24.4242 35.3192 24.0846 34.8364 23.508L35.2113 18.6342ZM5.65486 26.3618C6.32205 25.8015 7.7015 24.8384 9.69275 24.412L9.71634 24.6084C9.73554 24.7622 9.81482 24.902 9.93686 24.9974C10.0589 25.0929 10.2138 25.1361 10.3676 25.1176C10.5214 25.0992 10.6616 25.0205 10.7576 24.899C10.8536 24.7774 10.8976 24.6227 10.8799 24.4688L10.7548 23.4269C10.7462 23.3552 10.7861 23.2856 10.8542 23.2539C11.9634 22.7377 13.2316 22.4648 14.5219 22.4648H14.5535C15.8438 22.4648 17.112 22.7377 18.221 23.2539C18.2892 23.2856 18.3292 23.3551 18.3205 23.427L17.4495 30.6869H11.626L11.1894 27.0482C11.1806 26.9715 11.1567 26.8974 11.1191 26.8299C11.0815 26.7625 11.031 26.7032 10.9704 26.6554C10.9098 26.6075 10.8404 26.5721 10.7661 26.5512C10.6918 26.5303 10.6141 26.5243 10.5375 26.5335C10.4609 26.5427 10.3868 26.5669 10.3196 26.6048C10.2523 26.6427 10.1932 26.6935 10.1457 26.7543C10.0982 26.8151 10.0631 26.8847 10.0425 26.9591C10.022 27.0335 10.0163 27.1112 10.0259 27.1878L10.4457 30.6869H8.35978L5.62189 26.5799C5.5747 26.5091 5.58861 26.4174 5.65486 26.3618ZM4.09009 30.0342L5.4672 28.4604L6.95142 30.6867H3.69002C3.78775 30.4475 3.92134 30.227 4.09009 30.0342ZM34.2162 16.2937L33.2452 28.9149C33.1687 29.9084 32.3282 30.6868 31.3317 30.6868H31.1466C30.9912 30.6868 30.8421 30.7485 30.7323 30.8584C30.6224 30.9683 30.5606 31.1173 30.5606 31.2727C30.5606 31.4281 30.6224 31.5772 30.7323 31.6871C30.8421 31.7969 30.9912 31.8587 31.1466 31.8587H39.0486L38.5899 33.0054C38.4947 33.2458 38.3292 33.4519 38.1151 33.5969C37.901 33.7419 37.6481 33.819 37.3895 33.8181H3.61049C3.3519 33.819 3.09907 33.7419 2.88494 33.5969C2.67082 33.4519 2.50535 33.2458 2.41009 33.0054L1.95142 31.8587H28.6413C28.7967 31.8587 28.9458 31.7969 29.0557 31.6871C29.1656 31.5772 29.2273 31.4281 29.2273 31.2727C29.2273 31.1173 29.1656 30.9683 29.0557 30.8584C28.9458 30.7485 28.7967 30.6868 28.6413 30.6868H26.6199C26.4797 30.1561 26.2244 29.6706 25.8674 29.2626L24.2817 27.4505L24.4288 27.2299C24.8068 26.6628 24.6974 25.9038 24.1742 25.4644C23.4053 24.8187 21.7988 23.6993 19.4826 23.2365C19.4535 23.0117 19.3679 22.7979 19.2338 22.6152C19.0997 22.4324 18.9215 22.2867 18.7157 22.1915C18.6454 22.1588 18.5744 22.1272 18.5031 22.0963L18.0567 16.2937C18.0492 16.2021 18.061 16.1099 18.0912 16.0231C18.1215 15.9363 18.1695 15.8568 18.2323 15.7896C18.2944 15.7219 18.37 15.6679 18.4543 15.6311C18.5385 15.5943 18.6295 15.5755 18.7214 15.5759H33.5516C33.7394 15.5759 33.9131 15.6518 34.0406 15.7896C34.1034 15.8568 34.1514 15.9363 34.1816 16.0231C34.2119 16.1099 34.2236 16.2021 34.2162 16.2937ZM23.4537 26.5799L20.7157 30.6868H18.6298L19.3826 24.412C21.3739 24.8384 22.7534 25.8015 23.4206 26.3617C23.4869 26.4174 23.5008 26.5091 23.4537 26.5799ZM23.6084 28.4605L24.9854 30.0342C25.1541 30.227 25.2877 30.4475 25.3855 30.6868H22.1242L23.6084 28.4605ZM26.5324 8.60673C26.2298 8.32923 26.096 8.19368 26.096 7.88978C26.096 7.58704 26.2297 7.45188 26.532 7.17501C26.8767 6.85946 27.3485 6.42735 27.3485 5.59595C27.3485 5.44055 27.2868 5.29151 27.1769 5.18163C27.067 5.07174 26.918 5.01001 26.7626 5.01001C26.6072 5.01001 26.4582 5.07174 26.3483 5.18163C26.2384 5.29151 26.1767 5.44055 26.1767 5.59595C26.1767 5.89868 26.043 6.03384 25.7406 6.31071C25.396 6.62626 24.9242 7.05837 24.9242 7.8897C24.9242 8.72173 25.3959 9.15439 25.7403 9.47024C26.0429 9.74774 26.1767 9.88329 26.1767 10.1872C26.1767 10.4913 26.0429 10.6268 25.7403 10.9043C25.3959 11.2202 24.9242 11.6529 24.9242 12.4849C24.9242 12.6403 24.9859 12.7893 25.0958 12.8992C25.2057 13.0091 25.3547 13.0708 25.5101 13.0708C25.6655 13.0708 25.8145 13.0091 25.9244 12.8992C26.0343 12.7893 26.096 12.6403 26.096 12.4849C26.096 12.1809 26.2298 12.0454 26.5324 11.7679C26.8768 11.452 27.3485 11.0193 27.3485 10.1874C27.3485 9.35532 26.8768 8.92267 26.5324 8.60673ZM24.2492 9.82978C23.8124 9.26235 23.591 8.6097 23.591 7.89001C23.591 7.58329 23.631 7.28673 23.7099 7.00853C23.7509 6.85947 23.7314 6.70025 23.6555 6.56555C23.5797 6.43086 23.4536 6.3316 23.3049 6.2894C23.1562 6.24721 22.9968 6.2655 22.8615 6.34028C22.7262 6.41507 22.626 6.5403 22.5826 6.68868C22.4742 7.07095 22.4192 7.47517 22.4192 7.89001C22.4192 8.87431 22.7224 9.76735 23.3206 10.5445C23.3752 10.6157 23.4456 10.6734 23.5262 10.7131C23.6068 10.7527 23.6954 10.7733 23.7853 10.7731C23.8947 10.7731 24.0019 10.7424 24.0948 10.6846C24.1876 10.6267 24.2625 10.544 24.3107 10.4458C24.359 10.3476 24.3789 10.2379 24.368 10.129C24.3571 10.0201 24.3159 9.91646 24.2492 9.82978ZM29.2021 7.8911C29.5066 7.40532 29.7061 6.8772 29.7968 6.31587C29.8216 6.16246 29.7844 6.00549 29.6935 5.87949C29.6025 5.75348 29.4652 5.66878 29.3118 5.64399C28.9924 5.59204 28.6915 5.80946 28.6399 6.12899C28.5578 6.63696 28.3507 7.1097 28.0244 7.53399C27.9456 7.63642 27.9029 7.76201 27.9029 7.89122C27.9029 8.02043 27.9456 8.14603 28.0244 8.24845C28.4606 8.81563 28.6817 9.4679 28.6817 10.1871C28.6817 10.6929 28.5728 11.167 28.358 11.5964C28.3235 11.6652 28.3028 11.7402 28.2973 11.817C28.2918 11.8938 28.3014 11.9709 28.3257 12.044C28.35 12.1171 28.3885 12.1846 28.4389 12.2428C28.4893 12.301 28.5507 12.3487 28.6196 12.3831C28.6884 12.4176 28.7634 12.4381 28.8402 12.4436C28.917 12.449 28.9942 12.4393 29.0672 12.4149C29.1402 12.3906 29.2078 12.352 29.2659 12.3015C29.324 12.2511 29.3717 12.1896 29.406 12.1207C29.703 11.5271 29.8536 10.8766 29.8536 10.1871C29.8536 9.35087 29.6347 8.58056 29.2021 7.8911Z" fill="white"/>
</g>
<defs>
<clipPath id="clip0_645_56">
<rect width="40" height="40" fill="white" transform="translate(0.5)"/>
</clipPath>
</defs>
</svg>
