<svg width="60" height="60" viewBox="0 0 60 60" fill="none" xmlns="http://www.w3.org/2000/svg">
<path d="M42.234 52.7804C44.4033 52.7804 46.5239 52.1371 48.3277 50.9319C50.1314 49.7267 51.5373 48.0137 52.3674 46.0095C53.1976 44.0053 53.4148 41.7999 52.9916 39.6722C52.5684 37.5446 51.5237 35.5902 49.9898 34.0563C48.4558 32.5223 46.5015 31.4777 44.3738 31.0544C42.2462 30.6312 40.0408 30.8484 38.0366 31.6786C36.0324 32.5088 34.3193 33.9146 33.1141 35.7184C31.9089 37.5221 31.2656 39.6427 31.2656 41.8121C31.269 44.72 32.4256 47.5079 34.4819 49.5642C36.5381 51.6204 39.326 52.7771 42.234 52.7804ZM33.8643 37.8035L35.1181 38.0145L35.4387 39.7298L33.871 41.1236L33.0239 40.6865C33.1444 39.686 33.4283 38.7121 33.8643 37.8035ZM38.5039 50.3075C37.5425 49.8833 36.6599 49.2993 35.8934 48.5804L36.3212 47.589L38.4183 47.7181L39.2687 49.419L38.5039 50.3075ZM45.1992 49.419L46.0497 47.7181L48.1464 47.5894L48.5745 48.5808C47.8081 49.2996 46.9255 49.8834 45.9641 50.3075L45.1992 49.419ZM51.444 40.6865L50.5969 41.1236L49.0297 39.7298L49.3499 38.0145L50.6037 37.8035C51.0397 38.7121 51.3236 39.686 51.444 40.6865ZM43.7029 32.6484L43.9092 33.8689L42.2631 34.6573L40.5546 33.7064L40.7284 32.6961C40.7305 32.6822 40.7296 32.6687 40.7313 32.6547C41.7151 32.492 42.7184 32.4899 43.7029 32.6484ZM38.9401 33.1373L38.7895 34.0093C38.7599 34.1817 38.7845 34.3589 38.86 34.5167C38.9355 34.6744 39.0581 34.8048 39.2109 34.8898L41.8235 36.3439C41.9414 36.4095 42.0733 36.4459 42.2081 36.45C42.343 36.4541 42.4768 36.4258 42.5985 36.3675L45.2111 35.1163C45.3763 35.0372 45.5113 34.9066 45.5957 34.744C45.6801 34.5814 45.7093 34.3958 45.6789 34.2152L45.4945 33.1238C47.1517 33.7495 48.5964 34.8343 49.6596 36.2511L48.4885 36.4481C48.318 36.4767 48.1604 36.557 48.0371 36.6781C47.9137 36.7992 47.8305 36.9553 47.7987 37.1252L47.2832 39.8884C47.2565 40.0314 47.2672 40.1788 47.3143 40.3165C47.3614 40.4541 47.4433 40.5772 47.552 40.6739L49.9085 42.7693C50.0358 42.8825 50.1945 42.9545 50.3635 42.9758C50.5325 42.9971 50.7041 42.9667 50.8555 42.8886L51.4816 42.5659C51.348 44.2243 50.7683 45.8157 49.8038 47.1714L49.4609 46.3766C49.3924 46.217 49.2762 46.0825 49.1282 45.9917C48.9802 45.9008 48.8077 45.858 48.6345 45.8691L45.4608 46.0636C45.3131 46.0726 45.1704 46.1203 45.047 46.2019C44.9235 46.2835 44.8237 46.3961 44.7576 46.5285L43.4388 49.1663C43.3644 49.3152 43.3356 49.4827 43.3561 49.6478C43.3765 49.8129 43.4454 49.9683 43.554 50.0944L44.2264 50.8753C42.914 51.1655 41.554 51.1655 40.2415 50.8753L40.914 50.094C41.0225 49.968 41.0913 49.8126 41.1118 49.6476C41.1323 49.4825 41.1035 49.3151 41.0292 49.1663L39.7104 46.5285C39.6443 46.3961 39.5445 46.2835 39.421 46.2019C39.2976 46.1203 39.1549 46.0726 39.0072 46.0636L35.8335 45.8691C35.6602 45.8578 35.4876 45.9005 35.3396 45.9914C35.1916 46.0823 35.0754 46.2169 35.0071 46.3766L34.6641 47.1714C33.6997 45.8157 33.12 44.2243 32.9864 42.5659L33.6124 42.8886C33.7639 42.9667 33.9354 42.9971 34.1045 42.9758C34.2735 42.9545 34.4322 42.8825 34.5595 42.7693L36.916 40.6739C37.0247 40.5773 37.1065 40.4542 37.1536 40.3167C37.2006 40.1791 37.2114 40.0317 37.1847 39.8888L36.6692 37.1256C36.6376 36.9556 36.5544 36.7994 36.431 36.6783C36.3077 36.5571 36.15 36.4767 35.9795 36.4481L34.8084 36.2511C35.8643 34.8444 37.2969 33.7649 38.9401 33.1373Z" fill="white"/>
<path d="M39.6112 45.0006C39.6644 45.1728 39.7713 45.3234 39.9163 45.4305C40.0613 45.5375 40.2367 45.5953 40.417 45.5954H44.0504C44.2307 45.5953 44.4061 45.5375 44.5511 45.4305C44.6961 45.3234 44.803 45.1728 44.8562 45.0006L45.9792 41.3671C46.0303 41.2022 46.0295 41.0256 45.977 40.8611C45.9245 40.6966 45.8228 40.5523 45.6856 40.4475L42.746 38.2023C42.599 38.0898 42.419 38.0289 42.2339 38.0289C42.0488 38.0289 41.8688 38.0898 41.7218 38.2023L38.7822 40.4479C38.6451 40.5527 38.5433 40.6971 38.4908 40.8615C38.4383 41.026 38.4376 41.2026 38.4886 41.3675L39.6112 45.0006ZM42.2339 39.9341L44.1934 41.4317L43.4282 43.908H41.0396L40.2744 41.4317L42.2339 39.9341ZM39.6133 16.5006C40.3416 16.5037 41.0568 16.3064 41.6804 15.9302C41.9083 16.4892 42.2563 16.9912 42.6999 17.4006C43.1434 17.81 43.6716 18.1169 44.247 18.2994C45.3704 22.4876 42.1268 27.4364 42.0926 27.4875C41.9718 27.6736 41.9292 27.8998 41.9741 28.1172C42.0189 28.3345 42.1475 28.5254 42.3321 28.6485C42.5167 28.7717 42.7423 28.8172 42.9602 28.7751C43.178 28.7331 43.3706 28.607 43.4961 28.424C43.6594 28.1798 47.4675 22.3876 45.7109 17.319C45.6597 17.1752 45.5709 17.0478 45.4539 16.9499C45.3368 16.852 45.1957 16.7871 45.0452 16.7621C44.5181 16.669 44.0376 16.4018 43.6802 16.0034C43.3228 15.605 43.1093 15.0983 43.0738 14.5642C43.0684 14.5142 43.0585 14.4648 43.0443 14.4166C43.2255 14.0201 43.3196 13.5894 43.3202 13.1535C43.3202 12.9298 43.2313 12.7152 43.0731 12.5569C42.9148 12.3987 42.7002 12.3098 42.4765 12.3098C42.2527 12.3098 42.0381 12.3987 41.8799 12.5569C41.7217 12.7152 41.6328 12.9298 41.6328 13.1535C41.6328 14.069 40.7266 14.8131 39.6133 14.8131C38.4996 14.8131 37.5934 14.0685 37.5934 13.1535C37.6258 12.7665 37.7858 12.4012 38.0482 12.1149C38.3106 11.8286 38.6606 11.6375 39.0434 11.5716C39.0539 11.5732 39.0632 11.577 39.0738 11.5779C39.4229 11.6108 39.75 11.7629 40.0002 12.0086C40.1374 12.1854 40.3392 12.3004 40.5612 12.3284C40.7833 12.3563 41.0073 12.295 41.1841 12.1577C41.3609 12.0205 41.4759 11.8187 41.5039 11.5966C41.5318 11.3746 41.4705 11.1506 41.3332 10.9738C41.0381 10.6062 40.6524 10.3219 40.214 10.1486C40.1013 9.91016 40.0417 9.65007 40.0394 9.38632C40.0394 8.1895 41.2075 7.21627 42.6431 7.21627L42.6625 7.21711C42.7213 7.31512 42.7995 7.4001 42.8923 7.46684C42.985 7.53357 43.0905 7.58066 43.2021 7.60522C43.4975 7.68046 43.7567 7.85804 43.9336 8.10639C43.9839 8.20509 44.0532 8.2929 44.1375 8.36481C44.2218 8.43672 44.3195 8.49132 44.4249 8.5255C44.5303 8.55968 44.6414 8.57276 44.7518 8.56401C44.8623 8.55525 44.9699 8.52482 45.0686 8.47447C45.1673 8.42411 45.2551 8.3548 45.327 8.27051C45.3989 8.18622 45.4535 8.08858 45.4877 7.98319C45.5219 7.87779 45.535 7.7667 45.5262 7.65624C45.5175 7.54579 45.487 7.43815 45.4367 7.33945C45.3198 7.11293 45.1669 6.90691 44.984 6.72944C44.9899 6.64741 44.9836 6.56497 44.9655 6.48476C44.944 6.39208 44.9332 6.29725 44.9334 6.20212C44.9334 5.36768 45.7645 4.68848 46.7858 4.68848C47.8075 4.68848 48.639 5.36768 48.639 6.20254C48.6381 6.40361 48.5889 6.60152 48.4956 6.77964C48.4062 6.9537 48.3802 7.15339 48.4218 7.34455C48.4635 7.53571 48.5702 7.70646 48.7239 7.82757C48.8776 7.94868 49.0685 8.01262 49.2641 8.00846C49.4597 8.0043 49.6478 7.9323 49.7962 7.80476C50.136 7.52277 50.5654 7.37151 51.0069 7.37826C51.3823 7.34993 51.7555 7.45684 52.0589 7.67967C52.3624 7.9025 52.5761 8.22654 52.6614 8.59322C51.8903 8.68473 51.179 9.05448 50.661 9.6331C50.5597 9.75627 50.4955 9.90567 50.4759 10.0639C50.4562 10.2221 50.4819 10.3827 50.55 10.5269C50.6181 10.6711 50.7257 10.793 50.8604 10.8784C50.9951 10.9638 51.1512 11.0091 51.3106 11.0092C51.432 11.0093 51.552 10.9836 51.6626 10.9336C51.7732 10.8836 51.8718 10.8106 51.9519 10.7194C52.1986 10.4603 52.5296 10.2975 52.8855 10.2604C53.0313 10.2501 53.1718 10.2016 53.293 10.1199C53.3312 10.1284 53.37 10.1342 53.409 10.1372C54.4581 10.1727 55.3116 10.9008 55.3116 11.7601C55.3116 12.5579 54.5851 13.2489 53.6216 13.3666C53.4018 13.3965 53.2027 13.5117 53.0672 13.6874C52.9318 13.863 52.871 14.0849 52.8979 14.3051C52.9249 14.5253 53.0374 14.7259 53.2112 14.8637C53.3851 15.0015 53.6061 15.0653 53.8266 15.0414C55.6351 14.8203 56.999 13.4092 56.999 11.7601C56.9752 11.0125 56.7031 10.2942 56.2257 9.71844C55.7482 9.14269 55.0926 8.74233 54.3624 8.58056C54.2738 6.97328 52.8023 5.69082 51.0065 5.69082C50.7669 5.69066 50.5279 5.71369 50.2927 5.75958C50.0535 4.20334 48.5719 3.00104 46.7858 3.00104C46.0013 2.97513 45.2312 3.21552 44.6008 3.68309C43.9703 4.15066 43.5168 4.81786 43.3139 5.57608C43.0917 5.54448 42.8675 5.52869 42.6431 5.52883C40.2769 5.52883 38.3519 7.2593 38.3519 9.38632C38.3519 9.58814 38.3696 9.78957 38.4047 9.98831C37.7028 10.1764 37.0805 10.5861 36.6303 11.1564C36.1801 11.7267 35.926 12.4272 35.906 13.1535C35.906 14.9992 37.569 16.5006 39.6133 16.5006Z" fill="white"/>
<path d="M48.9711 11.75C48.944 11.5343 48.8347 11.3374 48.666 11.2004C48.4973 11.0633 48.2822 10.9966 48.0655 11.0143C47.8489 11.0319 47.6474 11.1324 47.5031 11.295C47.3587 11.4575 47.2827 11.6695 47.2908 11.8867C47.1108 12.0375 46.9048 12.1543 46.6829 12.2313C46.2785 12.4057 45.9495 12.7184 45.7548 13.1134C45.6773 12.9829 45.611 12.846 45.5565 12.7042C45.4791 12.4943 45.3214 12.3237 45.1181 12.23C44.9149 12.1364 44.6827 12.1273 44.4728 12.2048C44.2628 12.2822 44.0923 12.4399 43.9986 12.6432C43.9049 12.8464 43.8958 13.0786 43.9733 13.2885C44.0779 13.5741 44.6597 15.008 45.8265 15.2211C46.0093 15.2544 46.1979 15.2264 46.3632 15.1416C46.5285 15.0568 46.6612 14.9198 46.7407 14.752C46.7951 14.6553 46.9483 14.4001 46.9643 14.3735C47.0485 14.2528 47.1254 14.1271 47.1946 13.9972C47.2303 13.9209 47.2772 13.8504 47.3338 13.788C48.5319 13.2868 49.0833 12.6009 48.9711 11.75ZM49.3065 18.1454C49.3275 17.392 50.0114 16.4149 50.3708 15.98C52.2873 15.1468 52.4848 13.6311 52.3114 12.9249C52.2871 12.8151 52.2411 12.7113 52.1762 12.6196C52.1112 12.5278 52.0286 12.45 51.9331 12.3906C51.8377 12.3313 51.7313 12.2916 51.6203 12.2739C51.5093 12.2562 51.3959 12.2609 51.2867 12.2876C51.1775 12.3144 51.0748 12.3627 50.9845 12.4297C50.8943 12.4967 50.8183 12.5811 50.7612 12.6779C50.704 12.7747 50.6667 12.8819 50.6515 12.9933C50.6364 13.1047 50.6436 13.2179 50.6729 13.3265C50.6745 13.3332 50.8024 14.0099 49.5608 14.4883C49.4393 14.5352 49.3303 14.6095 49.2423 14.7055C49.082 14.8806 47.6789 16.4554 47.6207 18.0745C47.5773 18.6352 47.0664 26.2367 50.9256 28.9986C51.0155 29.0654 51.1179 29.1136 51.2266 29.1404C51.3354 29.1673 51.4485 29.1721 51.5592 29.1548C51.6699 29.1375 51.776 29.0983 51.8714 29.0395C51.9667 28.9807 52.0495 28.9035 52.1147 28.8124C52.1799 28.7213 52.2263 28.6181 52.2512 28.5088C52.2761 28.3996 52.279 28.2865 52.2598 28.1761C52.2405 28.0658 52.1994 27.9603 52.139 27.866C52.0785 27.7717 51.9999 27.6903 51.9076 27.6267C48.7618 25.3752 49.2984 18.2614 49.3039 18.1897C49.3052 18.1753 49.306 18.1602 49.3065 18.1454ZM55.5749 52.9746L53.1099 55.3117H6.41298L8.35438 53.8816C8.53002 53.7472 8.6459 53.5493 8.67708 53.3304C8.70826 53.1115 8.65225 52.8891 8.5211 52.711C8.38994 52.533 8.19414 52.4135 7.97582 52.3784C7.75749 52.3433 7.53411 52.3953 7.35373 52.5232L3.34437 55.4762C3.20135 55.5816 3.09525 55.7295 3.0412 55.8987C2.98715 56.068 2.98791 56.25 3.04336 56.4188C3.09881 56.5875 3.20613 56.7345 3.35002 56.8387C3.49391 56.943 3.66703 56.9991 3.8447 56.9991H53.4462C53.6621 56.9992 53.8698 56.9164 54.0267 56.768L56.7358 54.1997C56.8982 54.0457 56.9928 53.8336 56.9988 53.6099C57.0048 53.3862 56.9216 53.1693 56.7677 53.0069C56.6137 52.8445 56.4016 52.7499 56.1779 52.7439C55.9542 52.7379 55.7373 52.8206 55.5749 52.9746ZM3.8447 10.5945C3.62093 10.5945 3.40632 10.6834 3.2481 10.8416C3.08987 10.9999 3.00098 11.2145 3.00098 11.4382C3.00098 11.662 3.08987 11.8766 3.2481 12.0348C3.40632 12.1931 3.62093 12.282 3.8447 12.282H4.68842C4.68842 12.5057 4.77731 12.7203 4.93554 12.8786C5.09377 13.0368 5.30837 13.1257 5.53214 13.1257C5.75591 13.1257 5.97051 13.0368 6.12874 12.8786C6.28697 12.7203 6.37586 12.5057 6.37586 12.282H8.48516V14.8131H6.37586C6.15209 14.8131 5.93749 14.902 5.77926 15.0602C5.62103 15.2185 5.53214 15.4331 5.53214 15.6568C5.53214 15.8806 5.62103 16.0952 5.77926 16.2534C5.93749 16.4117 6.15209 16.5006 6.37586 16.5006H23.2503C23.474 16.5006 23.6886 16.4117 23.8469 16.2534C24.0051 16.0952 24.094 15.8806 24.094 15.6568C24.094 15.4331 24.0051 15.2185 23.8469 15.0602C23.6886 14.902 23.474 14.8131 23.2503 14.8131H21.141V12.282H23.2503C23.2503 12.5057 23.3392 12.7203 23.4974 12.8786C23.6556 13.0368 23.8702 13.1257 24.094 13.1257C24.3178 13.1257 24.5324 13.0368 24.6906 12.8786C24.8488 12.7203 24.9377 12.5057 24.9377 12.282H25.7814C26.0052 12.282 26.2198 12.1931 26.378 12.0348C26.5363 11.8766 26.6251 11.662 26.6251 11.4382C26.6251 11.2145 26.5363 10.9999 26.378 10.8416C26.2198 10.6834 26.0052 10.5945 25.7814 10.5945H24.9377V8.90708H25.7814C26.0052 8.90708 26.2198 8.81819 26.378 8.65996C26.5363 8.50173 26.6251 8.28713 26.6251 8.06336C26.6251 7.83959 26.5363 7.62499 26.378 7.46676C26.2198 7.30853 26.0052 7.21964 25.7814 7.21964H24.9377V5.5322H25.7814C26.0052 5.5322 26.2198 5.44331 26.378 5.28508C26.5363 5.12685 26.6251 4.91225 26.6251 4.68848C26.6251 4.46471 26.5363 4.25011 26.378 4.09188C26.2198 3.93365 26.0052 3.84476 25.7814 3.84476H24.9377C24.9377 3.62099 24.8488 3.40639 24.6906 3.24816C24.5324 3.08993 24.3178 3.00104 24.094 3.00104C23.8702 3.00104 23.6556 3.08993 23.4974 3.24816C23.3392 3.40639 23.2503 3.62099 23.2503 3.84476H6.37586C6.37586 3.62099 6.28697 3.40639 6.12874 3.24816C5.97051 3.08993 5.75591 3.00104 5.53214 3.00104C5.30837 3.00104 5.09377 3.08993 4.93554 3.24816C4.77731 3.40639 4.68842 3.62099 4.68842 3.84476H3.8447C3.62093 3.84476 3.40632 3.93365 3.2481 4.09188C3.08987 4.25011 3.00098 4.46471 3.00098 4.68848C3.00098 4.91225 3.08987 5.12685 3.2481 5.28508C3.40632 5.44331 3.62093 5.5322 3.8447 5.5322H4.68842V7.21964H3.8447C3.62093 7.21964 3.40632 7.30853 3.2481 7.46676C3.08987 7.62499 3.00098 7.83959 3.00098 8.06336C3.00098 8.28713 3.08987 8.50173 3.2481 8.65996C3.40632 8.81819 3.62093 8.90708 3.8447 8.90708H4.68842V10.5945H3.8447ZM19.4535 14.8131H10.1726V12.282H19.4535V14.8131ZM6.37586 5.5322H23.2503V7.21964H6.37586V5.5322ZM6.37586 8.90708H23.2503V10.5945H6.37586V8.90708Z" fill="white"/>
<path d="M3.8447 24.5158H21.1515L17.6184 29.5423C17.4158 29.8331 17.3224 30.1861 17.3546 30.539C17.3869 30.892 17.5428 31.2222 17.7948 31.4714L15.5606 33.8988C14.6587 34.2852 10.953 36.0676 9.76255 39.7007L9.51703 40.0031C9.07066 40.5512 8.856 41.2519 8.91881 41.956C8.98162 42.66 9.31692 43.3117 9.85325 43.772L20.2943 52.8437C20.8779 53.3486 21.6243 53.6258 22.396 53.6242H28.861C29.6011 53.6324 30.3143 53.3468 30.8441 52.83C31.3739 52.3132 31.6772 51.6074 31.6875 50.8673V50.6673C31.6837 50.1094 31.5108 49.5657 31.1916 49.1081C30.8724 48.6505 30.4219 48.3004 29.8996 48.1041C28.877 47.7025 26.766 46.874 25.8751 45.4169L23.9008 39.3366L25.4709 37.4762C25.75 37.5927 26.0573 37.6237 26.354 37.5655C26.6507 37.5072 26.9234 37.3622 27.1377 37.1488L31.4373 32.8952C31.5964 32.7378 31.6865 32.5236 31.6876 32.2998C31.6888 32.076 31.6011 31.8609 31.4436 31.7018C31.2862 31.5427 31.072 31.4526 30.8482 31.4514C30.6244 31.4503 30.4093 31.538 30.2502 31.6954L26.0485 35.8525C25.9443 35.6864 25.7833 35.5638 25.5954 35.5078L19.0979 30.3721L23.1697 24.5791C23.184 24.5588 23.1929 24.5369 23.2051 24.5158H25.8869C26.1107 24.5158 26.3253 24.4269 26.4835 24.2687C26.6417 24.1105 26.7306 23.8959 26.7306 23.6721C26.7306 23.4483 26.6417 23.2337 26.4835 23.0755C26.3253 22.9173 26.1107 22.8284 25.8869 22.8284H3.8447C3.62093 22.8284 3.40632 22.9173 3.2481 23.0755C3.08987 23.2337 3.00098 23.4483 3.00098 23.6721C3.00098 23.8959 3.08987 24.1105 3.2481 24.2687C3.40632 24.4269 3.62093 24.5158 3.8447 24.5158ZM24.299 46.0269L24.3707 46.1872C25.5304 48.2016 28.065 49.1963 29.2833 49.6747C29.4891 49.7484 29.6677 49.8827 29.7956 50.0599C29.9236 50.237 29.9948 50.4488 30 50.6673V50.8673C29.9901 51.1599 29.8647 51.4367 29.6513 51.6371C29.4378 51.8375 29.1537 51.9453 28.861 51.9367H22.396C22.0309 51.9383 21.6775 51.808 21.4008 51.5697L10.9598 42.498C10.7528 42.3254 10.6227 42.0778 10.5979 41.8094C10.5732 41.541 10.6558 41.2738 10.8277 41.0662L11.0256 40.822L13.4201 42.8747C13.5042 42.9469 13.6018 43.0017 13.7071 43.0362C13.8125 43.0706 13.9236 43.0839 14.0341 43.0754C14.1446 43.0669 14.2523 43.0368 14.3512 42.9866C14.45 42.9365 14.538 42.8674 14.6101 42.7832C14.6823 42.699 14.7371 42.6015 14.7716 42.4962C14.806 42.3908 14.8193 42.2797 14.8108 42.1692C14.8023 42.0587 14.7722 41.9509 14.722 41.8521C14.6719 41.7533 14.6028 41.6653 14.5186 41.5931L11.7917 39.256C13.2155 36.6396 16.3216 35.4087 16.3562 35.396L16.541 35.3251L16.719 35.1319L22.1458 39.3961L24.299 46.0269ZM22.9322 37.8677L17.8656 33.8862L19.111 32.5333L24.1037 36.4793L22.9322 37.8677ZM29.1563 24.5158H32.1093C32.3331 24.5158 32.5477 24.4269 32.7059 24.2687C32.8642 24.1105 32.953 23.8959 32.953 23.6721C32.953 23.4483 32.8642 23.2337 32.7059 23.0755C32.5477 22.9173 32.3331 22.8284 32.1093 22.8284H29.1563C28.9325 22.8284 28.7179 22.9173 28.5597 23.0755C28.4015 23.2337 28.3126 23.4483 28.3126 23.6721C28.3126 23.8959 28.4015 24.1105 28.5597 24.2687C28.7179 24.4269 28.9325 24.5158 29.1563 24.5158Z" fill="white"/>
</svg>
