<svg width="60" height="60" viewBox="0 0 60 60" fill="none" xmlns="http://www.w3.org/2000/svg">
<path d="M57.125 4.625H46.1875V2.875C46.1875 2.64294 46.0953 2.42038 45.9312 2.25628C45.7671 2.09219 45.5446 2 45.3125 2C45.0804 2 44.8579 2.09219 44.6938 2.25628C44.5297 2.42038 44.4375 2.64294 44.4375 2.875V4.625H30.875V2.875C30.875 2.64294 30.7828 2.42038 30.6187 2.25628C30.4546 2.09219 30.2321 2 30 2C29.7679 2 29.5454 2.09219 29.3813 2.25628C29.2172 2.42038 29.125 2.64294 29.125 2.875V4.625H15.5625V2.875C15.5625 2.64294 15.4703 2.42038 15.3062 2.25628C15.1421 2.09219 14.9196 2 14.6875 2C14.4554 2 14.2329 2.09219 14.0688 2.25628C13.9047 2.42038 13.8125 2.64294 13.8125 2.875V4.625H2.875C2.64294 4.625 2.42038 4.71719 2.25628 4.88128C2.09219 5.04538 2 5.26794 2 5.5C2 5.73206 2.09219 5.95462 2.25628 6.11872C2.42038 6.28281 2.64294 6.375 2.875 6.375H13.8125V9.5285C11.576 9.97913 9.875 12.1185 9.875 14.6875C9.875 14.9196 9.96719 15.1421 10.1313 15.3062C10.2954 15.4703 10.5179 15.5625 10.75 15.5625H18.625C18.8571 15.5625 19.0796 15.4703 19.2437 15.3062C19.4078 15.1421 19.5 14.9196 19.5 14.6875C19.5 12.1189 17.799 9.97913 15.5625 9.5285V6.375H29.125V9.94938C27.7096 10.1698 26.4295 10.9161 25.5404 12.0393C24.6514 13.1625 24.2189 14.5798 24.3295 16.008C24.44 17.4362 25.0853 18.7701 26.1366 19.7431C27.1878 20.7161 28.5675 21.2567 30 21.2567C31.4325 21.2567 32.8122 20.7161 33.8634 19.7431C34.9147 18.7701 35.56 17.4362 35.6705 16.008C35.7811 14.5798 35.3486 13.1625 34.4596 12.0393C33.5705 10.9161 32.2904 10.1698 30.875 9.94938V6.375H44.4375V9.091C42.201 9.54163 40.5 11.681 40.5 14.25C40.5 14.4821 40.5922 14.7046 40.7563 14.8687C40.9204 15.0328 41.1429 15.125 41.375 15.125H49.25C49.4821 15.125 49.7046 15.0328 49.8687 14.8687C50.0328 14.7046 50.125 14.4821 50.125 14.25C50.125 11.6814 48.424 9.54163 46.1875 9.091V6.375H57.125C57.3571 6.375 57.5796 6.28281 57.7437 6.11872C57.9078 5.95462 58 5.73206 58 5.5C58 5.26794 57.9078 5.04538 57.7437 4.88128C57.5796 4.71719 57.3571 4.625 57.125 4.625ZM17.6529 13.8125H11.7221C12.0625 12.3049 13.263 11.1875 14.6875 11.1875C16.112 11.1875 17.3125 12.3049 17.6529 13.8125ZM33.9375 15.5625C33.9375 16.3413 33.7066 17.1025 33.2739 17.7501C32.8413 18.3976 32.2263 18.9023 31.5068 19.2003C30.7873 19.4983 29.9956 19.5763 29.2318 19.4243C28.468 19.2724 27.7664 18.8974 27.2158 18.3467C26.6651 17.7961 26.2901 17.0945 26.1382 16.3307C25.9862 15.5669 26.0642 14.7752 26.3622 14.0557C26.6602 13.3362 27.1649 12.7212 27.8124 12.2886C28.46 11.8559 29.2212 11.625 30 11.625C31.0439 11.6262 32.0448 12.0414 32.783 12.7795C33.5211 13.5177 33.9363 14.5186 33.9375 15.5625ZM48.2779 13.375H42.3471C42.6875 11.8674 43.888 10.75 45.3125 10.75C46.737 10.75 47.9375 11.8674 48.2779 13.375ZM57.125 44.875H53.1875V42.25H56.25C56.4821 42.25 56.7046 42.1578 56.8687 41.9937C57.0328 41.8296 57.125 41.6071 57.125 41.375V35.25C57.125 35.0179 57.0328 34.7954 56.8687 34.6313C56.7046 34.4672 56.4821 34.375 56.25 34.375H48.375C48.1429 34.375 47.9204 34.4672 47.7563 34.6313C47.5922 34.7954 47.5 35.0179 47.5 35.25V41.375C47.5 41.6071 47.5922 41.8296 47.7563 41.9937C47.9204 42.1578 48.1429 42.25 48.375 42.25H51.4375V44.875H47.5C47.2679 44.875 47.0454 44.9672 46.8813 45.1313C46.7172 45.2954 46.625 45.5179 46.625 45.75V57.125C46.625 57.3571 46.7172 57.5796 46.8813 57.7437C47.0454 57.9078 47.2679 58 47.5 58C47.7321 58 47.9546 57.9078 48.1187 57.7437C48.2828 57.5796 48.375 57.3571 48.375 57.125V55.8125H56.25V57.125C56.25 57.3571 56.3422 57.5796 56.5063 57.7437C56.6704 57.9078 56.8929 58 57.125 58C57.3571 58 57.5796 57.9078 57.7437 57.7437C57.9078 57.5796 58 57.3571 58 57.125V45.75C58 45.5179 57.9078 45.2954 57.7437 45.1313C57.5796 44.9672 57.3571 44.875 57.125 44.875ZM49.25 40.5V36.125H55.375V40.5H49.25ZM56.25 54.0625H48.375V51.4375H56.25V54.0625ZM56.25 49.6875H48.375V46.625H56.25V49.6875Z" fill="white"/>
<path d="M55.375 29.5625C55.6071 29.5625 55.8296 29.4703 55.9937 29.3062C56.1578 29.1421 56.25 28.9196 56.25 28.6875V19.0625C56.25 18.8304 56.1578 18.6079 55.9937 18.4438C55.8296 18.2797 55.6071 18.1875 55.375 18.1875H41.375C41.1429 18.1875 40.9204 18.2797 40.7563 18.4438C40.5922 18.6079 40.5 18.8304 40.5 19.0625V28.6875C40.5 28.9196 40.5922 29.1421 40.7563 29.3062C40.9204 29.4703 41.1429 29.5625 41.375 29.5625H55.375ZM42.25 19.9375H54.5V27.8125H42.25V19.9375ZM8.5625 54.5V57.125C8.5625 57.3571 8.65469 57.5796 8.81878 57.7437C8.98288 57.9078 9.20544 58 9.4375 58H12.9375C13.1326 58 13.3221 57.9347 13.4759 57.8146C13.6297 57.6945 13.7389 57.5265 13.7863 57.3372L14.4959 54.5H34.1291L34.8387 57.3372C34.8861 57.5265 34.9953 57.6945 35.1491 57.8146C35.3029 57.9347 35.4924 58 35.6875 58H39.1875C39.4196 58 39.6421 57.9078 39.8062 57.7437C39.9703 57.5796 40.0625 57.3571 40.0625 57.125V54.5H40.5C40.964 54.4995 41.4088 54.315 41.7369 53.9869C42.065 53.6588 42.2495 53.214 42.25 52.75V47.5C42.2495 47.036 42.065 46.5912 41.7369 46.2631C41.4088 45.935 40.964 45.7505 40.5 45.75H40.1172C40.1155 44.7327 39.7599 43.7477 39.1113 42.9641C38.4627 42.1804 37.5615 41.6469 36.5625 41.4551V33.4248L38.4936 31.4936C38.6577 31.3295 38.7498 31.107 38.7498 30.875C38.7498 30.643 38.6577 30.4205 38.4936 30.2564L36.3061 28.0689C36.142 27.9048 35.9195 27.8127 35.6875 27.8127C35.4555 27.8127 35.233 27.9048 35.0689 28.0689L32.8814 30.2564C32.7173 30.4205 32.6252 30.643 32.6252 30.875C32.6252 31.107 32.7173 31.3295 32.8814 31.4936L34.8125 33.4248V35.1021C33.5104 34.1628 31.9694 33.6103 30.3671 33.5083C28.2806 33.4051 26.2432 34.1891 24.3125 35.824C22.3818 34.1895 20.3509 33.4086 18.2579 33.5083C16.6556 33.6103 15.1146 34.1628 13.8125 35.1021V33.4248L15.7436 31.4936C15.9077 31.3295 15.9998 31.107 15.9998 30.875C15.9998 30.643 15.9077 30.4205 15.7436 30.2564L13.5561 28.0689C13.392 27.9048 13.1695 27.8127 12.9375 27.8127C12.7055 27.8127 12.483 27.9048 12.3189 28.0689L10.1314 30.2564C9.96734 30.4205 9.87519 30.643 9.87519 30.875C9.87519 31.107 9.96734 31.3295 10.1314 31.4936L12.0625 33.4248V41.4551C11.0635 41.6469 10.1623 42.1804 9.51374 42.9641C8.86513 43.7477 8.50948 44.7327 8.50781 45.75H8.125C7.66101 45.7505 7.21616 45.935 6.88807 46.2631C6.55999 46.5912 6.37546 47.036 6.375 47.5V52.75C6.37546 53.214 6.55999 53.6588 6.88807 53.9869C7.21616 54.315 7.66101 54.4995 8.125 54.5H8.5625ZM12.2541 56.25H10.3125V54.5H12.6916L12.2541 56.25ZM38.3125 56.25H36.3709L35.9334 54.5H38.3125V56.25ZM34.7373 30.875L35.6875 29.9247L36.6377 30.875L35.6875 31.8252L34.7373 30.875ZM18.3393 35.2561C20.1506 35.1739 21.9601 35.9714 23.7096 37.6344C23.8724 37.7887 24.0882 37.8747 24.3125 37.8747C24.5368 37.8747 24.7526 37.7887 24.9154 37.6344C26.6592 35.9762 28.4587 35.166 30.2695 35.2557C32.5196 35.3533 34.2289 36.7948 34.8125 37.3561V41.375H32.9094C33.0511 40.9793 33.0954 40.5553 33.0386 40.1389C32.9818 39.7225 32.8256 39.3258 32.5831 38.9825C32.3407 38.6392 32.0191 38.3594 31.6457 38.1666C31.2722 37.9738 30.8578 37.8738 30.4375 37.875H28.6875C28.2672 37.8738 27.8528 37.9738 27.4793 38.1666C27.1059 38.3594 26.7843 38.6392 26.5419 38.9825C26.2994 39.3258 26.1432 39.7225 26.0864 40.1389C26.0296 40.5553 26.0739 40.9793 26.2156 41.375H22.4094C22.5511 40.9793 22.5954 40.5553 22.5386 40.1389C22.4818 39.7225 22.3256 39.3258 22.0831 38.9825C21.8407 38.6392 21.5191 38.3594 21.1457 38.1666C20.7722 37.9738 20.3578 37.8738 19.9375 37.875H18.1875C17.7672 37.8738 17.3528 37.9738 16.9793 38.1666C16.6059 38.3594 16.2843 38.6392 16.0419 38.9825C15.7994 39.3258 15.6432 39.7225 15.5864 40.1389C15.5296 40.5553 15.5739 40.9793 15.7156 41.375H13.8125V37.3539C14.3887 36.7948 16.0779 35.3611 18.3393 35.2561ZM31.3125 40.5C31.3122 40.732 31.2199 40.9543 31.0558 41.1183C30.8918 41.2824 30.6695 41.3747 30.4375 41.375H28.6875C28.4554 41.375 28.2329 41.2828 28.0688 41.1187C27.9047 40.9546 27.8125 40.7321 27.8125 40.5C27.8125 40.2679 27.9047 40.0454 28.0688 39.8813C28.2329 39.7172 28.4554 39.625 28.6875 39.625H30.4375C30.6695 39.6253 30.8918 39.7176 31.0558 39.8817C31.2199 40.0457 31.3122 40.268 31.3125 40.5ZM20.8125 40.5C20.8122 40.732 20.7199 40.9543 20.5558 41.1183C20.3918 41.2824 20.1695 41.3747 19.9375 41.375H18.1875C17.9554 41.375 17.7329 41.2828 17.5688 41.1187C17.4047 40.9546 17.3125 40.7321 17.3125 40.5C17.3125 40.2679 17.4047 40.0454 17.5688 39.8813C17.7329 39.7172 17.9554 39.625 18.1875 39.625H19.9375C20.1695 39.6253 20.3918 39.7176 20.5558 39.8817C20.7199 40.0457 20.8122 40.268 20.8125 40.5ZM11.9872 30.875L12.9375 29.9247L13.8878 30.875L12.9375 31.8252L11.9872 30.875ZM12.8828 43.125H35.7422C36.4381 43.1258 37.1053 43.4026 37.5974 43.8947C38.0896 44.3868 38.3664 45.0541 38.3672 45.75H10.2578C10.2586 45.0541 10.5354 44.3868 11.0276 43.8947C11.5197 43.4026 12.1869 43.1258 12.8828 43.125ZM8.125 47.5H40.5V48.8252C39.8142 48.8615 39.1418 49.0289 38.519 49.3182C37.9712 49.5616 37.3785 49.6874 36.7791 49.6874C36.1797 49.6874 35.5869 49.5616 35.0391 49.3182C34.2766 48.9846 33.4534 48.8124 32.6211 48.8124C31.7888 48.8124 30.9655 48.9846 30.203 49.3182C29.6557 49.5616 29.0634 49.6874 28.4644 49.6874C27.8654 49.6874 27.2731 49.5616 26.7257 49.3182C25.969 48.9671 25.1418 48.7941 24.3077 48.8125C23.4737 48.7939 22.6466 48.9671 21.8901 49.3187C21.3485 49.5788 20.7524 49.7053 20.1519 49.6875C19.5516 49.7052 18.9559 49.5787 18.4146 49.3187C17.6582 48.967 16.8312 48.7939 15.9974 48.8125C15.1637 48.7939 14.3368 48.9671 13.5806 49.3187C13.0392 49.5788 12.4433 49.7052 11.8429 49.6875C11.2423 49.7053 10.6463 49.5788 10.1047 49.3187C9.48238 49.0293 8.81035 48.8619 8.125 48.8256V47.5ZM8.125 50.5809C8.57612 50.6181 9.01678 50.7367 9.42569 50.9309C10.182 51.2825 11.009 51.4559 11.8429 51.4375C12.6766 51.4561 13.5034 51.2829 14.2596 50.9313C14.8011 50.6712 15.397 50.5448 15.9974 50.5625C16.5978 50.5448 17.1937 50.6712 17.7351 50.9313C18.4913 51.2829 19.3182 51.4561 20.1519 51.4375C20.9858 51.456 21.8129 51.2829 22.5695 50.9318C23.1168 50.6885 23.709 50.5627 24.3079 50.5626C24.9068 50.5626 25.499 50.6882 26.0463 50.9313C26.8087 51.2652 27.632 51.4376 28.4644 51.4376C29.2967 51.4376 30.12 51.2652 30.8824 50.9313C31.4299 50.6881 32.0224 50.5624 32.6215 50.5624C33.2206 50.5624 33.8131 50.6881 34.3606 50.9313C35.1231 51.2649 35.9465 51.4371 36.7788 51.4371C37.6112 51.4371 38.4345 51.2649 39.1971 50.9313C39.607 50.7367 40.0487 50.618 40.5009 50.5809V52.75H8.125V50.5809Z" fill="white"/>
</svg>
