<svg width="60" height="60" viewBox="0 0 60 60" fill="none" xmlns="http://www.w3.org/2000/svg">
<g clip-path="url(#clip0_1473_414)">
<path fill-rule="evenodd" clip-rule="evenodd" d="M35.9295 44.7425C34.7264 44.7425 32.6109 41.0053 26.6208 44.5882C26.3871 44.7274 26.0932 44.721 25.8676 44.5696C23.4906 42.977 19.1879 42.1465 17.5813 44.4103C17.3553 44.7291 16.9124 44.8022 16.5961 44.5734C14.9892 43.4136 11.4987 41.7768 9.78988 43.8919C9.73838 43.9549 9.67658 44.0088 9.60712 44.0511C6.84244 45.7315 3.58254 43.2993 4.7554 42.3219C5.05205 42.0738 5.4949 42.1131 5.74304 42.4087C5.87906 42.5669 7.07265 43.8673 8.78116 42.9061C10.9708 40.3463 14.6627 41.658 16.8759 43.0663C19.1615 40.7238 23.5426 41.5205 26.2721 43.1626C29.8593 41.1164 32.7093 41.1202 35.9126 43.1837C38.8039 41.2056 42.2349 41.1947 45.066 43.1556C51.3422 39.8047 51.5029 42.9756 54.9954 43.2856C56.8726 43.4522 57.235 41.5216 58.1436 42.3145C59.1811 43.2192 56.6667 44.8444 54.8721 44.6856C50.659 44.313 51.4494 41.2183 45.3507 44.6001C45.1061 44.7358 44.8042 44.7126 44.5813 44.5421C42.0767 42.614 38.9241 42.6354 36.3544 44.5973C36.23 44.6947 36.0799 44.7428 35.9295 44.7428V44.7425ZM35.9295 50.5941C34.7292 50.5941 32.599 46.8555 26.6208 50.4398C26.3871 50.5797 26.0932 50.573 25.8676 50.4212C23.4892 48.8287 19.1875 47.9982 17.5813 50.2616C17.356 50.579 16.9142 50.6539 16.5968 50.4251C14.9899 49.2652 11.4991 47.6291 9.79058 49.7436C9.73927 49.8068 9.67744 49.8606 9.60782 49.9028C6.82873 51.5804 3.58746 49.1496 4.75611 48.1736C5.05275 47.9251 5.49455 47.9648 5.74374 48.26C5.878 48.4161 7.0723 49.72 8.78221 48.7581C10.9722 46.1983 14.6637 47.5103 16.8766 48.9176C19.1626 46.574 23.543 47.3711 26.2728 49.0143C29.8585 46.968 32.7086 46.9715 35.9133 49.0354C38.8046 47.0562 42.2349 47.0453 45.066 49.0072C51.3394 45.6574 51.4951 48.8217 54.9958 49.1373C56.8737 49.307 57.2347 47.3715 58.1439 48.1655C59.1808 49.0709 56.6677 50.6964 54.8724 50.5372C50.6628 50.1639 51.4421 47.0692 45.3511 50.4514C45.1064 50.5875 44.8045 50.5646 44.5817 50.3934C42.0771 48.466 38.9248 48.4867 36.3548 50.449C36.2329 50.5433 36.083 50.5945 35.9288 50.5945L35.9295 50.5941ZM35.9295 56.4458C34.7412 56.4458 32.5976 52.7089 26.6208 56.2915C26.3871 56.431 26.0932 56.4243 25.8676 56.2729C23.4906 54.6803 19.1879 53.8498 17.5813 56.1136C17.356 56.4314 16.9142 56.5062 16.5968 56.2774C14.9899 55.1162 11.4984 53.4815 9.79058 55.5959C9.73944 55.6593 9.67758 55.7132 9.60782 55.7551C6.82768 57.4338 3.58746 55.0009 4.75611 54.0259C5.05275 53.7778 5.49455 53.8164 5.74374 54.1124C5.878 54.2691 7.0723 55.5727 8.78221 54.6104C10.9719 52.0513 14.663 53.3627 16.8766 54.77C19.1619 52.4264 23.5437 53.2242 26.2728 54.8663C29.86 52.8207 32.71 52.8239 35.9133 54.8874C38.8035 52.9089 42.2356 52.8973 45.066 54.8596C51.3412 51.5087 51.499 54.6761 54.9958 54.9896C56.8733 55.158 57.2343 53.2246 58.1439 54.0178C59.1808 54.9222 56.6684 56.5491 54.8724 56.3896C50.6572 56.0152 51.4494 52.9219 45.3511 56.3034C45.1064 56.4395 44.8045 56.4163 44.5817 56.2455C42.0771 54.318 38.9248 54.338 36.3548 56.3006C36.2329 56.3951 36.083 56.4464 35.9288 56.4465L35.9295 56.4458ZM39.6969 35.9051C39.4871 35.9051 39.2801 35.812 39.1409 35.6327L35.8019 31.3324H12.7391C12.6395 31.3324 12.5411 31.3112 12.4504 31.2703C12.3596 31.2294 12.2786 31.1697 12.2126 31.0952L5.31249 23.2964C4.91532 22.8479 5.22919 22.1365 5.82915 22.1278L9.96702 22.0684C10.1902 22.0712 10.3958 22.1654 10.5315 22.3386L14.3685 27.2596H34.0755C34.2924 27.2596 34.4973 27.3601 34.6308 27.5316L40.2516 34.7712C40.6136 35.2376 40.2642 35.9051 39.6966 35.9051H39.6969ZM13.0561 29.9266H34.711L33.7318 28.6651H14.0251C13.9182 28.665 13.8127 28.6406 13.7166 28.5938C13.6205 28.5469 13.5363 28.4787 13.4705 28.3945L9.63734 23.4788L7.37984 23.5112L13.0565 29.9266H13.0561Z" fill="#FDF4E4"/>
<path fill-rule="evenodd" clip-rule="evenodd" d="M8.78911 35.9049C8.19372 35.9049 7.86228 35.1988 8.25733 34.7419L12.2079 30.1703C12.8135 29.4698 13.8763 30.39 13.2718 31.0894L9.32124 35.6614C9.18206 35.8227 8.98629 35.9049 8.78911 35.9049Z" fill="#FDF4E4"/>
<path fill-rule="evenodd" clip-rule="evenodd" d="M40.2156 35.9052H5.31979C4.39472 35.9052 4.39472 34.4993 5.31979 34.4993H40.2156C41.1407 34.4993 41.1411 35.9052 40.2156 35.9052ZM1.29861 20.084C0.633973 20.084 0.575628 19.3983 0.422738 18.8272C-1.64637 11.1036 4.21828 3.55432 12.125 3.55432C17.6174 3.55432 22.4445 7.2518 23.8627 12.5467C23.9994 13.056 24.3724 13.9269 23.5626 14.1438L1.29861 20.0844V20.084ZM12.1253 4.95915C5.18799 4.95915 -0.0520997 11.532 1.79629 18.5196L22.5205 12.9667C21.2717 8.24576 17.0076 4.95915 12.1253 4.95915Z" fill="#FDF4E4"/>
<path fill-rule="evenodd" clip-rule="evenodd" d="M7.21916 18.4978C6.98965 18.4978 6.76506 18.3861 6.63045 18.1801C3.07145 12.745 8.54245 4.34233 8.59798 4.25833C8.79375 3.96204 9.17932 3.85871 9.4981 4.01652C9.58843 4.06151 18.5225 8.70304 18.1636 15.0896C18.1116 16.0214 16.7085 15.9311 16.7602 15.0109C17.0185 10.4105 11.2899 6.67505 9.4373 5.59217C8.37515 7.45637 5.28255 13.5562 7.80542 17.41C8.11541 17.8831 7.76359 18.4975 7.21881 18.4975L7.21916 18.4978Z" fill="#FDF4E4"/>
<path fill-rule="evenodd" clip-rule="evenodd" d="M15.4325 28.666C15.1221 28.666 14.8378 28.459 14.7538 28.1448L11.6615 16.6043C11.4218 15.7105 12.7803 15.346 13.02 16.2405L16.1122 27.781C16.2324 28.2288 15.8936 28.666 15.4325 28.666ZM35.8115 15.2507C33.9508 15.2507 32.4377 13.7369 32.4377 11.8766C32.4377 10.0163 33.9515 8.50283 35.8115 8.50283C37.6718 8.50283 39.186 10.0166 39.186 11.8766C39.186 13.7373 37.6722 15.2507 35.8115 15.2507ZM35.8115 9.90872C33.2215 9.90872 33.2222 13.8452 35.8115 13.8452C38.4018 13.8452 38.4018 9.90872 35.8115 9.90872ZM35.8115 8.16366C34.8541 8.16366 35.1085 6.82385 35.1085 5.63975C35.1085 4.71432 36.5144 4.71432 36.5144 5.63975C36.5144 6.82526 36.7689 8.16366 35.8115 8.16366Z" fill="#FDF4E4"/>
<path fill-rule="evenodd" clip-rule="evenodd" d="M38.9346 9.45726C38.3149 9.45726 37.9926 8.70195 38.4379 8.25663C39.2758 7.41908 40.0431 6.29191 40.72 6.96884C41.3977 7.64648 40.2684 8.41198 39.4312 9.25094C39.3662 9.31644 39.2888 9.3684 39.2035 9.40381C39.1183 9.43922 39.0269 9.45739 38.9346 9.45726ZM42.0493 12.5797C40.8652 12.5797 39.5257 12.8342 39.5257 11.8768C39.5257 10.9194 40.8659 11.1738 42.0493 11.1738C42.9744 11.1738 42.9747 12.5797 42.0493 12.5797ZM40.222 16.9903C39.7349 16.9903 38.9911 16.0523 38.4365 15.4973C37.7821 14.8422 38.7768 13.8485 39.4312 14.503C40.2684 15.3402 41.397 16.1082 40.7193 16.7851C40.6541 16.8504 40.5766 16.9021 40.4913 16.9374C40.4061 16.9727 40.3146 16.9908 40.2224 16.9907L40.222 16.9903ZM35.8114 18.8176C34.854 18.8176 35.1084 17.4775 35.1084 16.2934C35.1084 15.3683 36.5143 15.3683 36.5143 16.2934C36.5143 17.4789 36.7688 18.8176 35.8114 18.8176ZM31.4011 16.9903C30.7797 16.9903 30.4599 16.2343 30.9038 15.7904C31.741 14.9532 32.509 13.825 33.1859 14.5026C33.8621 15.1796 32.7381 15.9465 31.8981 16.7847C31.7662 16.9164 31.5875 16.9904 31.4011 16.9903ZM31.3955 12.5797C30.2114 12.5797 28.8716 12.8342 28.8716 11.8768C28.8716 10.9194 30.2114 11.1738 31.3955 11.1738C32.3209 11.1738 32.3209 12.5797 31.3955 12.5797ZM32.6889 9.45726C32.2014 9.45726 31.4609 8.51988 30.9038 7.9635C30.2486 7.30906 31.244 6.31475 31.8981 6.96954C32.7364 7.80851 33.8635 8.57401 33.1859 9.25094C33.1207 9.31634 33.0433 9.36823 32.958 9.40363C32.8727 9.43904 32.7813 9.45726 32.6889 9.45726ZM57.8058 35.9051H40.2157C39.2903 35.9051 39.2906 34.4993 40.2157 34.4993H57.8058C58.7308 34.4993 58.7308 35.9051 57.8058 35.9051Z" fill="#FDF4E4"/>
<path fill-rule="evenodd" clip-rule="evenodd" d="M45.6917 41.7362C45.3037 41.7362 44.9888 41.4209 44.9888 41.0332V25.6342C44.9888 23.8157 46.4678 22.3374 48.2859 22.3374C51.329 22.3374 52.4691 26.3371 50.8805 26.3371C50.4928 26.3371 50.1775 26.0222 50.1775 25.6342C50.1775 23.1444 46.3957 23.1447 46.3957 25.6342V41.0329C46.3947 41.4209 46.0794 41.7362 45.6917 41.7362ZM54.1 41.7362C53.7119 41.7362 53.397 41.4209 53.397 41.0332V25.6342C53.397 23.8157 54.876 22.3374 56.6942 22.3374C59.7369 22.3374 60.8774 26.3371 59.2884 26.3371C58.9007 26.3371 58.5854 26.0222 58.5854 25.6342C58.5854 23.1447 54.8036 23.144 54.8036 25.6342V41.0329C54.8029 41.4209 54.4876 41.7362 54.0996 41.7362H54.1Z" fill="#FDF4E4"/>
<path fill-rule="evenodd" clip-rule="evenodd" d="M54.0996 29.4639H45.691C44.7656 29.4639 44.7659 28.058 45.691 28.058H54.0996C55.025 28.058 55.025 29.4639 54.0996 29.4639ZM54.0996 32.6844H45.691C44.7656 32.6844 44.7659 31.2785 45.691 31.2785H54.0996C55.025 31.2785 55.025 32.6844 54.0996 32.6844ZM54.0996 35.9053H45.691C44.7656 35.9053 44.7659 34.4994 45.691 34.4994H54.0996C55.025 34.4994 55.025 35.9053 54.0996 35.9053ZM54.0996 39.1248H45.691C44.7656 39.1248 44.7659 37.7189 45.691 37.7189H54.0996C55.025 37.7189 55.025 39.1248 54.0996 39.1248Z" fill="#FDF4E4"/>
</g>
<defs>
<clipPath id="clip0_1473_414">
<rect width="60" height="60" fill="white"/>
</clipPath>
</defs>
</svg>
