<svg xmlns="http://www.w3.org/2000/svg" width="272" height="54" fill="none" viewBox="0 0 272 54"><mask id="a" width="51" height="48" x="2" y="3" maskUnits="userSpaceOnUse" style="mask-type:alpha"><path fill="#d9d9d9" fill-rule="evenodd" d="M25.235 4.401a3.85 3.85 0 0 1 4.522 0l21.15 15.366a3.85 3.85 0 0 1 1.584 3.112v27.425h-9.633a6268 6268 0 0 1-.043-14.117c0-1.755-1.13-3.649-2.954-3.649a.68.68 0 0 1-.681-.676c0-.007-.013-.971-.493-1.898-.603-1.162-1.676-1.752-3.189-1.752a.68.68 0 0 1-.682-.676c0-.02-.015-.766-.4-1.492-.485-.916-1.351-1.4-2.574-1.437a.7.7 0 0 1-.469-.205.67.67 0 0 1-.192-.47c0-1.123-2.344-2.363-3.681-2.882-1.337.52-3.681 1.762-3.682 2.881a.67.67 0 0 1-.192.471.68.68 0 0 1-.468.205c-2.937.09-2.975 2.807-2.975 2.929 0 .368-.31.677-.682.677-1.513 0-2.586.589-3.189 1.75a4.7 4.7 0 0 0-.492 1.901.68.68 0 0 1-.681.674c-1.825 0-2.954 1.894-2.954 3.65 0 2.087-.024 8.842-.043 14.116H2.5V22.879c0-1.231.59-2.388 1.586-3.112z" clip-rule="evenodd"/></mask><g mask="url(#a)"><path stroke="#c88c00" stroke-linecap="round" stroke-linejoin="round" stroke-width=".938" d="M27.496 2.438v27.554m3.052-27.271-1.922 27.487M33.59 3.004l-3.835 27.285m6.86-26.438-5.73 26.952M39.81 4.649l-7.594 26.487m10.77-25.342L33.56 31.686M46.072 7.158 34.866 32.33M49.058 8.734 36.122 33.062m15.804-22.548L37.323 33.88m17.339-21.39L38.467 34.78m18.788-20.13L39.543 35.76M59.69 16.99 36.703 40.656M61.956 19.49 37.633 41.774m26.409-19.63-25.559 20.81m27.455-18.017-26.69 19.254m28.386-16.336L39.926 45.478m29.197-14.593L40.512 46.81m29.885-12.8L41.003 48.18M71.45 37.218l-30.052 12.36m30.878-9.087L41.695 51.003m31.177-7.19-30.981 8.63m31.344-5.274-31.249 6.726m31.377-3.353L41.98 55.35M24.529 2.72l1.922 27.488M21.486 3.004l3.835 27.285M18.46 3.851l5.73 26.952M15.267 4.649l7.595 26.487M12.093 5.794l9.423 25.892M9.004 7.158 20.212 32.33M6.019 8.734l12.936 24.328M3.151 10.514 17.753 33.88M.415 12.49 16.61 34.78M-2.178 14.65l17.712 21.11M-4.613 16.99l19.14 19.82M-6.878 19.492l20.477 18.437M-8.965 22.144l25.559 20.81m-27.455-18.017 26.69 19.254m-28.386-16.336L15.15 45.478m-29.197-14.593L14.565 46.81m-29.885-12.8 29.394 14.17m-30.447-10.961 30.052 12.36M-17.2 40.492l30.581 10.512m-31.177-7.19 30.981 8.63m-31.344-5.274 31.249 6.726m-31.377-3.353 31.383 4.808"/></g><path fill="#c88c00" fill-rule="evenodd" d="M27.326 34c.065 0 .176.047.25.102.073.06.272.294.443.526s.42.596.554.814c.139.22.375.666.536 1 .157.336.36.829.62 1.606l.36-.316c.194-.172.48-.41.633-.526.152-.116.434-.317.623-.447.19-.13.564-.349.832-.493a9 9 0 0 1 .693-.335c.166-.065.235-.07.346-.028a.4.4 0 0 1 .199.168c.027.065.106.372.17.684.06.316.14.832.167 1.153.028.322.046.82.037 1.108-.014.335 0 .516.028.502.027-.009.235-.102.462-.204.226-.103.632-.256.9-.35.268-.088.726-.218 1.017-.283a12 12 0 0 1 1.048-.177c.5-.06.522-.056.647.037.11.084.13.135.143.35.01.139-.018.479-.06.762s-.134.74-.208 1.024c-.069.284-.208.721-.3.977s-.319.782-.508 1.163c-.185.382-.527.982-.753 1.327-.231.344-.591.837-.804 1.093-.212.251-.6.68-.868.95-.268.264-.703.66-.97.874a15 15 0 0 1-.994.735c-.282.186-.725.456-.993.596-.268.144-.642.325-.831.41-.19.083-.546.218-1.225.46h.777c.452 0 .983-.028 1.288-.075a12 12 0 0 0 1.146-.232c.342-.089.864-.256 1.155-.373.29-.116.748-.33 1.016-.47s.693-.4.947-.572c.254-.177.638-.47.855-.66s.55-.517.739-.731c.19-.21.443-.521.564-.693.12-.173.221-.33.221-.359s-.203-.097-.448-.163c-.25-.06-.49-.148-.531-.195-.046-.046-.088-.12-.088-.167-.005-.042 0-.121.005-.173a.36.36 0 0 1 .083-.176c.05-.052.143-.084.263-.08.102 0 .374.052.6.112.227.06.537.158.684.21.148.055.282.14.31.19a.6.6 0 0 1 .046.219c0 .074-.097.293-.217.502-.125.205-.356.55-.522.768a9 9 0 0 1-.74.838c-.24.246-.614.581-.83.749-.218.172-.569.423-.786.567-.217.14-.619.373-.9.517s-.717.344-.97.447a16 16 0 0 1-1.017.34c-.305.088-.813.209-1.132.265-.393.07-.85.111-1.432.125-.628.019-1.003.005-1.409-.051a10 10 0 0 1-1.016-.19 3.4 3.4 0 0 0-.855-.117c-.268 0-.54.037-.855.116a10 10 0 0 1-1.016.191c-.406.056-.78.07-1.409.051a10 10 0 0 1-1.409-.12 15 15 0 0 1-1.062-.243 13 13 0 0 1-.947-.307 12.5 12.5 0 0 1-2.033-1.024 14 14 0 0 1-.785-.567 10 10 0 0 1-.832-.75 9 9 0 0 1-.739-.837 11 11 0 0 1-.522-.767c-.12-.21-.217-.429-.217-.503 0-.07.023-.168.046-.219.028-.05.162-.135.314-.19.143-.052.453-.15.68-.21.23-.06.498-.111.6-.111.12-.005.212.027.263.079a.37.37 0 0 1 .083.176c.005.052.01.13.005.172 0 .047-.041.122-.083.168-.046.047-.287.135-.536.196-.245.065-.448.13-.448.148 0 .024.065.135.148.256.078.126.263.368.41.55.144.18.44.497.662.707.217.214.614.549.877.744.268.2.707.489.984.642.273.154.758.386 1.076.521.32.135.837.317 1.155.4.32.089.776.2 1.017.242.295.056.757.089 2.379.117l-.37-.13a33 33 0 0 1-.693-.266 13 13 0 0 1-.716-.325 13 13 0 0 1-.785-.433 11 11 0 0 1-.832-.55 18 18 0 0 1-.854-.665c-.227-.195-.61-.553-.85-.795s-.624-.67-.85-.954a16 16 0 0 1-.767-1.047c-.19-.293-.467-.763-.61-1.047-.148-.284-.36-.74-.476-1.024a15 15 0 0 1-.365-1.07 12 12 0 0 1-.258-1.14 7 7 0 0 1-.097-.875c0-.26.014-.297.124-.386.116-.088.171-.097.476-.07.19.014.545.06.786.103.24.042.697.149 1.016.237.319.084.845.275 1.178.414.332.14.619.266.647.28.027.013.041-.173.027-.526-.009-.303.01-.8.037-1.108.033-.307.107-.814.167-1.126.064-.316.143-.623.17-.688a.4.4 0 0 1 .2-.168c.11-.042.18-.037.346.028.115.047.397.177.623.298.227.116.656.372.947.567.291.196.767.559 1.57 1.252l.167-.498c.093-.279.296-.772.453-1.107.162-.335.411-.805.564-1.047.147-.242.43-.642.623-.889.199-.246.384-.46.42-.474a.7.7 0 0 1 .176-.033m-.61 1.815c-.088.14-.254.432-.37.651s-.29.605-.392.86c-.106.257-.254.675-.332.931-.08.256-.18.657-.232.885-.05.227-.129.66-.175.953-.06.405-.079.824-.083 1.708v1.168c.235.312.49.689.72 1.033.231.344.569.93.749 1.303.185.372.416.921.517 1.223.102.298.199.545.217.545.023 0 .037-.028.037-.056 0-.033.074-.27.167-.526.092-.256.318-.777.503-1.163a13.5 13.5 0 0 1 1.543-2.42 17 17 0 0 1 1.806-1.819c.19-.153.536-.414.772-.581.23-.163.517-.354.633-.424l.212-.13c.046-.847.046-1.354.028-1.675a10 10 0 0 0-.102-1.024c-.041-.242-.083-.451-.097-.465-.009-.014-.17.056-.35.149-.186.097-.514.297-.735.442-.217.149-.564.4-.763.558a10 10 0 0 0-.692.628l-.333.34c.074.326.134.688.185 1.023.046.335.087.703.087.829 0 .12-.018.26-.046.311a.3.3 0 0 1-.175.13.5.5 0 0 1-.24.01c-.07-.014-.148-.088-.195-.186a.8.8 0 0 1-.083-.312c0-.084-.032-.39-.074-.675a15 15 0 0 0-.25-1.223 13 13 0 0 0-.346-1.163 14 14 0 0 0-.443-1.024 11 11 0 0 0-.633-1.089c-.194-.293-.379-.54-.406-.549s-.148.112-.264.275c-.11.163-.277.41-.365.549m-5.077 2.07c-.032.303-.041.828-.027 1.28.023.665.041.777.11.828.047.033.292.2.546.368s.651.456.877.642c.227.181.592.502.809.707l.392.377c.056-1.2.111-1.82.157-2.155.051-.335.111-.697.14-.814l.045-.21c-.48-.492-.785-.772-.988-.939-.203-.163-.536-.41-.74-.55a12 12 0 0 0-.715-.436c-.19-.103-.37-.191-.398-.191-.027 0-.074.13-.101.288a11 11 0 0 0-.107.805m-4.056 2.536c.079.321.222.791.32 1.047.096.256.253.633.346.837.092.205.31.615.485.908.17.293.452.726.623.954s.453.586.624.79a13 13 0 0 0 1.432 1.42c.217.181.674.526 1.016.758.342.228.924.568 1.294.75.37.186.938.423 1.27.535.333.111.836.25 1.123.311.282.06.577.112.656.112.078 0 .138-.023.138-.06 0-.029-.032-.233-.069-.452a11 11 0 0 0-.19-.837 13 13 0 0 0-.281-.885 16 16 0 0 0-.462-1.046 15 15 0 0 0-.684-1.187 13 13 0 0 0-.776-1.047 17 17 0 0 0-.96-1.023 14 14 0 0 0-1.036-.908c-.254-.19-.67-.479-.924-.642a16 16 0 0 0-1.016-.568 13 13 0 0 0-1.247-.507 11 11 0 0 0-1.192-.325 6 6 0 0 0-.6-.098c-.107 0-.107.01-.07.288.019.163.102.554.18.875m17.758-.726c-.356.121-.896.344-1.201.493a13 13 0 0 0-1.109.629c-.305.2-.73.498-.947.665a15 15 0 0 0-1.917 1.894 16 16 0 0 0-.633.837 11.4 11.4 0 0 0-.984 1.745c-.106.242-.263.633-.342.86a9.4 9.4 0 0 0-.401 1.536c-.037.205-.065.4-.065.428 0 .033.055.06.13.06.069 0 .341-.04.609-.092.268-.056.776-.196 1.132-.316.355-.117.947-.363 1.316-.55.37-.181.952-.52 1.294-.753s.831-.6 1.085-.815c.255-.214.661-.6.901-.851.24-.256.587-.647.762-.87.18-.224.467-.624.638-.884s.466-.777.651-1.15c.19-.372.42-.893.513-1.163.097-.27.231-.716.305-1 .07-.284.143-.652.166-.824l.037-.316a5 5 0 0 0-.785.111c-.277.061-.8.205-1.155.326" clip-rule="evenodd"/><mask id="b" width="199" height="37" x="69.5" y="11" fill="#000" maskUnits="userSpaceOnUse"><path fill="#fff" d="M69.5 11h199v37h-199z"/><path d="M86.623 33.694c2.408 4.204 3.714 5.592 5.306 7.02V41h-6.286v-.286c1.061-1.06.204-2.53-1.388-5.347l-4.367-7.632c-.613.04-1.225.081-1.837.081h-3.796v10.49c0 1.429.286 2.04.898 2.408V41h-5.02v-.286c.612-.367.898-.98.898-2.408V15.163c0-1.47-.286-2.04-.898-2.408v-.326h7.918c6.327 0 12.04 2.367 12.04 7.714 0 3.837-3.06 6.163-7.142 7.102zM78.05 27.49c7.714 0 8.816-4.204 8.816-7.347 0-3.184-1.06-7.388-8.816-7.388h-3.796V27.49zm25.345-6.123c5.469 0 10.204 3.429 10.204 9.062 0 6.53-5.592 10.816-11.061 10.816-5.51 0-10.204-3.347-10.204-9.061 0-6.735 5.591-10.817 11.061-10.817m2.285 19.143c4.654-1.347 5.919-6.449 4.49-11.388-1.428-4.898-5.265-8.367-9.918-7.02s-5.918 6.449-4.49 11.388c1.429 4.898 5.265 8.408 9.918 7.02m28.277-18.816c-1.755 1.796-3.183 3.796-4.694 7.55 0 0-3.265 8.123-4.734 11.756-1.47 3.673-3.306 6.735-6.531 6.735-2.204 0-3.796-1.02-4.816-2.898l3.183-2.898.245.204c-.408 2.286.041 5.428 2.286 5.184 2.122-.245 3.796-2.94 5.143-5.96l-5.225-12.285c-1.714-4-2.571-5.756-4.53-7.388v-.327h6.245v.327c-1.021 1.102-.694 2.204.245 4.49l4.857 11.347 3.347-8.327c1.51-3.755 2-6 .163-7.51v-.327h4.816zm16.958 19.02V41h-4.122v-5.714c-1.061 3.592-3.306 5.959-7.224 5.959-3.347 0-6.613-1.592-7.143-4.53-.694-4.164 1.796-6.613 4.938-7.92-1.061-2.366.205-7.428 5.674-7.428 3.388 0 6.979 1.796 6.979 6.817v10.122c0 1.429.286 2.04.898 2.408m-8.244-18.938c-3.674 0-6.123 3.55-4.898 6.857 2.204-.817 4.653-1.102 6.571-1.102.939 0 1.755.163 2.449.367v-.286c0-3.102-1.224-5.836-4.122-5.836m-2.123 18.938c3.551-.204 5.429-3.224 6.245-6.163v-6.286c-.204-.081-1.184-.367-2.449-.367-4.449 0-10.49 2.204-8.735 9.388.531 2.204 2.898 3.55 4.939 3.428m17.332-2.408c0 1.429.285 2.04.898 2.408V41h-5.021v-.286c.613-.367.898-.98.898-2.408V14.714c0-1.428-.122-1.836-.898-1.959v-.326l3.837-.858h.286zm15.525-26.286c3.142 0 6.571 1.96 8.979 3.837l-1.224 4.245h-.286c-2.327-5.47-5.306-7.551-8.531-7.551-4.04 0-6.367 2.286-6.612 4.735-.775 8.163 16.735 5.47 16.735 15.673 0 4.857-4.368 8.286-10.163 8.286-4.858 0-7.878-1.633-11.062-4.04l1.225-4.654h.286c2.081 4.163 5.877 7.878 11.224 7.878 3.469 0 6.367-2.245 6.694-4.817 1.061-8.694-16.49-5.918-16.49-16.163 0-3.306 2.653-7.429 9.225-7.429m30.942 28.694V41h-4.164v-9.918c-.53 4.612-1.918 10.163-7.224 10.163-3.755 0-6.735-2.367-6.735-7.184v-9.55c0-1.43-.122-1.837-.898-1.96v-.286l3.837-.898h.286v13.306c0 3.551 1.836 6.49 5.347 5.837 4.571-.898 5.387-9.428 5.387-12.857V24.51c0-1.428-.122-1.837-.898-1.959v-.286l3.837-.898h.286v16.94c0 1.428.286 2.04.939 2.407m6.985-2.408c0 1.429.285 2.04.938 2.408V41h-5.061v-.286c.612-.367.898-.98.898-2.408V24.51c0-1.428-.122-1.837-.898-1.959v-.286l3.837-.898h.286zm-1.715-20.245a1.916 1.916 0 0 1-1.918-1.918c0-1.061.857-1.918 1.918-1.918 1.062 0 1.919.857 1.919 1.918a1.916 1.916 0 0 1-1.919 1.918m19.973 15.715.204.081c-.775 3.837-2.49 7.388-6.775 7.388-3.633 0-5.878-2.367-5.878-7.184V21.694h-2.408v-.327c3.469 0 3.755-3.632 3.755-5.592h3.225c0 3.143-3.102 5.47-5.551 5.592h9.02v.327h-4.816v12.98c0 3.55.979 6.285 4.449 5.836 2.694-.367 4.041-3.592 4.775-6.734m15.536-5.96c2.327.613 4.449 2.98 4.123 6.694-.245 2.898-2.817 6.735-8.613 6.735-5.632 0-11.061-2.776-11.224-9.51-.204-7.061 6.204-10.123 10.694-10.368 3.469-.163 8.245 1.51 8.816 6.45zm-6.857-5.959c-2.775.53-4.571 2.857-5.306 5.633h13.02c-.53-3.551-3.714-6.408-7.714-5.633m10.612 12.735c.49-4.245-2.326-6.776-5.428-6.776h-10.572c-.53 2.164-.408 4.572.286 6.53 1.51 4.287 4.571 6.164 8.735 6 3.51-.162 6.571-2.57 6.979-5.754m11.137-13.225c2.123 0 4.898 1.347 6.531 2.613l-.817 3.755h-.204c-1.265-3.47-3.877-6-6.204-6-2.775 0-4.326 1.55-4.53 3.224-.572 5.47 13.183 4 12.734 10.653-.245 3.225-3.265 5.633-7.836 5.633-3.307 0-5.755-1.102-7.96-2.735l.858-4.081h.204c1.387 2.857 4.449 6.244 8.081 6.244 2.939 0 5.143-1.51 5.388-3.265.776-5.347-13.469-2.98-12.49-10.98.327-2.652 1.796-5.06 6.245-5.06"/></mask><path fill="#c88c00" d="M86.623 33.694c2.408 4.204 3.714 5.592 5.306 7.02V41h-6.286v-.286c1.061-1.06.204-2.53-1.388-5.347l-4.367-7.632c-.613.04-1.225.081-1.837.081h-3.796v10.49c0 1.429.286 2.04.898 2.408V41h-5.02v-.286c.612-.367.898-.98.898-2.408V15.163c0-1.47-.286-2.04-.898-2.408v-.326h7.918c6.327 0 12.04 2.367 12.04 7.714 0 3.837-3.06 6.163-7.142 7.102zM78.05 27.49c7.714 0 8.816-4.204 8.816-7.347 0-3.184-1.06-7.388-8.816-7.388h-3.796V27.49zm25.345-6.123c5.469 0 10.204 3.429 10.204 9.062 0 6.53-5.592 10.816-11.061 10.816-5.51 0-10.204-3.347-10.204-9.061 0-6.735 5.591-10.817 11.061-10.817m2.285 19.143c4.654-1.347 5.919-6.449 4.49-11.388-1.428-4.898-5.265-8.367-9.918-7.02s-5.918 6.449-4.49 11.388c1.429 4.898 5.265 8.408 9.918 7.02m28.277-18.816c-1.755 1.796-3.183 3.796-4.694 7.55 0 0-3.265 8.123-4.734 11.756-1.47 3.673-3.306 6.735-6.531 6.735-2.204 0-3.796-1.02-4.816-2.898l3.183-2.898.245.204c-.408 2.286.041 5.428 2.286 5.184 2.122-.245 3.796-2.94 5.143-5.96l-5.225-12.285c-1.714-4-2.571-5.756-4.53-7.388v-.327h6.245v.327c-1.021 1.102-.694 2.204.245 4.49l4.857 11.347 3.347-8.327c1.51-3.755 2-6 .163-7.51v-.327h4.816zm16.958 19.02V41h-4.122v-5.714c-1.061 3.592-3.306 5.959-7.224 5.959-3.347 0-6.613-1.592-7.143-4.53-.694-4.164 1.796-6.613 4.938-7.92-1.061-2.366.205-7.428 5.674-7.428 3.388 0 6.979 1.796 6.979 6.817v10.122c0 1.429.286 2.04.898 2.408m-8.244-18.938c-3.674 0-6.123 3.55-4.898 6.857 2.204-.817 4.653-1.102 6.571-1.102.939 0 1.755.163 2.449.367v-.286c0-3.102-1.224-5.836-4.122-5.836m-2.123 18.938c3.551-.204 5.429-3.224 6.245-6.163v-6.286c-.204-.081-1.184-.367-2.449-.367-4.449 0-10.49 2.204-8.735 9.388.531 2.204 2.898 3.55 4.939 3.428m17.332-2.408c0 1.429.285 2.04.898 2.408V41h-5.021v-.286c.613-.367.898-.98.898-2.408V14.714c0-1.428-.122-1.836-.898-1.959v-.326l3.837-.858h.286zm15.525-26.286c3.142 0 6.571 1.96 8.979 3.837l-1.224 4.245h-.286c-2.327-5.47-5.306-7.551-8.531-7.551-4.04 0-6.367 2.286-6.612 4.735-.775 8.163 16.735 5.47 16.735 15.673 0 4.857-4.368 8.286-10.163 8.286-4.858 0-7.878-1.633-11.062-4.04l1.225-4.654h.286c2.081 4.163 5.877 7.878 11.224 7.878 3.469 0 6.367-2.245 6.694-4.817 1.061-8.694-16.49-5.918-16.49-16.163 0-3.306 2.653-7.429 9.225-7.429m30.942 28.694V41h-4.164v-9.918c-.53 4.612-1.918 10.163-7.224 10.163-3.755 0-6.735-2.367-6.735-7.184v-9.55c0-1.43-.122-1.837-.898-1.96v-.286l3.837-.898h.286v13.306c0 3.551 1.836 6.49 5.347 5.837 4.571-.898 5.387-9.428 5.387-12.857V24.51c0-1.428-.122-1.837-.898-1.959v-.286l3.837-.898h.286v16.94c0 1.428.286 2.04.939 2.407m6.985-2.408c0 1.429.285 2.04.938 2.408V41h-5.061v-.286c.612-.367.898-.98.898-2.408V24.51c0-1.428-.122-1.837-.898-1.959v-.286l3.837-.898h.286zm-1.715-20.245a1.916 1.916 0 0 1-1.918-1.918c0-1.061.857-1.918 1.918-1.918 1.062 0 1.919.857 1.919 1.918a1.916 1.916 0 0 1-1.919 1.918m19.973 15.715.204.081c-.775 3.837-2.49 7.388-6.775 7.388-3.633 0-5.878-2.367-5.878-7.184V21.694h-2.408v-.327c3.469 0 3.755-3.632 3.755-5.592h3.225c0 3.143-3.102 5.47-5.551 5.592h9.02v.327h-4.816v12.98c0 3.55.979 6.285 4.449 5.836 2.694-.367 4.041-3.592 4.775-6.734m15.536-5.96c2.327.613 4.449 2.98 4.123 6.694-.245 2.898-2.817 6.735-8.613 6.735-5.632 0-11.061-2.776-11.224-9.51-.204-7.061 6.204-10.123 10.694-10.368 3.469-.163 8.245 1.51 8.816 6.45zm-6.857-5.959c-2.775.53-4.571 2.857-5.306 5.633h13.02c-.53-3.551-3.714-6.408-7.714-5.633m10.612 12.735c.49-4.245-2.326-6.776-5.428-6.776h-10.572c-.53 2.164-.408 4.572.286 6.53 1.51 4.287 4.571 6.164 8.735 6 3.51-.162 6.571-2.57 6.979-5.754m11.137-13.225c2.123 0 4.898 1.347 6.531 2.613l-.817 3.755h-.204c-1.265-3.47-3.877-6-6.204-6-2.775 0-4.326 1.55-4.53 3.224-.572 5.47 13.183 4 12.734 10.653-.245 3.225-3.265 5.633-7.836 5.633-3.307 0-5.755-1.102-7.96-2.735l.858-4.081h.204c1.387 2.857 4.449 6.244 8.081 6.244 2.939 0 5.143-1.51 5.388-3.265.776-5.347-13.469-2.98-12.49-10.98.327-2.652 1.796-5.06 6.245-5.06"/><path fill="#c88c00" d="m86.622 33.694-.206.118zm5.307 7.02h.237v-.106l-.078-.07zm0 .286v.238h.237V41zm-6.286 0h-.238v.238h.238zm0-.286-.168-.168-.07.07v.098zm-1.388-5.347.207-.117zm-4.367-7.632.206-.119-.074-.129-.148.01zm-5.633.081v-.238h-.238v.238zm.898 12.898h.238v-.134l-.116-.07zm0 .286v.238h.238V41zm-5.02 0h-.238v.238h.238zm0-.286-.123-.204-.115.07v.134zm0-27.959h-.238v.135l.115.07zm0-.326v-.238h-.238v.238zm12.816 14.816-.053-.232-.312.072.158.278zm-8.694-14.49v-.238h-.238v.238zm0 14.735h-.238v.238h.238zm12.367 6.204-.206.118c2.419 4.222 3.74 5.631 5.354 7.08l.159-.178.159-.177c-1.57-1.409-2.861-2.775-5.26-6.961zm5.307 7.02h-.238V41h.475v-.286zm0 .286v-.238h-6.286v.476h6.286zm-6.286 0h.238v-.286h-.476V41zm0-.286.168.169c.3-.3.471-.638.522-1.025.051-.38-.017-.79-.163-1.233-.29-.88-.918-1.977-1.708-3.375l-.207.117-.207.117c.802 1.42 1.398 2.465 1.67 3.29.134.407.181.74.144 1.022a1.26 1.26 0 0 1-.387.75zm-1.388-5.347.207-.118-4.368-7.633-.206.119-.207.118 4.368 7.633zm-4.367-7.632-.016-.238c-.614.041-1.218.081-1.821.081v.476c.621 0 1.242-.041 1.853-.082zm-1.837.081v-.238h-3.796v.476h3.796zm-3.796 0h-.238v10.49h.476v-10.49zm0 10.49h-.238c0 .726.072 1.27.236 1.689.168.429.429.714.778.923l.122-.204.122-.204a1.3 1.3 0 0 1-.579-.689c-.132-.337-.203-.812-.203-1.515zm.898 2.408h-.238V41h.476v-.285zm0 .286v-.238h-5.02v.476h5.02zm-5.02 0h.238v-.285h-.476V41zm0-.286.122.204c.349-.209.61-.494.778-.923.164-.418.236-.963.236-1.689h-.476c0 .703-.071 1.178-.203 1.515a1.3 1.3 0 0 1-.58.69zm.898-2.408h.237V15.163h-.475v23.143zm0-23.143h.237c0-.745-.071-1.29-.236-1.705a1.77 1.77 0 0 0-.777-.907l-.122.204-.123.204c.267.16.454.356.58.675.132.33.203.805.203 1.53zm-.898-2.408h.238v-.326h-.476v.326zm0-.326v.237h7.918v-.475h-7.918zm7.918 0v.237c3.139 0 6.104.589 8.275 1.822 2.162 1.227 3.528 3.085 3.528 5.655h.476c0-2.777-1.492-4.776-3.769-6.07-2.267-1.287-5.322-1.882-8.51-1.882zm12.04 7.714h-.237c0 3.67-2.919 5.941-6.958 6.87l.053.232.053.232c4.124-.949 7.328-3.33 7.328-7.334zm-7.142 7.102-.207.118 3.674 6.449.206-.118.207-.118-3.673-6.449zm-4.898.245v.238c3.899 0 6.181-1.064 7.481-2.578 1.295-1.508 1.573-3.414 1.573-5.007h-.476c0 1.55-.273 3.317-1.458 4.697-1.179 1.373-3.305 2.412-7.12 2.412zm8.816-7.347h.238c0-1.612-.267-3.529-1.557-5.042-1.295-1.52-3.578-2.584-7.497-2.584v.476c3.836 0 5.962 1.039 7.135 2.416 1.18 1.385 1.443 3.162 1.443 4.734zm-8.816-7.388v-.238h-3.796v.476h3.796zm-3.796 0h-.238V27.49h.476V12.755zm0 14.735v.238h3.796v-.476h-3.796zm31.426 13.02-.066-.228h-.002zm4.49-11.388.229-.066zm-9.918-7.02-.066-.229zm-4.49 11.388-.229.066zm7.633-12.123v.238c5.379 0 9.966 3.36 9.966 8.824h.476c0-5.803-4.883-9.3-10.442-9.3zM113.6 30.43h-.238c0 6.377-5.463 10.578-10.823 10.578v.476c5.578 0 11.299-4.371 11.299-11.054zm-11.061 10.816v-.238c-2.71 0-5.204-.823-7.017-2.333-1.808-1.506-2.95-3.705-2.95-6.49h-.475c0 2.928 1.205 5.26 3.121 6.856 1.912 1.592 4.52 2.443 7.321 2.443zm-10.204-9.061h.237c0-6.58 5.46-10.579 10.824-10.579v-.476c-5.576 0-11.3 4.164-11.3 11.055zm13.346 8.326.067.229c2.408-.697 3.942-2.371 4.684-4.497.739-2.119.692-4.68-.032-7.186l-.229.066-.228.067c.704 2.433.739 4.892.039 6.896-.696 1.996-2.122 3.547-4.367 4.197zm4.49-11.388.229-.066c-.726-2.486-2.066-4.626-3.834-5.975-1.775-1.353-3.975-1.904-6.379-1.207l.066.228.066.229c2.248-.651 4.294-.14 5.958 1.129 1.67 1.273 2.962 3.317 3.666 5.73zm-9.918-7.02-.066-.229c-2.409.698-3.942 2.372-4.684 4.498-.74 2.118-.693 4.68.031 7.185l.23-.066.228-.066c-.704-2.434-.74-4.892-.04-6.897.697-1.996 2.122-3.547 4.367-4.196zm-4.49 11.388-.228.066c.725 2.486 2.065 4.636 3.833 5.99 1.775 1.359 3.976 1.91 6.381 1.192l-.068-.228-.068-.228c-2.247.67-4.291.16-5.955-1.114-1.67-1.279-2.963-3.333-3.666-5.745zm38.195-11.796.17.166.068-.07v-.096zm-4.694 7.55-.22-.088zM124.53 41l-.221-.09v.002zm-11.347 3.837-.16-.176-.138.125.089.164zm3.183-2.898.153-.183-.16-.133-.153.14zm.245.204.235.042.024-.136-.106-.089zm2.286 5.184.026.236h.001zm5.143-5.96.217.097.042-.094-.04-.096zm-5.225-12.285.219-.094zm-4.53-7.388h-.238v.111l.085.072zm0-.327v-.238h-.238v.238zm6.245 0h.238v-.238h-.238zm0 .327.174.162.064-.069v-.093zm.245 4.49-.221.09.002.003zm4.857 11.347-.219.093.226.527.213-.532zm3.347-8.327-.221-.089zm.163-7.51h-.238v.112l.087.072zm0-.327v-.238h-.238v.238zm4.816 0h.238v-.238h-.238zm0 .327-.17-.166c-1.779 1.82-3.224 3.847-4.744 7.628l.22.089.221.089c1.5-3.729 2.912-5.702 4.643-7.474zm-4.694 7.55-.22-.088h-.001v.002l-.002.004-.007.018-.027.068-.107.264-.39.97a10582 10582 0 0 1-4.201 10.429l.221.089.22.09a4959 4959 0 0 0 4.202-10.43l.39-.97.106-.264.028-.069.007-.017.002-.005v-.001zM124.53 41l-.221-.088c-.733 1.83-1.548 3.485-2.567 4.678-1.015 1.188-2.219 1.907-3.743 1.907v.476c1.7 0 3.027-.812 4.104-2.074 1.072-1.255 1.911-2.968 2.648-4.81zm-6.531 6.735v-.238c-2.112 0-3.626-.969-4.607-2.774l-.209.114-.209.113c1.06 1.95 2.729 3.023 5.025 3.023zm-4.816-2.898.16.176 3.184-2.898-.161-.176-.16-.176-3.183 2.898zm3.183-2.898-.152.183.245.204.152-.183.153-.183-.245-.204zm.245.204-.234-.042c-.209 1.169-.202 2.568.156 3.657.179.546.453 1.031.849 1.365.403.34.918.508 1.541.44l-.026-.236-.026-.237c-.499.054-.883-.078-1.182-.33-.307-.259-.541-.655-.704-1.15-.326-.993-.339-2.308-.139-3.425zm2.286 5.184.027.236c1.155-.133 2.155-.928 3.022-2.028.87-1.105 1.635-2.554 2.311-4.07l-.217-.098-.217-.097c-.671 1.504-1.417 2.912-2.251 3.97-.837 1.063-1.735 1.738-2.702 1.85zm5.143-5.96.219-.093-5.225-12.286-.219.094-.219.093 5.225 12.286zm-5.225-12.285.219-.094c-1.712-3.995-2.588-5.803-4.597-7.477l-.152.183-.153.183c1.91 1.59 2.748 3.293 4.465 7.298zm-4.53-7.388h.238v-.327h-.476v.327zm0-.327v.238h6.245v-.476h-6.245zm6.245 0h-.238v.327h.476v-.327zm0 .327-.175-.162c-.557.601-.753 1.22-.674 1.987.075.74.407 1.619.873 2.755l.221-.09.22-.09c-.472-1.15-.774-1.965-.841-2.623-.064-.631.086-1.115.55-1.616zm.245 4.49-.219.093 4.857 11.347.219-.093.218-.094-4.857-11.347zm4.857 11.347.22.088 3.347-8.326-.22-.089-.221-.089-3.347 8.327zm3.347-8.327.22.089c.755-1.876 1.269-3.408 1.354-4.67.086-1.283-.273-2.302-1.26-3.113l-.151.184-.151.184c.85.698 1.164 1.558 1.087 2.713-.079 1.177-.564 2.645-1.32 4.524zm.163-7.51h.238v-.327h-.476v.327zm0-.327v.238h4.816v-.476h-4.816zm4.816 0h-.238v.327h.476v-.327zm16.958 19.347h.238v-.134l-.115-.07zm0 .286v.238h.238V41zm-4.122 0h-.238v.238h.238zm0-5.714h.238l-.466-.068zm-14.367 1.428-.235.04.001.003zm4.938-7.918.092.22.226-.094-.1-.223zm.409-.163-.224.082.083.223.223-.082zm9.02-.735-.067.228.305.09v-.318zm-6.245 12.816-.014-.237zm6.245-6.163.229.064.009-.032v-.032zm0-6.286h.238v-.16l-.15-.06zm-11.184 9.02.232-.055h-.001zm15.306 3.43h-.237V41h.475v-.285zm0 .285v-.238h-4.122v.476h4.122zm-4.122 0h.238v-5.714h-.476V41zm0-5.714-.228-.068c-.522 1.768-1.33 3.213-2.47 4.216-1.136.998-2.619 1.573-4.526 1.573v.476c2.01 0 3.609-.61 4.84-1.692 1.228-1.08 2.073-2.614 2.612-4.438zm-7.224 5.959v-.238c-1.639 0-3.249-.39-4.507-1.13s-2.152-1.82-2.402-3.205l-.234.042-.234.043c.28 1.553 1.283 2.738 2.628 3.53 1.344.79 3.04 1.196 4.749 1.196zm-7.143-4.53.234-.04c-.337-2.023.1-3.611.99-4.853.894-1.248 2.26-2.164 3.806-2.806l-.092-.22-.091-.22c-1.597.664-3.047 1.625-4.01 2.97-.968 1.35-1.429 3.067-1.072 5.207zm4.938-7.92.218-.096c-.497-1.108-.457-2.886.378-4.39.825-1.485 2.429-2.704 5.078-2.704v-.476c-2.821 0-4.584 1.312-5.494 2.95-.899 1.618-.961 3.554-.397 4.814zm5.674-7.428v.238c1.656 0 3.342.44 4.61 1.472 1.259 1.026 2.132 2.66 2.132 5.107h.475c0-2.573-.923-4.349-2.307-5.476-1.375-1.12-3.178-1.579-4.91-1.579zm6.979 6.817h-.237v10.122h.475V28.184zm0 10.122h-.237c0 .726.071 1.27.235 1.689.168.429.429.714.778.923l.122-.204.123-.204a1.32 1.32 0 0 1-.58-.689c-.132-.337-.203-.812-.203-1.515zm-7.346-16.53v-.238c-3.836 0-6.405 3.712-5.122 7.177l.224-.082.223-.083c-1.166-3.147 1.163-6.537 4.675-6.537zm-4.898 6.857.082.223c2.171-.804 4.59-1.088 6.489-1.088v-.475c-1.938 0-4.417.288-6.654 1.117zm6.571-1.102v.238a8.4 8.4 0 0 1 2.382.357l.067-.228.067-.228a8.8 8.8 0 0 0-2.516-.377zm2.449.367h.238v-.286h-.476v.286zm0-.286h.238c0-1.577-.31-3.085-1.011-4.207-.707-1.135-1.811-1.867-3.349-1.867v.475c1.359 0 2.316.635 2.946 1.643.636 1.021.938 2.431.938 3.956zm-6.245 13.102.014.238c3.71-.213 5.636-3.37 6.46-6.337l-.229-.064-.229-.064c-.809 2.911-2.638 5.795-6.03 5.99zm6.245-6.163h.238v-6.286h-.476v6.286zm0-6.286.088-.22c-.232-.094-1.242-.385-2.537-.385v.476c1.236 0 2.185.28 2.361.35zm-2.449-.367v-.238c-2.254 0-4.936.557-6.841 2.05-.956.75-1.716 1.738-2.122 3.006s-.45 2.797-.003 4.626l.231-.056.231-.057c-.43-1.762-.378-3.201-.005-4.368.372-1.166 1.071-2.077 1.962-2.776 1.789-1.404 4.352-1.95 6.547-1.95zm-8.735 9.388-.231.055c.563 2.34 3.053 3.739 5.184 3.61l-.014-.237-.014-.237c-1.951.117-4.195-1.178-4.693-3.247zm23.169 3.428h.238v-.134l-.116-.07zm0 .286v.238h.238V41zm-5.021 0h-.238v.238h.238zm0-.286-.122-.204-.116.07v.134zm0-27.959h-.238v.203l.201.032zm0-.326-.052-.233-.186.042v.19zm3.837-.858v-.237h-.026l-.026.005zm.286 0h.238v-.237h-.238zm0 26.735h-.238c0 .726.072 1.27.236 1.689.168.429.428.714.777.923l.123-.204.122-.204a1.3 1.3 0 0 1-.579-.689c-.132-.337-.203-.812-.203-1.515zm.898 2.408h-.238V41h.476v-.285zm0 .286v-.238h-5.021v.476h5.021zm-5.021 0h.238v-.285h-.476V41zm0-.286.123.204c.349-.209.609-.494.777-.923.164-.418.236-.963.236-1.689h-.476c0 .703-.071 1.178-.203 1.515a1.3 1.3 0 0 1-.579.69zm.898-2.408h.238V14.714h-.476v23.592zm0-23.592h.238c0-.703-.027-1.214-.177-1.563a.96.96 0 0 0-.362-.439 1.4 1.4 0 0 0-.56-.192l-.037.235-.037.235c.177.028.294.07.376.122.076.05.135.117.183.227.104.243.138.65.138 1.375zm-.898-1.959h.238v-.326h-.476v.326zm0-.326.052.232 3.837-.857-.052-.233-.052-.232-3.837.857zm3.837-.858v.238h.286v-.475h-.286zm.286 0h-.238v26.735h.476V11.571zm24.504 4.286.229.066.044-.155-.127-.099zm-1.224 4.245v.238h.179l.049-.172zm-.286 0-.219.093.062.145h.157zm-15.143-2.816-.237-.024v.001zm-4.49 19.918-.23-.06-.04.154.127.096zm1.225-4.653v-.238h-.184l-.046.177zm.286 0 .212-.106-.065-.132h-.147zm17.918 3.061.236.03zm-7.265-23.592v.238c3.059 0 6.434 1.917 8.833 3.787l.146-.188.146-.187c-2.417-1.886-5.9-3.887-9.125-3.887zm8.979 3.837-.228-.066-1.225 4.245.229.066.228.066 1.225-4.245zm-1.224 4.245v-.238h-.286v.476h.286zm-.286 0 .219-.093c-2.346-5.515-5.391-7.696-8.75-7.696v.476c3.09 0 6.005 1.982 8.312 7.406zm-8.531-7.551v-.238c-4.132 0-6.589 2.35-6.849 4.949l.237.024.237.023c.23-2.298 2.426-4.52 6.375-4.52zm-6.612 4.735-.237-.023c-.101 1.065.096 1.964.526 2.737.427.77 1.078 1.399 1.864 1.94 1.562 1.075 3.713 1.834 5.839 2.64 2.145.812 4.274 1.676 5.87 2.959 1.582 1.272 2.635 2.952 2.635 5.42h.476c0-2.634-1.136-4.443-2.813-5.791-1.663-1.337-3.863-2.224-5.999-3.033-2.155-.817-4.236-1.553-5.738-2.587-.747-.514-1.337-1.093-1.719-1.78-.379-.682-.56-1.484-.467-2.46zm16.735 15.673h-.238c0 4.68-4.21 8.048-9.925 8.048v.476c5.876 0 10.401-3.49 10.401-8.524zm-10.163 8.286v-.238c-4.788 0-7.759-1.603-10.918-3.993l-.144.19-.143.19c3.208 2.426 6.278 4.089 11.205 4.089zm-11.062-4.04.23.06 1.225-4.653-.23-.061-.23-.06-1.225 4.653zm1.225-4.654v.238h.286v-.476h-.286zm.286 0-.213.106c2.103 4.207 5.965 8.01 11.437 8.01v-.476c-5.221 0-8.952-3.626-11.012-7.746zm11.224 7.878v.237c3.55 0 6.584-2.299 6.93-5.024l-.236-.03-.236-.03c-.307 2.418-3.07 4.609-6.458 4.609zm6.694-4.817.236.03c.138-1.128-.026-2.083-.426-2.904s-1.027-1.492-1.796-2.069c-1.528-1.146-3.659-1.947-5.774-2.778-2.133-.839-4.259-1.712-5.855-3.002-1.582-1.279-2.637-2.962-2.637-5.44h-.476c0 2.644 1.139 4.456 2.814 5.81 1.662 1.343 3.858 2.24 5.98 3.075 2.14.841 4.198 1.617 5.662 2.716.728.546 1.297 1.163 1.654 1.896.356.73.509 1.591.382 2.637zm-16.49-16.163h.238c0-1.592.639-3.386 2.076-4.784 1.434-1.394 3.677-2.407 6.911-2.407v-.475c-3.338 0-5.707 1.048-7.243 2.541-1.533 1.491-2.22 3.41-2.22 5.125zm40.167 21.265h.237v-.139l-.121-.068zm0 .286v.238h.237V41zm-4.164 0h-.238v.238h.238zm0-9.918h.238l-.474-.028zm-14.857-8.531h-.238v.203l.201.032zm0-.286-.054-.231-.184.043v.188zm3.837-.898v-.238h-.028l-.026.007zm.286 0h.238v-.238h-.238zm5.347 19.143.043.234h.002zm4.489-17.959h-.238v.203l.201.032zm0-.286-.054-.231-.184.043v.188zm3.837-.898v-.238h-.027l-.027.007zm.286 0h.238v-.238h-.238zm.939 19.347h-.238V41h.475v-.285zm0 .286v-.238h-4.164v.476h4.164zm-4.164 0h.238v-9.918h-.476V41zm0-9.918-.236-.028c-.265 2.301-.741 4.803-1.794 6.725-1.045 1.906-2.647 3.228-5.194 3.228v.476c2.759 0 4.504-1.454 5.612-3.476 1.099-2.007 1.583-4.587 1.849-6.898zm-7.224 10.163v-.238c-1.828 0-3.447-.576-4.609-1.718-1.16-1.14-1.888-2.87-1.888-5.228h-.476c0 2.459.762 4.32 2.031 5.568 1.267 1.246 3.015 1.854 4.942 1.854zm-6.735-7.184h.238v-9.55h-.476v9.55zm0-9.55h.238c0-.704-.027-1.215-.178-1.564a.95.95 0 0 0-.361-.439 1.4 1.4 0 0 0-.56-.192l-.037.235-.037.235c.177.028.294.07.376.122.076.05.135.117.182.227.105.243.139.65.139 1.375zm-.898-1.96h.238v-.285h-.476v.285zm0-.286.054.232 3.837-.898-.054-.232-.054-.231-3.837.898zm3.837-.898v.238h.286v-.476h-.286zm.286 0h-.238v13.306h.476V21.368zm0 13.306h-.238c0 1.811.467 3.493 1.411 4.646.954 1.166 2.379 1.767 4.217 1.425l-.043-.234-.044-.234c-1.672.311-2.92-.23-3.762-1.258-.853-1.042-1.303-2.604-1.303-4.345zm5.347 5.837.045.234c1.218-.24 2.173-.986 2.917-1.999.742-1.01 1.282-2.297 1.674-3.648.784-2.703.989-5.717.989-7.444h-.476c0 1.702-.203 4.667-.97 7.311-.383 1.322-.904 2.551-1.601 3.5-.695.946-1.556 1.603-2.624 1.813zm5.387-12.857h.238V24.51h-.476v3.143zm0-3.143h.238c0-.703-.027-1.214-.177-1.563a.96.96 0 0 0-.362-.439 1.4 1.4 0 0 0-.56-.192l-.037.235-.037.235c.177.028.294.07.376.122.076.05.135.117.183.227.104.243.138.65.138 1.375zm-.898-1.959h.238v-.285h-.476v.285zm0-.286.055.232 3.836-.898-.054-.232-.054-.231-3.837.898zm3.837-.898v.238h.286v-.476h-.286zm.286 0h-.238v16.94h.476v-16.94zm0 16.94h-.238c0 .724.072 1.27.242 1.69.175.432.448.717.818.925l.117-.208.116-.207a1.3 1.3 0 0 1-.61-.688c-.136-.336-.207-.81-.207-1.513zm8.862 2.407h.238v-.139l-.121-.068zm0 .286v.238h.238V41zm-5.061 0h-.238v.238h.238zm0-.286-.122-.204-.116.07v.134zm0-18.163h-.238v.203l.201.032zm0-.286-.054-.231-.184.043v.188zm3.837-.898v-.238h-.028l-.026.007zm.286 0h.238v-.238h-.238zm0 16.94h-.238c0 .724.071 1.27.242 1.69.174.432.448.717.818.925l.116-.208.117-.207a1.3 1.3 0 0 1-.61-.688c-.136-.336-.207-.81-.207-1.513zm.938 2.407h-.238V41h.476v-.285zm0 .286v-.238h-5.061v.476h5.061zm-5.061 0h.238v-.285h-.476V41zm0-.286.123.204a1.8 1.8 0 0 0 .777-.923c.164-.418.236-.963.236-1.689h-.476c0 .703-.071 1.178-.203 1.515a1.32 1.32 0 0 1-.579.69zm.898-2.408h.238V24.51h-.476v13.796zm0-13.796h.238c0-.703-.027-1.214-.178-1.563a.95.95 0 0 0-.361-.439 1.4 1.4 0 0 0-.56-.192l-.037.235-.037.235c.177.028.294.07.376.122.076.05.135.117.182.227.105.243.139.65.139 1.375zm-.898-1.959h.238v-.285h-.476v.285zm0-.286.054.232 3.837-.898-.054-.232-.054-.231-3.837.898zm3.837-.898v.238h.286v-.476h-.286zm.286 0h-.238v16.94h.476v-16.94zm-1.715-3.306v-.238c-.93 0-1.68-.75-1.68-1.68h-.476c0 1.192.964 2.156 2.156 2.156zm-1.918-1.918h.238c0-.93.75-1.68 1.68-1.68v-.476a2.154 2.154 0 0 0-2.156 2.156zm1.918-1.918v.237c.93 0 1.681.751 1.681 1.68h.476a2.154 2.154 0 0 0-2.157-2.155zm1.919 1.918h-.238c0 .93-.751 1.68-1.681 1.68v.476a2.154 2.154 0 0 0 2.157-2.156zm18.054 17.633.089-.221-.257-.103-.063.27zm.204.081.233.047.04-.194-.184-.074zm-12.653-12.163h.238v-.238h-.238zm-2.408 0h-.238v.238h.238zm0-.327v-.238h-.238v.238zm3.755-5.592v-.237h-.238v.237zm3.225 0h.238v-.237h-.238zm-5.551 5.592-.012-.237.012.475zm9.02 0h.238v-.238h-.238zm0 .327v.238h.238v-.238zm-4.816 0v-.238h-.238v.238zm4.449 18.816.03.236h.002zm4.775-6.734-.088.22.204.082.088-.22.089-.222-.204-.081zm.204.081-.233-.047c-.385 1.905-.998 3.71-2.026 5.034-1.019 1.313-2.452 2.163-4.516 2.163v.476c2.221 0 3.788-.926 4.892-2.347 1.094-1.41 1.726-3.3 2.116-5.232zm-6.775 7.388v-.238c-1.762 0-3.159-.572-4.12-1.702-.966-1.136-1.52-2.869-1.52-5.244h-.476c0 2.442.569 4.3 1.634 5.552 1.069 1.258 2.611 1.87 4.482 1.87zm-5.878-7.184h.238V21.694h-.476V34.06zm0-12.367v-.238h-2.408v.476h2.408zm-2.408 0h.238v-.327h-.476v.327zm0-.327v.238c.911 0 1.63-.24 2.19-.643.557-.402.942-.956 1.207-1.56.526-1.202.596-2.643.596-3.627h-.476c0 .976-.072 2.331-.556 3.436-.241.548-.578 1.025-1.05 1.365-.469.339-1.087.553-1.911.553zm3.755-5.592v.238h3.225v-.475h-3.225zm3.225 0h-.238c0 1.49-.735 2.797-1.78 3.754-1.047.958-2.384 1.543-3.545 1.6l.012.238.012.238c1.288-.064 2.726-.704 3.842-1.725 1.118-1.024 1.935-2.451 1.935-4.104zm-5.551 5.592v.238h9.02v-.476h-9.02zm9.02 0h-.238v.327h.476v-.327zm0 .327v-.238h-4.816v.476h4.816zm-4.816 0h-.238v12.98h.476v-12.98zm0 12.98h-.238c0 1.786.244 3.415.96 4.545.362.571.845 1.017 1.474 1.287.628.269 1.384.356 2.283.24l-.03-.236-.031-.236c-.836.108-1.502.023-2.034-.206-.53-.227-.943-.603-1.26-1.103-.641-1.013-.886-2.527-.886-4.292zm4.449 5.836.032.236c1.444-.197 2.507-1.16 3.293-2.438.785-1.277 1.312-2.897 1.682-4.478l-.232-.054-.231-.055c-.366 1.562-.879 3.125-1.625 4.338-.745 1.212-1.702 2.045-2.951 2.216zm20.311-12.694v-.238l-.06.468zm4.123 6.694-.237-.02zm-19.837-2.775.238-.006v-.001zm10.694-10.368-.011-.237h-.002zm8.816 6.45v.237h.267l-.031-.265zm-10.653-5.96.045.234zm-5.306 5.633-.23-.061-.079.299h.309zm13.02 0v.238h.276l-.04-.273zm2.898 7.102.236.03.001-.003zm-16-6.776v-.238h-.186l-.045.182zm.286 6.53.224-.078zm8.735 6 .009.239h.002zm3.224-12.53-.06.23c2.21.582 4.262 2.84 3.946 6.443l.237.021.237.021c.336-3.826-1.857-6.302-4.299-6.945zm4.123 6.694-.237-.02c-.235 2.781-2.709 6.517-8.376 6.517v.476c5.926 0 8.595-3.938 8.85-6.953zm-8.613 6.735v-.238c-2.781 0-5.492-.686-7.522-2.183-2.021-1.491-3.384-3.8-3.464-7.095l-.238.006-.238.006c.083 3.438 1.516 5.885 3.658 7.466 2.134 1.574 4.953 2.276 7.804 2.276zm-11.224-9.51.238-.007c-.1-3.447 1.41-5.908 3.496-7.546 2.093-1.644 4.769-2.457 6.973-2.577l-.013-.238-.013-.237c-2.286.125-5.059.965-7.241 2.678-2.19 1.72-3.782 4.319-3.678 7.934zm10.694-10.368.011.238c1.697-.08 3.71.29 5.362 1.278 1.644.982 2.931 2.574 3.207 4.96l.236-.027.236-.027c-.295-2.552-1.681-4.267-3.435-5.315-1.746-1.043-3.856-1.428-5.628-1.344zm8.816 6.45v-.239h-2.898v.476h2.898zm-2.898 0v-.239h-.898v.476h.898zm-7.755-5.96-.045-.233c-2.896.553-4.742 2.977-5.491 5.805l.23.06.23.062c.721-2.723 2.466-4.953 5.121-5.46zm-5.306 5.633v.238h13.02v-.476h-13.02zm13.02 0 .236-.035c-.548-3.664-3.842-6.637-7.995-5.831l.045.233.045.234c3.847-.746 6.92 1.995 7.434 5.434zm2.898 7.102.237.027c.251-2.182-.346-3.945-1.426-5.164-1.078-1.217-2.624-1.877-4.239-1.877v.476c1.486 0 2.9.606 3.883 1.716.981 1.107 1.547 2.732 1.309 4.795zm-5.428-6.776v-.238h-10.572v.476h10.572zm-10.572 0-.231-.056c-.541 2.207-.417 4.662.293 6.666l.224-.08.224-.078c-.678-1.915-.799-4.275-.279-6.395zm.286 6.53-.224.08c.768 2.18 1.939 3.768 3.464 4.787 1.526 1.019 3.384 1.455 5.504 1.372l-.009-.238-.01-.238c-2.043.08-3.797-.34-5.22-1.291-1.424-.951-2.539-2.445-3.281-4.55zm8.735 6 .011.239c3.599-.168 6.778-2.64 7.204-5.963l-.236-.03-.236-.03c-.39 3.044-3.333 5.388-6.754 5.547zM266.55 23.98l.232.05.032-.146-.119-.093zm-.817 3.755v.238h.192l.041-.188zm-.204 0-.223.081.057.157h.166zm-10.734-2.776-.237-.029v.005zm12.734 10.653.238.018v-.002zm-15.796 2.898-.232-.049-.032.15.123.09zm.858-4.081v-.238h-.194l-.039.189zm.204 0 .214-.104-.065-.134h-.149zm13.469 2.98-.235-.035-.001.001zm-12.49-10.98-.236-.03zm6.245-5.062v.238c1.017 0 2.208.324 3.356.813 1.146.487 2.23 1.13 3.029 1.75l.146-.188.145-.189c-.833-.645-1.953-1.309-3.134-1.811-1.178-.501-2.436-.85-3.542-.85zm6.531 2.613-.233-.05-.816 3.754.232.05.233.051.816-3.755zm-.817 3.755v-.238h-.204v.476h.204zm-.204 0 .224-.082c-.644-1.765-1.632-3.296-2.762-4.39-1.127-1.09-2.418-1.766-3.666-1.766v.476c1.079 0 2.258.59 3.335 1.632 1.073 1.038 2.024 2.507 2.646 4.211zm-6.204-6v-.238c-2.87 0-4.545 1.616-4.767 3.433l.237.03.236.028c.186-1.53 1.613-3.015 4.294-3.015zm-4.53 3.224-.237-.024c-.077.737.088 1.366.438 1.909.347.536.868.976 1.486 1.354 1.23.753 2.913 1.3 4.556 1.869 1.661.575 3.286 1.176 4.471 2.036 1.17.849 1.888 1.933 1.783 3.493l.237.016.238.016c.119-1.766-.714-2.993-1.979-3.91-1.25-.908-2.944-1.529-4.594-2.101-1.669-.578-3.289-1.106-4.463-1.824-.584-.357-1.041-.752-1.335-1.208-.291-.45-.431-.97-.365-1.601zm12.734 10.653-.237-.018c-.232 3.056-3.102 5.413-7.599 5.413v.476c4.645 0 7.816-2.46 8.074-5.853zm-7.836 5.633v-.238c-3.245 0-5.645-1.078-7.818-2.688l-.142.191-.141.191c2.235 1.656 4.733 2.782 8.101 2.782zm-7.96-2.735.233.05.857-4.083-.232-.048-.233-.05-.857 4.082zm.858-4.081v.237h.204v-.475h-.204zm.204 0-.214.103c.706 1.455 1.837 3.043 3.257 4.27 1.42 1.228 3.146 2.11 5.038 2.11v-.476c-1.74 0-3.361-.812-4.727-1.993-1.365-1.181-2.459-2.715-3.14-4.118zm8.081 6.244v.238c1.509 0 2.84-.387 3.831-1.01.989-.623 1.658-1.493 1.793-2.46l-.236-.033-.236-.033c-.11.788-.665 1.55-1.574 2.123-.907.57-2.148.938-3.578.938zm5.388-3.265.235.034c.106-.724-.044-1.332-.392-1.846-.344-.507-.869-.907-1.492-1.243-1.236-.67-2.948-1.134-4.599-1.666-1.673-.539-3.296-1.149-4.442-2.103-1.128-.938-1.798-2.212-1.564-4.126l-.236-.03-.236-.028c-.255 2.085.488 3.515 1.731 4.55 1.225 1.02 2.931 1.652 4.601 2.19 1.69.544 3.333.99 4.519 1.631.588.318 1.04.673 1.324 1.092.278.411.404.898.316 1.511zm-12.49-10.98.236.03c.16-1.295.595-2.501 1.506-3.384.909-.88 2.322-1.469 4.503-1.469v-.476c-2.268 0-3.814.615-4.834 1.603-1.017.985-1.48 2.31-1.647 3.668z" mask="url(#b)"/></svg>