<svg width="100" height="28" viewBox="0 0 100 28" fill="none" xmlns="http://www.w3.org/2000/svg">
<path fill-rule="evenodd" clip-rule="evenodd" d="M13.2501 26.8333C20.3377 26.8333 26.0834 21.0876 26.0834 14C26.0834 6.91231 20.3377 1.16663 13.2501 1.16663C6.16241 1.16663 0.416748 6.91231 0.416748 14C0.416748 21.0876 6.16241 26.8333 13.2501 26.8333ZM17.2536 7.14494C17.4485 6.45271 16.7768 6.04338 16.1633 6.48046L7.599 12.5816C6.93365 13.0556 7.03831 14 7.7562 14H10.0114V13.9825H14.4067L10.8254 15.2461L9.24654 20.855C9.05166 21.5472 9.72336 21.9566 10.3369 21.5195L18.9012 15.4184C19.5665 14.9444 19.4618 14 18.744 14H15.324L17.2536 7.14494Z" fill="#12232E"/>
<path d="M32.7217 19.7803V17.7503H34.3317V9.56028H32.7217V7.53028H39.0217C39.7683 7.53028 40.4158 7.65861 40.9642 7.91528C41.5242 8.16028 41.9558 8.51611 42.2592 8.98278C42.5742 9.43778 42.7317 9.98611 42.7317 10.6278V10.8028C42.7317 11.3628 42.6267 11.8236 42.4167 12.1853C42.2067 12.5353 41.9558 12.8094 41.6642 13.0078C41.3842 13.1944 41.1158 13.3286 40.8592 13.4103V13.7253C41.1158 13.7953 41.3958 13.9294 41.6992 14.1278C42.0025 14.3144 42.2592 14.5886 42.4692 14.9503C42.6908 15.3119 42.8017 15.7844 42.8017 16.3678V16.5428C42.8017 17.2194 42.6442 17.8028 42.3292 18.2928C42.0142 18.7711 41.5767 19.1386 41.0167 19.3953C40.4683 19.6519 39.8267 19.7803 39.0917 19.7803H32.7217ZM36.6417 17.6803H38.8117C39.3133 17.6803 39.7158 17.5578 40.0192 17.3128C40.3342 17.0678 40.4917 16.7178 40.4917 16.2628V16.0878C40.4917 15.6328 40.34 15.2828 40.0367 15.0378C39.7333 14.7928 39.325 14.6703 38.8117 14.6703H36.6417V17.6803ZM36.6417 12.5703H38.7767C39.255 12.5703 39.6458 12.4478 39.9492 12.2028C40.2642 11.9578 40.4217 11.6194 40.4217 11.1878V11.0128C40.4217 10.5694 40.27 10.2311 39.9667 9.99778C39.6633 9.75278 39.2667 9.63028 38.7767 9.63028H36.6417V12.5703Z" fill="#12232E"/>
<path d="M48.0178 20.0253C47.1544 20.0253 46.3786 19.8503 45.6903 19.5003C45.0019 19.1503 44.4594 18.6428 44.0628 17.9778C43.6661 17.3128 43.4678 16.5136 43.4678 15.5803V15.3003C43.4678 14.3669 43.6661 13.5678 44.0628 12.9028C44.4594 12.2378 45.0019 11.7303 45.6903 11.3803C46.3786 11.0303 47.1544 10.8553 48.0178 10.8553C48.8811 10.8553 49.6569 11.0303 50.3453 11.3803C51.0336 11.7303 51.5761 12.2378 51.9728 12.9028C52.3694 13.5678 52.5678 14.3669 52.5678 15.3003V15.5803C52.5678 16.5136 52.3694 17.3128 51.9728 17.9778C51.5761 18.6428 51.0336 19.1503 50.3453 19.5003C49.6569 19.8503 48.8811 20.0253 48.0178 20.0253ZM48.0178 18.0653C48.6944 18.0653 49.2544 17.8494 49.6978 17.4178C50.1411 16.9744 50.3628 16.3444 50.3628 15.5278V15.3528C50.3628 14.5361 50.1411 13.9119 49.6978 13.4803C49.2661 13.0369 48.7061 12.8153 48.0178 12.8153C47.3411 12.8153 46.7811 13.0369 46.3378 13.4803C45.8944 13.9119 45.6728 14.5361 45.6728 15.3528V15.5278C45.6728 16.3444 45.8944 16.9744 46.3378 17.4178C46.7811 17.8494 47.3411 18.0653 48.0178 18.0653Z" fill="#12232E"/>
<path d="M53.7281 19.7803V7.53028H55.9331V19.7803H53.7281Z" fill="#12232E"/>
<path d="M60.8265 19.7803C60.2549 19.7803 59.7882 19.6053 59.4265 19.2553C59.0765 18.8936 58.9015 18.4153 58.9015 17.8203V12.9203H56.7315V11.1003H58.9015V8.40528H61.1065V11.1003H63.4865V12.9203H61.1065V17.4353C61.1065 17.7853 61.2699 17.9603 61.5965 17.9603H63.2765V19.7803H60.8265Z" fill="#12232E"/>
<path d="M68.2125 20.0253C67.0808 20.0253 66.1533 19.7803 65.43 19.2903C64.7067 18.8003 64.2692 18.1003 64.1175 17.1903L66.1475 16.6653C66.2292 17.0736 66.3633 17.3944 66.55 17.6278C66.7483 17.8611 66.9875 18.0303 67.2675 18.1353C67.5592 18.2286 67.8742 18.2753 68.2125 18.2753C68.7258 18.2753 69.105 18.1878 69.35 18.0128C69.595 17.8261 69.7175 17.5986 69.7175 17.3303C69.7175 17.0619 69.6008 16.8578 69.3675 16.7178C69.1342 16.5661 68.7608 16.4436 68.2475 16.3503L67.7575 16.2628C67.1508 16.1461 66.5967 15.9886 66.095 15.7903C65.5933 15.5803 65.1908 15.2944 64.8875 14.9328C64.5842 14.5711 64.4325 14.1044 64.4325 13.5328C64.4325 12.6694 64.7475 12.0103 65.3775 11.5553C66.0075 11.0886 66.8358 10.8553 67.8625 10.8553C68.8308 10.8553 69.6358 11.0711 70.2775 11.5028C70.9192 11.9344 71.3392 12.5003 71.5375 13.2003L69.49 13.8303C69.3967 13.3869 69.2042 13.0719 68.9125 12.8853C68.6325 12.6986 68.2825 12.6053 67.8625 12.6053C67.4425 12.6053 67.1217 12.6811 66.9 12.8328C66.6783 12.9728 66.5675 13.1711 66.5675 13.4278C66.5675 13.7078 66.6842 13.9178 66.9175 14.0578C67.1508 14.1861 67.4658 14.2853 67.8625 14.3553L68.3525 14.4428C69.0058 14.5594 69.595 14.7169 70.12 14.9153C70.6567 15.1019 71.0767 15.3761 71.38 15.7378C71.695 16.0878 71.8525 16.5661 71.8525 17.1728C71.8525 18.0828 71.52 18.7886 70.855 19.2903C70.2017 19.7803 69.3208 20.0253 68.2125 20.0253Z" fill="#12232E"/>
<path d="M72.9097 19.7803V7.53028H75.1147V12.1678H75.4297C75.5231 11.9811 75.6689 11.7944 75.8672 11.6078C76.0656 11.4211 76.3281 11.2694 76.6547 11.1528C76.9931 11.0244 77.4189 10.9603 77.9323 10.9603C78.6089 10.9603 79.1981 11.1178 79.6997 11.4328C80.2131 11.7361 80.6098 12.1619 80.8898 12.7103C81.1698 13.2469 81.3098 13.8769 81.3098 14.6003V19.7803H79.1048V14.7753C79.1048 14.1219 78.9414 13.6319 78.6147 13.3053C78.2997 12.9786 77.8448 12.8153 77.2498 12.8153C76.5731 12.8153 76.0481 13.0428 75.6748 13.4978C75.3014 13.9411 75.1147 14.5653 75.1147 15.3703V19.7803H72.9097Z" fill="#12232E"/>
<path d="M82.8184 19.7803V11.1003H85.0234V19.7803H82.8184ZM83.9209 10.0853C83.5243 10.0853 83.1859 9.95695 82.9059 9.70028C82.6376 9.44361 82.5034 9.10528 82.5034 8.68528C82.5034 8.26528 82.6376 7.92695 82.9059 7.67028C83.1859 7.41361 83.5243 7.28528 83.9209 7.28528C84.3293 7.28528 84.6676 7.41361 84.9359 7.67028C85.2043 7.92695 85.3384 8.26528 85.3384 8.68528C85.3384 9.10528 85.2043 9.44361 84.9359 9.70028C84.6676 9.95695 84.3293 10.0853 83.9209 10.0853Z" fill="#12232E"/>
<path d="M88.0269 19.7803V12.9203H85.8219V11.1003H88.0269V9.49028C88.0269 8.89528 88.2019 8.42278 88.5519 8.07278C88.9135 7.71111 89.3802 7.53028 89.9519 7.53028H92.2269V9.35028H90.7219C90.3952 9.35028 90.2319 9.52528 90.2319 9.87528V11.1003H92.5069V12.9203H90.2319V19.7803H88.0269Z" fill="#12232E"/>
<path d="M96.4931 19.7803C95.9214 19.7803 95.4547 19.6053 95.0931 19.2553C94.7431 18.8936 94.5681 18.4153 94.5681 17.8203V12.9203H92.3981V11.1003H94.5681V8.40528H96.7731V11.1003H99.1531V12.9203H96.7731V17.4353C96.7731 17.7853 96.9364 17.9603 97.2631 17.9603H98.9431V19.7803H96.4931Z" fill="#12232E"/>
</svg>
