<svg width="98" height="28" viewBox="0 0 98 28" fill="none" xmlns="http://www.w3.org/2000/svg">
<path fill-rule="evenodd" clip-rule="evenodd" d="M11.8216 2.01126C11.527 1.95067 11.2232 1.95067 10.9285 2.01126C10.588 2.0813 10.2836 2.25179 10.0416 2.38733L9.97567 2.42417L1.77431 6.98049C1.75163 6.99309 1.72827 7.00595 1.70433 7.01914C1.44817 7.16023 1.12608 7.33764 0.878738 7.60604C0.664892 7.83809 0.503058 8.11313 0.40406 8.41276C0.289555 8.75933 0.290894 9.12704 0.29196 9.41948C0.292059 9.44681 0.292157 9.47349 0.292157 9.49943V18.4956C0.292157 18.5215 0.292059 18.5482 0.29196 18.5755C0.290894 18.8679 0.289555 19.2357 0.40406 19.5822C0.503059 19.8818 0.664893 20.1569 0.878738 20.3889C1.12608 20.6573 1.44817 20.8347 1.70433 20.9758C1.72827 20.989 1.75163 21.0019 1.77431 21.0145L9.97567 25.5708L10.0416 25.6077C10.2836 25.7432 10.588 25.9137 10.9285 25.9837C11.2232 26.0443 11.527 26.0443 11.8216 25.9837C12.1622 25.9137 12.4665 25.7432 12.7085 25.6077L12.7745 25.5708L20.9759 21.0145C20.9859 21.0089 20.996 21.0033 21.0063 20.9976C21.0193 20.9905 21.0325 20.9832 21.0458 20.9758C21.302 20.8348 21.6241 20.6573 21.8714 20.3889C22.0853 20.1569 22.2471 19.8818 22.3461 19.5822C22.4606 19.2357 22.4593 18.8679 22.4582 18.5755C22.4581 18.5482 22.458 18.5215 22.458 18.4956V9.49942C22.458 9.47349 22.4581 9.44682 22.4582 9.41949C22.4593 9.12704 22.4606 8.75933 22.3461 8.41276C22.2471 8.11313 22.0853 7.83809 21.8714 7.60604C21.6241 7.33763 21.302 7.16023 21.0458 7.01913L21.0449 7.01864C21.0213 7.00563 20.9982 6.99292 20.9759 6.98049L12.7745 2.42417L12.7085 2.38732C12.4665 2.25179 12.1622 2.0813 11.8216 2.01126ZM11.0521 4.36182C11.2201 4.26851 11.3058 4.22136 11.3698 4.19052L11.3751 4.18798L11.3804 4.19052C11.4443 4.22136 11.5301 4.26851 11.698 4.36182L19.0676 8.456L11.375 12.7296L3.68258 8.45602L11.0521 4.36182ZM2.50874 10.3396L10.2668 14.6496L10.2668 23.1968L2.85078 19.0768C2.6735 18.9784 2.58299 18.9276 2.51949 18.8871L2.51413 18.8837L2.51373 18.8773C2.5092 18.8021 2.50874 18.6984 2.50874 18.4956V10.3396Z" fill="#12232E"/>
<path d="M32.5448 17.7014H36.0728V19.7804H29.8516V8.72392H32.5448V17.7014Z" fill="#12232E"/>
<path d="M38.5544 10.0784C38.0819 10.0784 37.6934 9.94192 37.3889 9.66892C37.0949 9.38542 36.9479 9.03892 36.9479 8.62942C36.9479 8.20942 37.0949 7.86292 37.3889 7.58992C37.6934 7.30642 38.0819 7.16467 38.5544 7.16467C39.0164 7.16467 39.3944 7.30642 39.6884 7.58992C39.9929 7.86292 40.1452 8.20942 40.1452 8.62942C40.1452 9.03892 39.9929 9.38542 39.6884 9.66892C39.3944 9.94192 39.0164 10.0784 38.5544 10.0784ZM39.8932 10.9919V19.7804H37.1999V10.9919H39.8932Z" fill="#12232E"/>
<path d="M45.0264 10.8659C45.6459 10.8659 46.1867 10.9919 46.6487 11.2439C47.1212 11.4959 47.4834 11.8267 47.7354 12.2362V10.9919H50.4287V19.7647C50.4287 20.5732 50.2659 21.3029 49.9404 21.9539C49.6254 22.6154 49.1372 23.1404 48.4757 23.5289C47.8247 23.9174 47.0109 24.1117 46.0344 24.1117C44.7324 24.1117 43.6772 23.8019 42.8687 23.1824C42.0602 22.5734 41.5982 21.7439 41.4827 20.6939H44.1444C44.2284 21.0299 44.4279 21.2924 44.7429 21.4814C45.0579 21.6809 45.4464 21.7807 45.9084 21.7807C46.4649 21.7807 46.9059 21.6179 47.2314 21.2924C47.5674 20.9774 47.7354 20.4682 47.7354 19.7647V18.5204C47.4729 18.9299 47.1107 19.2659 46.6487 19.5284C46.1867 19.7804 45.6459 19.9064 45.0264 19.9064C44.3019 19.9064 43.6457 19.7227 43.0577 19.3552C42.4697 18.9772 42.0024 18.4469 41.6559 17.7644C41.3199 17.0714 41.1519 16.2734 41.1519 15.3704C41.1519 14.4674 41.3199 13.6747 41.6559 12.9922C42.0024 12.3097 42.4697 11.7847 43.0577 11.4172C43.6457 11.0497 44.3019 10.8659 45.0264 10.8659ZM47.7354 15.3862C47.7354 14.7142 47.5464 14.1839 47.1684 13.7954C46.8009 13.4069 46.3494 13.2127 45.8139 13.2127C45.2784 13.2127 44.8217 13.4069 44.4437 13.7954C44.0762 14.1734 43.8924 14.6984 43.8924 15.3704C43.8924 16.0424 44.0762 16.5779 44.4437 16.9769C44.8217 17.3654 45.2784 17.5597 45.8139 17.5597C46.3494 17.5597 46.8009 17.3654 47.1684 16.9769C47.5464 16.5884 47.7354 16.0582 47.7354 15.3862Z" fill="#12232E"/>
<path d="M57.6219 10.8974C58.6299 10.8974 59.4384 11.2334 60.0474 11.9054C60.6564 12.5669 60.9609 13.4804 60.9609 14.6459V19.7804H58.2834V15.0082C58.2834 14.4202 58.1311 13.9634 57.8266 13.6379C57.5221 13.3124 57.1126 13.1497 56.5981 13.1497C56.0836 13.1497 55.6741 13.3124 55.3696 13.6379C55.0651 13.9634 54.9129 14.4202 54.9129 15.0082V19.7804H52.2196V8.12542H54.9129V12.1732C55.1859 11.7847 55.5586 11.4749 56.0311 11.2439C56.5036 11.0129 57.0339 10.8974 57.6219 10.8974Z" fill="#12232E"/>
<path d="M67.5732 17.4967V19.7804H66.2029C65.2264 19.7804 64.4652 19.5442 63.9192 19.0717C63.3732 18.5887 63.1002 17.8064 63.1002 16.7249V13.2284H62.0292V10.9919H63.1002V8.84992H65.7934V10.9919H67.5574V13.2284H65.7934V16.7564C65.7934 17.0189 65.8564 17.2079 65.9824 17.3234C66.1084 17.4389 66.3184 17.4967 66.6124 17.4967H67.5732Z" fill="#12232E"/>
<path d="M71.6091 12.2362C71.8611 11.8267 72.2234 11.4959 72.6959 11.2439C73.1684 10.9919 73.7091 10.8659 74.3181 10.8659C75.0426 10.8659 75.6989 11.0497 76.2869 11.4172C76.8749 11.7847 77.3369 12.3097 77.6729 12.9922C78.0194 13.6747 78.1926 14.4674 78.1926 15.3704C78.1926 16.2734 78.0194 17.0714 77.6729 17.7644C77.3369 18.4469 76.8749 18.9772 76.2869 19.3552C75.6989 19.7227 75.0426 19.9064 74.3181 19.9064C73.6986 19.9064 73.1579 19.7857 72.6959 19.5442C72.2339 19.2922 71.8716 18.9614 71.6091 18.5519V19.7804H68.9159V8.12542H71.6091V12.2362ZM75.4521 15.3704C75.4521 14.6984 75.2631 14.1734 74.8851 13.7954C74.5176 13.4069 74.0609 13.2127 73.5149 13.2127C72.9794 13.2127 72.5226 13.4069 72.1446 13.7954C71.7771 14.1839 71.5934 14.7142 71.5934 15.3862C71.5934 16.0582 71.7771 16.5884 72.1446 16.9769C72.5226 17.3654 72.9794 17.5597 73.5149 17.5597C74.0504 17.5597 74.5071 17.3654 74.8851 16.9769C75.2631 16.5779 75.4521 16.0424 75.4521 15.3704Z" fill="#12232E"/>
<path d="M83.4486 19.9064C82.5876 19.9064 81.8106 19.7227 81.1176 19.3552C80.4351 18.9877 79.8943 18.4627 79.4953 17.7802C79.1068 17.0977 78.9126 16.2997 78.9126 15.3862C78.9126 14.4832 79.1121 13.6904 79.5111 13.0079C79.9101 12.3149 80.4561 11.7847 81.1491 11.4172C81.8421 11.0497 82.6191 10.8659 83.4801 10.8659C84.3411 10.8659 85.1181 11.0497 85.8111 11.4172C86.5041 11.7847 87.0501 12.3149 87.4491 13.0079C87.8481 13.6904 88.0476 14.4832 88.0476 15.3862C88.0476 16.2892 87.8428 17.0872 87.4333 17.7802C87.0343 18.4627 86.4831 18.9877 85.7796 19.3552C85.0866 19.7227 84.3096 19.9064 83.4486 19.9064ZM83.4486 17.5754C83.9631 17.5754 84.3988 17.3864 84.7558 17.0084C85.1233 16.6304 85.3071 16.0897 85.3071 15.3862C85.3071 14.6827 85.1286 14.1419 84.7716 13.7639C84.4251 13.3859 83.9946 13.1969 83.4801 13.1969C82.9551 13.1969 82.5193 13.3859 82.1728 13.7639C81.8263 14.1314 81.6531 14.6722 81.6531 15.3862C81.6531 16.0897 81.8211 16.6304 82.1571 17.0084C82.5036 17.3864 82.9341 17.5754 83.4486 17.5754Z" fill="#12232E"/>
<path d="M94.5164 19.7804L92.8311 17.3392L91.4136 19.7804H88.4999L91.3979 15.2917L88.4211 10.9919H91.4451L93.1304 13.4174L94.5479 10.9919H97.4616L94.5164 15.4177L97.5404 19.7804H94.5164Z" fill="#12232E"/>
</svg>
