<svg width="112" height="28" viewBox="0 0 112 28" fill="none" xmlns="http://www.w3.org/2000/svg">
<path d="M13.4633 2.33337C11.34 2.33337 9.625 4.02753 9.625 6.12504C9.625 8.20644 11.34 9.90056 13.447 9.91671C12.9243 9.90056 12.516 9.48108 12.516 8.96475C12.516 8.44844 12.9407 8.01282 13.4797 8.01282C15.7663 8.01282 20.846 8.01282 23.0837 8.01282C24.668 8.01282 25.9583 6.73817 25.9583 5.17311C25.9583 3.60802 24.668 2.33337 23.0837 2.33337L13.4633 2.33337Z" fill="#12232E"/>
<path opacity="0.9" d="M8.79683 9.91663C6.67349 9.91663 4.9585 11.6108 4.9585 13.7083C4.9585 15.7897 6.67349 17.4838 8.78048 17.5C8.25783 17.4838 7.8495 17.0643 7.8495 16.548C7.8495 16.0317 8.27417 15.5961 8.81318 15.5961C11.0998 15.5961 16.1795 15.5961 18.4172 15.5961C20.0015 15.5961 21.2918 14.3214 21.2918 12.7564C21.2918 11.1913 20.0015 9.91663 18.4172 9.91663L8.79683 9.91663Z" fill="#12232E"/>
<path opacity="0.8" d="M5.571 17.5C3.29599 17.5 1.4585 19.3245 1.4585 21.5833C1.4585 23.8248 3.29599 25.6493 5.55348 25.6667C4.99349 25.6493 4.556 25.1975 4.556 24.6415C4.556 24.0855 5.01101 23.6163 5.58851 23.6163C8.03849 23.6163 13.481 23.6163 15.8785 23.6163C17.576 23.6163 18.9585 22.2436 18.9585 20.5582C18.9585 18.8727 17.576 17.5 15.8785 17.5L5.571 17.5Z" fill="#12232E"/>
<path d="M31.7798 19.7803V7.53028H39.6548V9.63028H34.0898V12.5528H39.1648V14.6528H34.0898V17.6803H39.7598V19.7803H31.7798Z" fill="#12232E"/>
<path d="M40.6647 23.2803V11.1003H42.8347V12.1503H43.1497C43.3481 11.8119 43.6572 11.5144 44.0772 11.2578C44.4972 10.9894 45.0981 10.8553 45.8797 10.8553C46.5797 10.8553 47.2272 11.0303 47.8222 11.3803C48.4172 11.7186 48.8956 12.2203 49.2572 12.8853C49.6189 13.5503 49.7997 14.3553 49.7997 15.3003V15.5803C49.7997 16.5253 49.6189 17.3303 49.2572 17.9953C48.8956 18.6603 48.4172 19.1678 47.8222 19.5178C47.2272 19.8561 46.5797 20.0253 45.8797 20.0253C45.3547 20.0253 44.9114 19.9611 44.5497 19.8328C44.1997 19.7161 43.9139 19.5644 43.6922 19.3778C43.4822 19.1794 43.3131 18.9811 43.1847 18.7828H42.8697V23.2803H40.6647ZM45.2147 18.1003C45.9031 18.1003 46.4689 17.8844 46.9122 17.4528C47.3672 17.0094 47.5947 16.3678 47.5947 15.5278V15.3528C47.5947 14.5128 47.3672 13.8769 46.9122 13.4453C46.4572 13.0019 45.8914 12.7803 45.2147 12.7803C44.5381 12.7803 43.9722 13.0019 43.5172 13.4453C43.0622 13.8769 42.8347 14.5128 42.8347 15.3528V15.5278C42.8347 16.3678 43.0622 17.0094 43.5172 17.4528C43.9722 17.8844 44.5381 18.1003 45.2147 18.1003Z" fill="#12232E"/>
<path d="M50.9494 19.7803V11.1003H53.1544V19.7803H50.9494ZM52.0519 10.0853C51.6552 10.0853 51.3169 9.95695 51.0369 9.70028C50.7686 9.44361 50.6344 9.10528 50.6344 8.68528C50.6344 8.26528 50.7686 7.92695 51.0369 7.67028C51.3169 7.41361 51.6552 7.28528 52.0519 7.28528C52.4602 7.28528 52.7986 7.41361 53.0669 7.67028C53.3352 7.92695 53.4694 8.26528 53.4694 8.68528C53.4694 9.10528 53.3352 9.44361 53.0669 9.70028C52.7986 9.95695 52.4602 10.0853 52.0519 10.0853Z" fill="#12232E"/>
<path d="M58.8003 20.0253C57.9603 20.0253 57.1962 19.8503 56.5078 19.5003C55.8312 19.1503 55.2945 18.6428 54.8978 17.9778C54.5012 17.3128 54.3028 16.5078 54.3028 15.5628V15.3178C54.3028 14.3728 54.5012 13.5678 54.8978 12.9028C55.2945 12.2378 55.8312 11.7303 56.5078 11.3803C57.1962 11.0303 57.9603 10.8553 58.8003 10.8553C59.6287 10.8553 60.3403 11.0011 60.9353 11.2928C61.5303 11.5844 62.0087 11.9869 62.3703 12.5003C62.7437 13.0019 62.9887 13.5736 63.1053 14.2153L60.9703 14.6703C60.9237 14.3203 60.8187 14.0053 60.6553 13.7253C60.492 13.4453 60.2587 13.2236 59.9553 13.0603C59.6637 12.8969 59.2962 12.8153 58.8528 12.8153C58.4095 12.8153 58.007 12.9144 57.6453 13.1128C57.2953 13.2994 57.0153 13.5853 56.8053 13.9703C56.607 14.3436 56.5078 14.8044 56.5078 15.3528V15.5278C56.5078 16.0761 56.607 16.5428 56.8053 16.9278C57.0153 17.3011 57.2953 17.5869 57.6453 17.7853C58.007 17.9719 58.4095 18.0653 58.8528 18.0653C59.5178 18.0653 60.0195 17.8961 60.3578 17.5578C60.7078 17.2078 60.9295 16.7528 61.0228 16.1928L63.1578 16.7003C63.0062 17.3186 62.7437 17.8844 62.3703 18.3978C62.0087 18.8994 61.5303 19.2961 60.9353 19.5878C60.3403 19.8794 59.6287 20.0253 58.8003 20.0253Z" fill="#12232E"/>
<path d="M67.4092 19.9203C66.7326 19.9203 66.1376 19.7686 65.6242 19.4653C65.1226 19.1503 64.7317 18.7186 64.4517 18.1703C64.1717 17.6219 64.0317 16.9919 64.0317 16.2803V11.1003H66.2367V16.1053C66.2367 16.7586 66.3942 17.2486 66.7092 17.5753C67.0359 17.9019 67.4967 18.0653 68.0917 18.0653C68.7684 18.0653 69.2934 17.8436 69.6667 17.4003C70.0401 16.9453 70.2267 16.3153 70.2267 15.5103V11.1003H72.4317V19.7803H70.2617V18.6428H69.9467C69.8067 18.9344 69.5442 19.2203 69.1592 19.5003C68.7742 19.7803 68.1909 19.9203 67.4092 19.9203Z" fill="#12232E"/>
<path d="M74.0104 19.7803V11.1003H76.1804V12.0803H76.4954C76.6238 11.7303 76.8338 11.4736 77.1254 11.3103C77.4288 11.1469 77.7788 11.0653 78.1754 11.0653H79.2254V13.0253H78.1404C77.5804 13.0253 77.1196 13.1769 76.7579 13.4803C76.3963 13.7719 76.2154 14.2269 76.2154 14.8453V19.7803H74.0104Z" fill="#12232E"/>
<path d="M80.0739 19.7803V11.1003H82.2789V19.7803H80.0739ZM81.1764 10.0853C80.7797 10.0853 80.4414 9.95695 80.1614 9.70028C79.8931 9.44361 79.7589 9.10528 79.7589 8.68528C79.7589 8.26528 79.8931 7.92695 80.1614 7.67028C80.4414 7.41361 80.7797 7.28528 81.1764 7.28528C81.5847 7.28528 81.9231 7.41361 82.1914 7.67028C82.4597 7.92695 82.5939 8.26528 82.5939 8.68528C82.5939 9.10528 82.4597 9.44361 82.1914 9.70028C81.9231 9.95695 81.5847 10.0853 81.1764 10.0853Z" fill="#12232E"/>
<path d="M87.9773 20.0253C87.114 20.0253 86.3382 19.8503 85.6498 19.5003C84.9615 19.1503 84.419 18.6428 84.0223 17.9778C83.6257 17.3128 83.4273 16.5136 83.4273 15.5803V15.3003C83.4273 14.3669 83.6257 13.5678 84.0223 12.9028C84.419 12.2378 84.9615 11.7303 85.6498 11.3803C86.3382 11.0303 87.114 10.8553 87.9773 10.8553C88.8407 10.8553 89.6165 11.0303 90.3048 11.3803C90.9932 11.7303 91.5357 12.2378 91.9323 12.9028C92.329 13.5678 92.5273 14.3669 92.5273 15.3003V15.5803C92.5273 16.5136 92.329 17.3128 91.9323 17.9778C91.5357 18.6428 90.9932 19.1503 90.3048 19.5003C89.6165 19.8503 88.8407 20.0253 87.9773 20.0253ZM87.9773 18.0653C88.654 18.0653 89.214 17.8494 89.6573 17.4178C90.1007 16.9744 90.3223 16.3444 90.3223 15.5278V15.3528C90.3223 14.5361 90.1007 13.9119 89.6573 13.4803C89.2257 13.0369 88.6657 12.8153 87.9773 12.8153C87.3007 12.8153 86.7407 13.0369 86.2973 13.4803C85.854 13.9119 85.6323 14.5361 85.6323 15.3528V15.5278C85.6323 16.3444 85.854 16.9744 86.2973 17.4178C86.7407 17.8494 87.3007 18.0653 87.9773 18.0653Z" fill="#12232E"/>
<path d="M96.9952 19.9203C96.3185 19.9203 95.7235 19.7686 95.2102 19.4653C94.7085 19.1503 94.3177 18.7186 94.0377 18.1703C93.7577 17.6219 93.6177 16.9919 93.6177 16.2803V11.1003H95.8227V16.1053C95.8227 16.7586 95.9802 17.2486 96.2952 17.5753C96.6218 17.9019 97.0827 18.0653 97.6777 18.0653C98.3543 18.0653 98.8793 17.8436 99.2527 17.4003C99.626 16.9453 99.8127 16.3153 99.8127 15.5103V11.1003H102.018V19.7803H99.8477V18.6428H99.5327C99.3927 18.9344 99.1302 19.2203 98.7452 19.5003C98.3602 19.7803 97.7768 19.9203 96.9952 19.9203Z" fill="#12232E"/>
<path d="M107.201 20.0253C106.07 20.0253 105.142 19.7803 104.419 19.2903C103.696 18.8003 103.258 18.1003 103.106 17.1903L105.136 16.6653C105.218 17.0736 105.352 17.3944 105.539 17.6278C105.737 17.8611 105.976 18.0303 106.256 18.1353C106.548 18.2286 106.863 18.2753 107.201 18.2753C107.715 18.2753 108.094 18.1878 108.339 18.0128C108.584 17.8261 108.706 17.5986 108.706 17.3303C108.706 17.0619 108.59 16.8578 108.356 16.7178C108.123 16.5661 107.75 16.4436 107.236 16.3503L106.746 16.2628C106.14 16.1461 105.586 15.9886 105.084 15.7903C104.582 15.5803 104.18 15.2944 103.876 14.9328C103.573 14.5711 103.421 14.1044 103.421 13.5328C103.421 12.6694 103.736 12.0103 104.366 11.5553C104.996 11.0886 105.825 10.8553 106.851 10.8553C107.82 10.8553 108.625 11.0711 109.266 11.5028C109.908 11.9344 110.328 12.5003 110.526 13.2003L108.479 13.8303C108.386 13.3869 108.193 13.0719 107.901 12.8853C107.621 12.6986 107.271 12.6053 106.851 12.6053C106.431 12.6053 106.111 12.6811 105.889 12.8328C105.667 12.9728 105.556 13.1711 105.556 13.4278C105.556 13.7078 105.673 13.9178 105.906 14.0578C106.14 14.1861 106.455 14.2853 106.851 14.3553L107.341 14.4428C107.995 14.5594 108.584 14.7169 109.109 14.9153C109.646 15.1019 110.066 15.3761 110.369 15.7378C110.684 16.0878 110.841 16.5661 110.841 17.1728C110.841 18.0828 110.509 18.7886 109.844 19.2903C109.191 19.7803 108.31 20.0253 107.201 20.0253Z" fill="#12232E"/>
</svg>
