<svg width="118" height="28" viewBox="0 0 118 28" fill="none" xmlns="http://www.w3.org/2000/svg">
<path fill-rule="evenodd" clip-rule="evenodd" d="M0.0834961 14C8.2406 14 12.9168 9.32373 12.9168 1.16663C12.9168 9.32373 17.5931 14 25.7502 14C17.5931 14 12.9168 18.6762 12.9168 26.8333C12.9168 18.6762 8.2406 14 0.0834961 14Z" fill="#12232E"/>
<path d="M30.8193 19.7803L35.2993 7.53031H37.8193L42.2993 19.7803H39.9193L38.9393 16.9453H34.1618L33.1643 19.7803H30.8193ZM34.7743 15.1953H38.3268L36.5418 10.1028L34.7743 15.1953Z" fill="#12232E"/>
<path d="M46.7922 19.9903C45.9055 19.9903 45.1239 19.7978 44.4472 19.4128C43.7705 19.0278 43.2339 18.4911 42.8372 17.8028C42.4522 17.1145 42.2597 16.327 42.2597 15.4403C42.2597 14.5536 42.4522 13.7661 42.8372 13.0778C43.2339 12.3895 43.7705 11.8528 44.4472 11.4678C45.1239 11.0828 45.9055 10.8903 46.7922 10.8903C47.9005 10.8903 48.8339 11.182 49.5922 11.7653C50.3505 12.337 50.8347 13.1303 51.0447 14.1453H48.6822C48.5655 13.7253 48.3322 13.3986 47.9822 13.1653C47.6439 12.9203 47.2414 12.7978 46.7747 12.7978C46.1564 12.7978 45.6314 13.0311 45.1997 13.4978C44.768 13.9645 44.5522 14.612 44.5522 15.4403C44.5522 16.2686 44.768 16.9161 45.1997 17.3828C45.6314 17.8495 46.1564 18.0828 46.7747 18.0828C47.2414 18.0828 47.6439 17.9661 47.9822 17.7328C48.3322 17.4995 48.5655 17.167 48.6822 16.7353H51.0447C50.8347 17.7153 50.3505 18.5028 49.5922 19.0978C48.8339 19.6928 47.9005 19.9903 46.7922 19.9903Z" fill="#12232E"/>
<path d="M52.1579 19.7803V11.1003H54.1354L54.3279 12.2728C54.6079 11.8528 54.9754 11.5203 55.4304 11.2753C55.897 11.0186 56.4337 10.8903 57.0404 10.8903C58.382 10.8903 59.3329 11.4095 59.8929 12.4478C60.2079 11.9695 60.6279 11.5903 61.1529 11.3103C61.6895 11.0303 62.2729 10.8903 62.9029 10.8903C64.0345 10.8903 64.9037 11.2286 65.5104 11.9053C66.117 12.582 66.4204 13.5736 66.4204 14.8803V19.7803H64.1804V15.0903C64.1804 14.3436 64.0345 13.772 63.7429 13.3753C63.4629 12.9786 63.0254 12.7803 62.4304 12.7803C61.8237 12.7803 61.3337 13.002 60.9604 13.4453C60.5987 13.8886 60.4179 14.507 60.4179 15.3003V19.7803H58.1779V15.0903C58.1779 14.3436 58.032 13.772 57.7404 13.3753C57.4487 12.9786 56.9995 12.7803 56.3929 12.7803C55.7979 12.7803 55.3137 13.002 54.9404 13.4453C54.5787 13.8886 54.3979 14.507 54.3979 15.3003V19.7803H52.1579Z" fill="#12232E"/>
<path d="M71.8895 19.9903C71.0145 19.9903 70.2387 19.8036 69.562 19.4303C68.8853 19.057 68.3545 18.532 67.9695 17.8553C67.5845 17.1786 67.392 16.397 67.392 15.5103C67.392 14.612 67.5787 13.8128 67.952 13.1128C68.337 12.4128 68.862 11.8703 69.527 11.4853C70.2037 11.0886 70.997 10.8903 71.907 10.8903C72.7587 10.8903 73.5112 11.077 74.1645 11.4503C74.8178 11.8236 75.3253 12.337 75.687 12.9903C76.0603 13.632 76.247 14.3495 76.247 15.1428C76.247 15.2711 76.2412 15.4053 76.2295 15.5453C76.2295 15.6853 76.2237 15.8311 76.212 15.9828H69.6145C69.6612 16.6595 69.8945 17.1903 70.3145 17.5753C70.7462 17.9603 71.2653 18.1528 71.872 18.1528C72.327 18.1528 72.7062 18.0536 73.0095 17.8553C73.3245 17.6453 73.5578 17.377 73.7095 17.0503H75.9845C75.8212 17.5986 75.547 18.1003 75.162 18.5553C74.7887 18.9986 74.322 19.3486 73.762 19.6053C73.2137 19.862 72.5895 19.9903 71.8895 19.9903ZM71.907 12.7103C71.3587 12.7103 70.8745 12.8678 70.4545 13.1828C70.0345 13.4861 69.7662 13.9528 69.6495 14.5828H73.972C73.937 14.0111 73.727 13.5561 73.342 13.2178C72.957 12.8795 72.4787 12.7103 71.907 12.7103Z" fill="#12232E"/>
<path d="M86.1509 19.9903C84.9143 19.9903 83.8526 19.7278 82.9659 19.2028C82.0793 18.6661 81.3968 17.9253 80.9184 16.9803C80.4401 16.0236 80.2009 14.9211 80.2009 13.6728C80.2009 12.4245 80.4401 11.322 80.9184 10.3653C81.3968 9.40865 82.0793 8.66198 82.9659 8.12531C83.8526 7.58865 84.9143 7.32031 86.1509 7.32031C87.6209 7.32031 88.8226 7.68781 89.7559 8.42281C90.7009 9.14615 91.2901 10.167 91.5234 11.4853H89.0559C88.9043 10.8203 88.5776 10.3011 88.0759 9.92781C87.5859 9.54281 86.9326 9.35031 86.1159 9.35031C84.9843 9.35031 84.0976 9.73531 83.4559 10.5053C82.8143 11.2753 82.4934 12.3311 82.4934 13.6728C82.4934 15.0145 82.8143 16.0703 83.4559 16.8403C84.0976 17.5986 84.9843 17.9778 86.1159 17.9778C86.9326 17.9778 87.5859 17.8028 88.0759 17.4528C88.5776 17.0911 88.9043 16.5953 89.0559 15.9653H91.5234C91.2901 17.2253 90.7009 18.2111 89.7559 18.9228C88.8226 19.6345 87.6209 19.9903 86.1509 19.9903Z" fill="#12232E"/>
<path d="M96.7438 19.9903C95.9038 19.9903 95.1454 19.7978 94.4688 19.4128C93.8038 19.0278 93.2729 18.497 92.8763 17.8203C92.4913 17.132 92.2988 16.3386 92.2988 15.4403C92.2988 14.542 92.4971 13.7545 92.8938 13.0778C93.2904 12.3895 93.8213 11.8528 94.4863 11.4678C95.1629 11.0828 95.9213 10.8903 96.7613 10.8903C97.5896 10.8903 98.3363 11.0828 99.0013 11.4678C99.6779 11.8528 100.209 12.3895 100.594 13.0778C100.99 13.7545 101.189 14.542 101.189 15.4403C101.189 16.3386 100.99 17.132 100.594 17.8203C100.209 18.497 99.6779 19.0278 99.0013 19.4128C98.3246 19.7978 97.5721 19.9903 96.7438 19.9903ZM96.7438 18.0478C97.3271 18.0478 97.8346 17.832 98.2663 17.4003C98.6979 16.957 98.9138 16.3036 98.9138 15.4403C98.9138 14.577 98.6979 13.9295 98.2663 13.4978C97.8346 13.0545 97.3329 12.8328 96.7613 12.8328C96.1663 12.8328 95.6529 13.0545 95.2213 13.4978C94.8013 13.9295 94.5913 14.577 94.5913 15.4403C94.5913 16.3036 94.8013 16.957 95.2213 17.4003C95.6529 17.832 96.1604 18.0478 96.7438 18.0478Z" fill="#12232E"/>
<path d="M102.317 19.7803V11.1003H104.312L104.522 12.7278C104.837 12.1678 105.262 11.7245 105.799 11.3978C106.347 11.0595 106.989 10.8903 107.724 10.8903V13.2528H107.094C106.604 13.2528 106.167 13.3286 105.782 13.4803C105.397 13.632 105.093 13.8945 104.872 14.2678C104.662 14.6411 104.557 15.1603 104.557 15.8253V19.7803H102.317Z" fill="#12232E"/>
<path d="M108.38 23.6303V11.1003H110.375L110.62 12.3428C110.9 11.9578 111.268 11.6195 111.723 11.3278C112.189 11.0361 112.79 10.8903 113.525 10.8903C114.342 10.8903 115.071 11.0886 115.713 11.4853C116.354 11.882 116.862 12.4245 117.235 13.1128C117.608 13.8011 117.795 14.5828 117.795 15.4578C117.795 16.3328 117.608 17.1145 117.235 17.8028C116.862 18.4795 116.354 19.0161 115.713 19.4128C115.071 19.7978 114.342 19.9903 113.525 19.9903C112.872 19.9903 112.3 19.8678 111.81 19.6228C111.32 19.3778 110.923 19.0336 110.62 18.5903V23.6303H108.38ZM113.053 18.0303C113.764 18.0303 114.353 17.7911 114.82 17.3128C115.287 16.8345 115.52 16.2161 115.52 15.4578C115.52 14.6995 115.287 14.0753 114.82 13.5853C114.353 13.0953 113.764 12.8503 113.053 12.8503C112.329 12.8503 111.734 13.0953 111.268 13.5853C110.813 14.0636 110.585 14.682 110.585 15.4403C110.585 16.1986 110.813 16.8228 111.268 17.3128C111.734 17.7911 112.329 18.0303 113.053 18.0303Z" fill="#12232E"/>
</svg>
