<svg width="118" height="28" viewBox="0 0 118 28" fill="none" xmlns="http://www.w3.org/2000/svg">
<path opacity="0.8" d="M14.0595 15.1667C13.7631 11.5736 10.7531 8.75 7.0835 8.75C3.2175 8.75 0.0834961 11.884 0.0834961 15.75C0.0834961 19.616 3.2175 22.75 7.0835 22.75H17.5835V15.1667H14.0595Z" fill="#12232E"/>
<circle cx="17" cy="14" r="8.75" fill="#12232E"/>
<path d="M30.9395 14.1167C30.9395 12.9516 31.1627 11.9334 31.6091 11.0623C32.0665 10.1803 32.7143 9.49978 33.5528 9.02067C34.4021 8.54156 35.3985 8.302 36.5418 8.302C37.4347 8.302 38.235 8.47622 38.9428 8.82467C39.6506 9.17311 40.2222 9.66311 40.6578 10.2947C41.0933 10.9262 41.3547 11.6558 41.4418 12.4833H38.9918C38.8502 11.83 38.5508 11.3182 38.0935 10.948C37.647 10.5669 37.0862 10.3763 36.4111 10.3763C35.4965 10.3763 34.7723 10.7193 34.2388 11.4053C33.7052 12.0913 33.4385 12.9951 33.4385 14.1167C33.4385 15.2273 33.7052 16.1311 34.2388 16.828C34.7723 17.514 35.4965 17.857 36.4111 17.857C37.0862 17.857 37.647 17.6719 38.0935 17.3017C38.5508 16.9206 38.8502 16.4033 38.9918 15.75H41.4418C41.3547 16.5776 41.0933 17.3071 40.6578 17.9387C40.2222 18.5702 39.6506 19.0602 38.9428 19.4087C38.235 19.7571 37.4347 19.9313 36.5418 19.9313C35.3985 19.9313 34.4021 19.6918 33.5528 19.2127C32.7143 18.7336 32.0665 18.0584 31.6091 17.1873C31.1627 16.3053 30.9395 15.2818 30.9395 14.1167Z" fill="#12232E"/>
<path d="M42.0322 8.4H44.3352V19.8333H42.0322V8.4Z" fill="#12232E"/>
<path d="M49.3864 19.9313C48.5044 19.9313 47.7259 19.7571 47.0508 19.4087C46.3865 19.0493 45.8693 18.543 45.4991 17.8897C45.1398 17.2363 44.9601 16.485 44.9601 15.6357C44.9601 14.7863 45.1398 14.035 45.4991 13.3817C45.8693 12.7283 46.3865 12.2274 47.0508 11.879C47.7259 11.5197 48.5044 11.34 49.3864 11.34C50.2684 11.34 51.0415 11.5197 51.7058 11.879C52.3809 12.2274 52.8981 12.7283 53.2574 13.3817C53.6276 14.035 53.8128 14.7863 53.8128 15.6357C53.8128 16.4959 53.6276 17.2527 53.2574 17.906C52.8981 18.5484 52.3809 19.0493 51.7058 19.4087C51.0415 19.7571 50.2684 19.9313 49.3864 19.9313ZM49.3864 18.053C50.0289 18.053 50.5352 17.8298 50.9054 17.3833C51.2865 16.9369 51.4771 16.3543 51.4771 15.6357C51.4771 14.917 51.2865 14.3344 50.9054 13.888C50.5352 13.4416 50.0289 13.2183 49.3864 13.2183C48.7549 13.2183 48.2485 13.4416 47.8674 13.888C47.4972 14.3344 47.3121 14.917 47.3121 15.6357C47.3121 16.3543 47.4972 16.9369 47.8674 17.3833C48.2485 17.8298 48.7549 18.053 49.3864 18.053Z" fill="#12232E"/>
<path d="M62.3324 11.438V19.8333H60.2907L60.0784 18.8207C59.7844 19.1691 59.4414 19.4413 59.0494 19.6373C58.6574 19.8333 58.1783 19.9313 57.612 19.9313C56.632 19.9313 55.8317 19.6319 55.211 19.033C54.5904 18.4232 54.28 17.4106 54.28 15.995V11.438H56.583V15.7173C56.583 16.4796 56.7137 17.0567 56.975 17.4487C57.2473 17.8298 57.661 18.0203 58.2164 18.0203C58.7935 18.0203 59.2399 17.808 59.5557 17.3833C59.8715 16.9478 60.0294 16.3434 60.0294 15.5703V11.438H62.3324Z" fill="#12232E"/>
<path d="M71.6756 8.4V19.8333H69.6666L69.4379 18.6737C68.7954 19.5121 67.9243 19.9313 66.8246 19.9313C66.0841 19.9313 65.4199 19.7571 64.8319 19.4087C64.2439 19.0493 63.7811 18.543 63.4436 17.8897C63.1169 17.2363 62.9536 16.4796 62.9536 15.6193C62.9536 14.77 63.1169 14.0241 63.4436 13.3817C63.7811 12.7283 64.2439 12.2274 64.8319 11.879C65.4308 11.5197 66.1004 11.34 66.8409 11.34C67.9298 11.34 68.7737 11.7211 69.3726 12.4833V8.4H71.6756ZM67.3636 18.053C67.9842 18.053 68.4797 17.8352 68.8499 17.3997C69.2201 16.9532 69.4052 16.3707 69.4052 15.652C69.4052 14.9224 69.2201 14.3344 68.8499 13.888C68.4797 13.4416 67.9842 13.2183 67.3636 13.2183C66.7429 13.2183 66.242 13.4416 65.8609 13.888C65.4907 14.3344 65.3056 14.917 65.3056 15.6357C65.3056 16.3543 65.4907 16.9369 65.8609 17.3833C66.242 17.8298 66.7429 18.053 67.3636 18.053Z" fill="#12232E"/>
<path d="M71.9745 8.4L74.5062 8.38367L76.6132 16.7463L78.8509 8.4H81.0559L83.2282 16.7463L85.3842 8.4H87.8669L84.6982 19.8333H81.8725L79.8962 12.2383L77.9689 19.8333H75.1432L71.9745 8.4Z" fill="#12232E"/>
<path d="M95.5517 17.8897V19.8333H94.3757C93.3195 19.8333 92.8023 19.376 92.824 18.4613C92.5191 18.9404 92.1435 19.3052 91.697 19.5557C91.2506 19.8061 90.7116 19.9313 90.08 19.9313C89.1436 19.9313 88.3868 19.719 87.8097 19.2943C87.2435 18.8588 86.9604 18.249 86.9604 17.465C86.9604 16.5721 87.287 15.8861 87.9404 15.407C88.6046 14.917 89.5628 14.672 90.815 14.672H92.481V14.2637C92.481 13.8826 92.3395 13.5831 92.0564 13.3653C91.7733 13.1367 91.3921 13.0223 90.913 13.0223C90.4884 13.0223 90.1399 13.1149 89.8677 13.3C89.5955 13.4851 89.4321 13.7356 89.3777 14.0513H87.1564C87.2326 13.1911 87.6137 12.5269 88.2997 12.0587C88.9857 11.5796 89.8949 11.34 91.0274 11.34C92.2143 11.34 93.1289 11.6013 93.7714 12.124C94.4247 12.6467 94.7514 13.4034 94.7514 14.3943V17.3507C94.7514 17.5576 94.7949 17.6991 94.882 17.7753C94.9691 17.8516 95.1053 17.8897 95.2904 17.8897H95.5517ZM92.481 16.2073H90.7987C90.3196 16.2073 89.9439 16.3053 89.6717 16.5013C89.4104 16.6864 89.2797 16.9532 89.2797 17.3017C89.2797 17.5957 89.3886 17.8298 89.6064 18.004C89.835 18.1782 90.1399 18.2653 90.521 18.2653C91.1199 18.2653 91.5936 18.0966 91.942 17.759C92.2905 17.4106 92.4701 16.9478 92.481 16.3707V16.2073Z" fill="#12232E"/>
<path d="M96.3283 13.3817H94.94V11.438H96.3283V9.086H98.6313V11.438H100.542V13.3817H98.6313V17.0567C98.6313 17.3507 98.6912 17.563 98.811 17.6937C98.9416 17.8243 99.154 17.8897 99.448 17.8897H100.64V19.8333H98.7293C97.1286 19.8333 96.3283 19.033 96.3283 17.4323V13.3817Z" fill="#12232E"/>
<path d="M108.899 16.6483C108.747 17.6719 108.311 18.4777 107.592 19.0657C106.885 19.6428 105.964 19.9313 104.832 19.9313C103.961 19.9313 103.199 19.7571 102.545 19.4087C101.892 19.0493 101.386 18.543 101.026 17.8897C100.678 17.2363 100.504 16.485 100.504 15.6357C100.504 14.7754 100.678 14.0241 101.026 13.3817C101.386 12.7283 101.892 12.2274 102.545 11.879C103.21 11.5197 103.977 11.34 104.848 11.34C105.97 11.34 106.885 11.6286 107.592 12.2057C108.3 12.7719 108.736 13.5613 108.899 14.574H106.514C106.416 14.1602 106.22 13.8336 105.926 13.594C105.632 13.3436 105.268 13.2183 104.832 13.2183C104.233 13.2183 103.754 13.4416 103.395 13.888C103.035 14.3344 102.856 14.917 102.856 15.6357C102.856 16.3543 103.035 16.9369 103.395 17.3833C103.754 17.8298 104.233 18.053 104.832 18.053C105.278 18.053 105.649 17.9278 105.943 17.6773C106.248 17.4269 106.444 17.0839 106.531 16.6483H108.899Z" fill="#12232E"/>
<path d="M114.278 11.34C115.269 11.34 116.08 11.6449 116.711 12.2547C117.354 12.8644 117.675 13.8717 117.675 15.2763V19.8333H115.372V15.3743C115.372 14.6774 115.231 14.1493 114.947 13.79C114.664 13.4198 114.24 13.2347 113.673 13.2347C113.085 13.2347 112.623 13.4361 112.285 13.839C111.958 14.2419 111.795 14.8027 111.795 15.5213V19.8333H109.492V8.4H111.795V12.467C112.416 11.7157 113.243 11.34 114.278 11.34Z" fill="#12232E"/>
</svg>
