<svg width="116" height="28" viewBox="0 0 116 28" fill="none" xmlns="http://www.w3.org/2000/svg">
<path opacity="0.8" d="M21.4288 6.51178C21.1767 6.25965 20.9245 6.00752 20.6724 5.75539C19.916 4.94858 19.1092 4.14177 18.1007 3.63751C16.9409 3.03241 15.6803 3.18368 14.4196 3.18368C12.5034 3.18368 7.713 3.18368 4.88916 3.18368L6.80534 5.75539C10.2847 5.75539 15.7307 5.75539 18.252 5.75539C19.3109 5.75539 20.2186 5.95709 21.0758 6.51178C21.2271 6.5622 21.3784 6.5622 21.4288 6.51178Z" fill="#12232E"/>
<path opacity="0.9" d="M23.5468 10.6468C23.2947 10.3947 23.0426 10.1425 22.7905 9.89039C22.0341 9.08358 21.2273 8.27677 20.2188 7.77252C19.059 7.16741 17.7983 7.31869 16.5377 7.31869C14.8736 7.31869 10.89 7.31869 8.06616 7.31869L9.98234 9.89039C13.4113 9.89039 18.1009 9.89039 20.4205 9.89039C21.4794 9.89039 22.3871 10.0921 23.2443 10.6468C23.3451 10.6972 23.446 10.6972 23.5468 10.6468Z" fill="#12232E"/>
<path d="M25.9166 14.6807C25.6644 14.4286 25.4123 14.1765 25.1602 13.9243C24.4038 13.1175 23.597 12.3107 22.5885 11.8065C21.4287 11.2013 20.168 11.3526 18.9074 11.3526C17.3442 11.3526 13.9153 11.3526 11.1418 11.3526L13.058 13.9243C16.3861 13.9243 20.6219 13.9243 22.7398 13.9243C23.7987 13.9243 24.7063 14.126 25.5636 14.6807C25.7149 14.7311 25.8157 14.7816 25.9166 14.6807Z" fill="#12232E"/>
<path opacity="0.8" d="M4.6875 21.4881C4.93963 21.7403 5.19176 21.9924 5.44389 22.2445C6.20027 23.0513 7.00708 23.8581 8.01559 24.3624C9.17538 24.9675 10.436 24.8162 11.6967 24.8162H21.2271L19.3109 22.2445C15.8316 22.2445 10.3856 22.2445 7.86432 22.2445C6.80538 22.2445 5.89771 22.0428 5.04048 21.4881C4.8892 21.4377 4.78835 21.4377 4.6875 21.4881Z" fill="#12232E"/>
<path opacity="0.9" d="M2.56958 17.3534C2.82171 17.6055 3.07384 17.8576 3.32597 18.1098C4.08235 18.9166 4.88916 19.7234 5.89767 20.2276C7.05746 20.8327 8.3181 20.6815 9.57875 20.6815H18.0503L16.1341 18.1098C12.7051 18.1098 8.01555 18.1098 5.69597 18.1098C4.63703 18.1098 3.72937 17.9081 2.87213 17.3534C2.77128 17.3029 2.67043 17.3029 2.56958 17.3534Z" fill="#12232E"/>
<path d="M0.25 13.2688C0.502128 13.5209 0.754257 13.773 1.00639 14.0252C1.76277 14.832 2.56958 15.6388 3.5781 16.143C4.73789 16.7482 5.99852 16.5969 7.25917 16.5969H15.0247L13.1085 14.0252C9.78045 14.0252 5.5447 14.0252 3.42682 14.0252C2.36788 14.0252 1.46021 13.8235 0.602978 13.2688C0.451701 13.2184 0.350851 13.2184 0.25 13.2688Z" fill="#12232E"/>
<path d="M31.7102 8.17139V19.8334H34.2745V15.0151H39.1582V13.0224H34.2745V10.3274H39.9095V8.17139H31.7102Z" fill="#12232E"/>
<path d="M46.3412 14.7047H42.5682C42.5791 14.5414 42.6117 14.3563 42.6662 14.1494C42.7315 13.9425 42.8349 13.7465 42.9765 13.5614C43.1289 13.3763 43.3249 13.2238 43.5645 13.1041C43.8149 12.9734 44.1253 12.9081 44.4955 12.9081C45.0617 12.9081 45.481 13.0605 45.7532 13.3654C46.0363 13.6703 46.2323 14.1167 46.3412 14.7047ZM42.5682 16.1747H48.6605C48.7041 15.5214 48.6496 14.8953 48.4972 14.2964C48.3447 13.6975 48.0943 13.1639 47.7458 12.6957C47.4083 12.2275 46.9727 11.8573 46.4392 11.5851C45.9056 11.3019 45.2795 11.1604 44.5608 11.1604C43.9184 11.1604 43.3304 11.2747 42.7968 11.5034C42.2742 11.7321 41.8223 12.0478 41.4412 12.4507C41.0601 12.8427 40.7661 13.3109 40.5592 13.8554C40.3523 14.3998 40.2488 14.9878 40.2488 15.6194C40.2488 16.2727 40.3468 16.8716 40.5428 17.4161C40.7497 17.9605 41.0383 18.4287 41.4085 18.8207C41.7787 19.2127 42.2306 19.5176 42.7642 19.7354C43.2977 19.9423 43.8966 20.0457 44.5608 20.0457C45.5191 20.0457 46.3357 19.8279 47.0108 19.3924C47.6859 18.9568 48.1868 18.2327 48.5135 17.2201H46.4718C46.3956 17.4814 46.1887 17.7318 45.8512 17.9714C45.5136 18.2001 45.1107 18.3144 44.6425 18.3144C43.9892 18.3144 43.4883 18.1456 43.1398 17.8081C42.7914 17.4705 42.6008 16.9261 42.5682 16.1747Z" fill="#12232E"/>
<path d="M49.4481 13.9861C49.4807 13.4416 49.6169 12.9897 49.8564 12.6304C50.096 12.2711 50.4009 11.9825 50.7711 11.7647C51.1413 11.5469 51.5551 11.3945 52.0124 11.3074C52.4806 11.2094 52.9489 11.1604 53.4171 11.1604C53.8417 11.1604 54.2719 11.1931 54.7074 11.2584C55.143 11.3128 55.5404 11.4272 55.8997 11.6014C56.2591 11.7756 56.5531 12.0206 56.7817 12.3364C57.0104 12.6413 57.1247 13.0496 57.1247 13.5614V17.9551C57.1247 18.3362 57.1465 18.7009 57.1901 19.0494C57.2336 19.3978 57.3099 19.6592 57.4187 19.8334H55.0667C55.0232 19.7027 54.9851 19.5721 54.9524 19.4414C54.9306 19.2998 54.9143 19.1583 54.9034 19.0167C54.5332 19.3978 54.0976 19.6646 53.5967 19.8171C53.0959 19.9695 52.5841 20.0457 52.0614 20.0457C51.6585 20.0457 51.2829 19.9967 50.9344 19.8987C50.586 19.8007 50.2811 19.6483 50.0197 19.4414C49.7584 19.2345 49.5515 18.9732 49.3991 18.6574C49.2575 18.3416 49.1867 17.9659 49.1867 17.5304C49.1867 17.0513 49.2684 16.6593 49.4317 16.3544C49.606 16.0386 49.8237 15.7882 50.0851 15.6031C50.3573 15.4179 50.6622 15.2818 50.9997 15.1947C51.3482 15.0967 51.6966 15.0205 52.0451 14.9661C52.3935 14.9116 52.7365 14.8681 53.0741 14.8354C53.4116 14.8027 53.7111 14.7537 53.9724 14.6884C54.2337 14.6231 54.4406 14.5305 54.5931 14.4107C54.7455 14.2801 54.8163 14.0949 54.8054 13.8554C54.8054 13.6049 54.7619 13.4089 54.6747 13.2674C54.5985 13.1149 54.4896 13.0006 54.3481 12.9244C54.2174 12.8373 54.0595 12.7828 53.8744 12.7611C53.7002 12.7284 53.5096 12.7121 53.3027 12.7121C52.8454 12.7121 52.4861 12.8101 52.2247 13.0061C51.9634 13.2021 51.811 13.5287 51.7674 13.9861H49.4481ZM54.8054 15.7011C54.7074 15.7882 54.5822 15.8589 54.4297 15.9134C54.2882 15.9569 54.1303 15.9951 53.9561 16.0277C53.7927 16.0604 53.6185 16.0876 53.4334 16.1094C53.2483 16.1312 53.0632 16.1584 52.8781 16.1911C52.7039 16.2237 52.5296 16.2673 52.3554 16.3217C52.1921 16.3762 52.0451 16.4524 51.9144 16.5504C51.7946 16.6375 51.6966 16.7518 51.6204 16.8934C51.5442 17.0349 51.5061 17.2146 51.5061 17.4324C51.5061 17.6393 51.5442 17.8135 51.6204 17.9551C51.6966 18.0966 51.8001 18.2109 51.9307 18.2981C52.0614 18.3743 52.2139 18.4287 52.3881 18.4614C52.5623 18.4941 52.742 18.5104 52.9271 18.5104C53.3844 18.5104 53.7383 18.4342 53.9887 18.2817C54.2392 18.1293 54.4243 17.9496 54.5441 17.7427C54.6639 17.5249 54.7346 17.3072 54.7564 17.0894C54.7891 16.8716 54.8054 16.6974 54.8054 16.5667V15.7011Z" fill="#12232E"/>
<path d="M61.375 11.3891V8.85739H59.0557V11.3891H57.651V12.9407H59.0557V17.9224C59.0557 18.3471 59.1264 18.6901 59.268 18.9514C59.4095 19.2127 59.6001 19.4142 59.8397 19.5557C60.0901 19.6973 60.3732 19.7898 60.689 19.8334C61.0157 19.8878 61.3587 19.9151 61.718 19.9151C61.9467 19.9151 62.1808 19.9096 62.4203 19.8987C62.6599 19.8878 62.8777 19.8661 63.0737 19.8334V18.0367C62.9648 18.0585 62.8504 18.0748 62.7307 18.0857C62.6109 18.0966 62.4857 18.1021 62.355 18.1021C61.963 18.1021 61.7017 18.0367 61.571 17.9061C61.4403 17.7754 61.375 17.5141 61.375 17.1221V12.9407H63.0737V11.3891H61.375Z" fill="#12232E"/>
<path d="M63.6872 8.17139V19.8334H66.0065V15.4071C66.0065 14.5468 66.1481 13.9316 66.4312 13.5614C66.7143 13.1803 67.1716 12.9897 67.8032 12.9897C68.3585 12.9897 68.7451 13.1639 68.9628 13.5124C69.1806 13.8499 69.2895 14.3672 69.2895 15.0641V19.8334H71.6088V14.6394C71.6088 14.1167 71.5598 13.6431 71.4618 13.2184C71.3747 12.7828 71.2168 12.4181 70.9882 12.1241C70.7595 11.8192 70.4437 11.5851 70.0408 11.4217C69.6488 11.2475 69.1425 11.1604 68.5218 11.1604C68.0863 11.1604 67.6398 11.2747 67.1825 11.5034C66.7252 11.7212 66.3495 12.0751 66.0555 12.5651H66.0065V8.17139H63.6872Z" fill="#12232E"/>
<path d="M78.5631 14.7047H74.7901C74.801 14.5414 74.8337 14.3563 74.8881 14.1494C74.9535 13.9425 75.0569 13.7465 75.1985 13.5614C75.3509 13.3763 75.5469 13.2238 75.7865 13.1041C76.0369 12.9734 76.3473 12.9081 76.7175 12.9081C77.2837 12.9081 77.7029 13.0605 77.9751 13.3654C78.2583 13.6703 78.4543 14.1167 78.5631 14.7047ZM74.7901 16.1747H80.8825C80.926 15.5214 80.8716 14.8953 80.7191 14.2964C80.5667 13.6975 80.3163 13.1639 79.9678 12.6957C79.6303 12.2275 79.1947 11.8573 78.6611 11.5851C78.1276 11.3019 77.5015 11.1604 76.7828 11.1604C76.1404 11.1604 75.5524 11.2747 75.0188 11.5034C74.4961 11.7321 74.0443 12.0478 73.6631 12.4507C73.282 12.8427 72.988 13.3109 72.7811 13.8554C72.5743 14.3998 72.4708 14.9878 72.4708 15.6194C72.4708 16.2727 72.5688 16.8716 72.7648 17.4161C72.9717 17.9605 73.2603 18.4287 73.6305 18.8207C74.0007 19.2127 74.4526 19.5176 74.9861 19.7354C75.5197 19.9423 76.1186 20.0457 76.7828 20.0457C77.741 20.0457 78.5577 19.8279 79.2328 19.3924C79.9079 18.9568 80.4088 18.2327 80.7355 17.2201H78.6938C78.6176 17.4814 78.4107 17.7318 78.0731 17.9714C77.7356 18.2001 77.3327 18.3144 76.8645 18.3144C76.2111 18.3144 75.7103 18.1456 75.3618 17.8081C75.0134 17.4705 74.8228 16.9261 74.7901 16.1747Z" fill="#12232E"/>
<path d="M81.768 11.3891V19.8334H84.0874V16.0277C84.0874 15.6466 84.1255 15.2927 84.2017 14.9661C84.2779 14.6394 84.4032 14.3563 84.5774 14.1167C84.7625 13.8663 85.002 13.6703 85.296 13.5287C85.59 13.3872 85.9494 13.3164 86.374 13.3164C86.5156 13.3164 86.6626 13.3273 86.815 13.3491C86.9675 13.3599 87.0982 13.3763 87.207 13.3981V11.2421C87.0219 11.1876 86.8532 11.1604 86.7007 11.1604C86.4067 11.1604 86.1236 11.2039 85.8514 11.2911C85.5792 11.3782 85.3233 11.5034 85.0837 11.6667C84.8442 11.8192 84.6318 12.0097 84.4467 12.2384C84.2616 12.4562 84.1146 12.6957 84.0057 12.9571H83.973V11.3891H81.768Z" fill="#12232E"/>
<path d="M90.4357 17.6774V10.3274H92.265C92.8966 10.3274 93.4247 10.4199 93.8494 10.6051C94.2849 10.7793 94.6334 11.0352 94.8947 11.3727C95.156 11.7103 95.3411 12.1186 95.45 12.5977C95.5698 13.0659 95.6297 13.5941 95.6297 14.1821C95.6297 14.8245 95.548 15.3689 95.3847 15.8154C95.2214 16.2618 95.0036 16.6266 94.7314 16.9097C94.4591 17.1819 94.1488 17.3779 93.8004 17.4977C93.4519 17.6175 93.0926 17.6774 92.7224 17.6774H90.4357ZM87.8714 8.17139V19.8334H92.902C93.7949 19.8334 94.568 19.6864 95.2214 19.3924C95.8856 19.0875 96.4355 18.6737 96.871 18.1511C97.3175 17.6284 97.6496 17.0077 97.8674 16.2891C98.0851 15.5704 98.194 14.7864 98.194 13.9371C98.194 12.9679 98.0579 12.1241 97.7857 11.4054C97.5244 10.6867 97.1541 10.0878 96.675 9.60872C96.2068 9.12961 95.646 8.77028 94.9927 8.53072C94.3502 8.29116 93.6534 8.17139 92.902 8.17139H87.8714Z" fill="#12232E"/>
<path d="M104.927 14.7047H101.154C101.165 14.5414 101.197 14.3563 101.252 14.1494C101.317 13.9425 101.421 13.7465 101.562 13.5614C101.715 13.3763 101.911 13.2238 102.15 13.1041C102.401 12.9734 102.711 12.9081 103.081 12.9081C103.647 12.9081 104.067 13.0605 104.339 13.3654C104.622 13.6703 104.818 14.1167 104.927 14.7047ZM101.154 16.1747H107.246C107.29 15.5214 107.235 14.8953 107.083 14.2964C106.93 13.6975 106.68 13.1639 106.331 12.6957C105.994 12.2275 105.558 11.8573 105.025 11.5851C104.491 11.3019 103.865 11.1604 103.146 11.1604C102.504 11.1604 101.916 11.2747 101.382 11.5034C100.86 11.7321 100.408 12.0478 100.027 12.4507C99.6457 12.8427 99.3517 13.3109 99.1448 13.8554C98.9379 14.3998 98.8345 14.9878 98.8345 15.6194C98.8345 16.2727 98.9325 16.8716 99.1285 17.4161C99.3354 17.9605 99.6239 18.4287 99.9941 18.8207C100.364 19.2127 100.816 19.5176 101.35 19.7354C101.883 19.9423 102.482 20.0457 103.146 20.0457C104.105 20.0457 104.921 19.8279 105.596 19.3924C106.272 18.9568 106.772 18.2327 107.099 17.2201H105.057C104.981 17.4814 104.774 17.7318 104.437 17.9714C104.099 18.2001 103.696 18.3144 103.228 18.3144C102.575 18.3144 102.074 18.1456 101.725 17.8081C101.377 17.4705 101.186 16.9261 101.154 16.1747Z" fill="#12232E"/>
<path d="M112.803 19.8334L115.661 11.3891H113.358L111.578 17.1547H111.545L109.765 11.3891H107.331L110.222 19.8334H112.803Z" fill="#12232E"/>
</svg>
