<svg width="104" height="28" viewBox="0 0 104 28" fill="none" xmlns="http://www.w3.org/2000/svg">
<circle cx="11.7502" cy="14" r="9.91667" stroke="#12232E" stroke-width="3.5"/>
<path d="M38.6911 11.9077C38.6911 12.5175 38.5441 13.0892 38.2501 13.6227C37.967 14.1563 37.5151 14.5864 36.8944 14.9131C36.2847 15.2397 35.5116 15.4031 34.5751 15.4031H32.6641V19.7804H30.3774V8.37973H34.5751C35.4571 8.37973 36.2084 8.53217 36.8291 8.83706C37.4498 9.14195 37.9126 9.56117 38.2174 10.0947C38.5332 10.6283 38.6911 11.2326 38.6911 11.9077ZM34.4771 13.5574C35.1087 13.5574 35.5769 13.4158 35.8818 13.1327C36.1867 12.8387 36.3391 12.4304 36.3391 11.9077C36.3391 10.7971 35.7184 10.2417 34.4771 10.2417H32.6641V13.5574H34.4771Z" fill="#12232E"/>
<path d="M43.6793 19.9274C42.8082 19.9274 42.0242 19.7368 41.3273 19.3557C40.6304 18.9637 40.0805 18.4138 39.6776 17.7061C39.2856 16.9983 39.0896 16.1816 39.0896 15.2561C39.0896 14.3305 39.2911 13.5138 39.6939 12.8061C40.1077 12.0983 40.6685 11.5538 41.3763 11.1727C42.0841 10.7807 42.8735 10.5847 43.7446 10.5847C44.6157 10.5847 45.4052 10.7807 46.1129 11.1727C46.8207 11.5538 47.3761 12.0983 47.779 12.8061C48.1927 13.5138 48.3996 14.3305 48.3996 15.2561C48.3996 16.1816 48.1873 16.9983 47.7626 17.7061C47.3488 18.4138 46.7826 18.9637 46.0639 19.3557C45.3562 19.7368 44.5613 19.9274 43.6793 19.9274ZM43.6793 17.9347C44.0931 17.9347 44.4796 17.8367 44.839 17.6407C45.2092 17.4338 45.5032 17.1289 45.721 16.7261C45.9387 16.3232 46.0476 15.8332 46.0476 15.2561C46.0476 14.3958 45.819 13.7371 45.3616 13.2797C44.9152 12.8115 44.3653 12.5774 43.712 12.5774C43.0586 12.5774 42.5087 12.8115 42.0623 13.2797C41.6267 13.7371 41.4089 14.3958 41.4089 15.2561C41.4089 16.1163 41.6213 16.7805 42.0459 17.2487C42.4815 17.7061 43.026 17.9347 43.6793 17.9347Z" fill="#12232E"/>
<path d="M51.7103 7.69373V19.7804H49.4236V7.69373H51.7103Z" fill="#12232E"/>
<path d="M61.9729 10.7317L56.3705 24.0597H53.9369L55.8969 19.5517L52.2709 10.7317H54.8352L57.1709 17.0527L59.5392 10.7317H61.9729Z" fill="#12232E"/>
<path d="M73.7895 10.6011C74.9002 10.6011 75.7931 10.9441 76.4682 11.6301C77.1542 12.3052 77.4972 13.2525 77.4972 14.4721V19.7804H75.2105V14.7824C75.2105 14.0746 75.0309 13.5356 74.6715 13.1654C74.3122 12.7843 73.8222 12.5937 73.2015 12.5937C72.5809 12.5937 72.0854 12.7843 71.7152 13.1654C71.3559 13.5356 71.1762 14.0746 71.1762 14.7824V19.7804H68.8895V14.7824C68.8895 14.0746 68.7099 13.5356 68.3505 13.1654C67.9912 12.7843 67.5012 12.5937 66.8805 12.5937C66.249 12.5937 65.7481 12.7843 65.3779 13.1654C65.0185 13.5356 64.8389 14.0746 64.8389 14.7824V19.7804H62.5522V10.7317H64.8389V11.8261C65.1329 11.4449 65.5085 11.1455 65.9659 10.9277C66.4341 10.7099 66.9459 10.6011 67.5012 10.6011C68.209 10.6011 68.8405 10.7535 69.3959 11.0584C69.9512 11.3524 70.3813 11.7771 70.6862 12.3324C70.9802 11.8097 71.4049 11.3905 71.9602 11.0747C72.5264 10.7589 73.1362 10.6011 73.7895 10.6011Z" fill="#12232E"/>
<path d="M78.4258 15.2234C78.4258 14.3087 78.6054 13.4975 78.9648 12.7897C79.335 12.0819 79.8304 11.5375 80.4511 11.1564C81.0827 10.7753 81.785 10.5847 82.5581 10.5847C83.2332 10.5847 83.8212 10.7208 84.3221 10.9931C84.8339 11.2653 85.2422 11.6083 85.5471 12.0221V10.7317H87.8501V19.7804H85.5471V18.4574C85.2531 18.8821 84.8448 19.2359 84.3221 19.5191C83.8103 19.7913 83.2169 19.9274 82.5418 19.9274C81.7796 19.9274 81.0827 19.7314 80.4511 19.3394C79.8304 18.9474 79.335 18.3975 78.9648 17.6897C78.6054 16.9711 78.4258 16.1489 78.4258 15.2234ZM85.5471 15.2561C85.5471 14.7007 85.4382 14.2271 85.2204 13.8351C85.0027 13.4322 84.7087 13.1273 84.3384 12.9204C83.9682 12.7026 83.5708 12.5937 83.1461 12.5937C82.7214 12.5937 82.3294 12.6972 81.9701 12.9041C81.6108 13.1109 81.3168 13.4158 81.0881 13.8187C80.8703 14.2107 80.7614 14.6789 80.7614 15.2234C80.7614 15.7678 80.8703 16.2469 81.0881 16.6607C81.3168 17.0636 81.6108 17.3739 81.9701 17.5917C82.3403 17.8095 82.7323 17.9184 83.1461 17.9184C83.5708 17.9184 83.9682 17.8149 84.3384 17.6081C84.7087 17.3903 85.0027 17.0854 85.2204 16.6934C85.4382 16.2905 85.5471 15.8114 85.5471 15.2561Z" fill="#12232E"/>
<path d="M92.0924 12.6101V16.9874C92.0924 17.2923 92.1632 17.5155 92.3048 17.6571C92.4572 17.7877 92.7077 17.8531 93.0561 17.8531H94.1178V19.7804H92.6804C90.7531 19.7804 89.7894 18.8439 89.7894 16.9711V12.6101H88.7114V10.7317H89.7894V8.49406H92.0924V10.7317H94.1178V12.6101H92.0924Z" fill="#12232E"/>
<path d="M100.205 10.6011C100.891 10.6011 101.501 10.7535 102.034 11.0584C102.568 11.3524 102.982 11.7934 103.276 12.3814C103.581 12.9585 103.733 13.6554 103.733 14.4721V19.7804H101.446V14.7824C101.446 14.0637 101.267 13.5138 100.907 13.1327C100.548 12.7407 100.058 12.5447 99.4375 12.5447C98.8059 12.5447 98.305 12.7407 97.9348 13.1327C97.5755 13.5138 97.3958 14.0637 97.3958 14.7824V19.7804H95.1091V7.69373H97.3958V11.8587C97.6898 11.4667 98.0818 11.1618 98.5718 10.9441C99.0618 10.7154 99.6062 10.6011 100.205 10.6011Z" fill="#12232E"/>
</svg>
