<svg width="96" height="28" viewBox="0 0 96 28" fill="none" xmlns="http://www.w3.org/2000/svg">
<circle cx="12.7229" cy="14.1445" r="11.8554" stroke="#12232E" stroke-width="1.73494"/>
<path d="M21.1065 5.76165C22.2695 6.92491 22.6295 8.88915 22.0029 11.326C21.3818 13.7412 19.8198 16.4534 17.426 18.8473C15.0321 21.2411 12.3193 22.8038 9.90401 23.4248C7.46739 24.0513 5.50358 23.6907 4.34038 22.5278C3.17723 21.3647 2.81617 19.4003 3.44269 16.9635C4.06375 14.5482 5.62637 11.8354 8.02024 9.4415C10.4141 7.04773 13.1263 5.48569 15.5415 4.86464C17.9786 4.23798 19.9433 4.59843 21.1065 5.76165Z" stroke="#12232E" stroke-width="1.73494"/>
<path d="M4.33977 5.76101C5.50303 4.59806 7.46728 4.23809 9.90409 4.86469C12.3193 5.48574 15.0316 7.04778 17.4254 9.44155C19.8193 11.8354 21.3819 14.5483 22.0029 16.9635C22.6294 19.4002 22.2688 21.364 21.1059 22.5272C19.9428 23.6903 17.9785 24.0514 15.5416 23.4249C13.1264 22.8038 10.4135 21.2412 8.01963 18.8473C5.62585 16.4535 4.06382 13.7412 3.44277 11.326C2.8161 8.88896 3.17655 6.92423 4.33977 5.76101Z" stroke="#12232E" stroke-width="1.73494"/>
<path d="M36.3472 19.9219C39.071 19.9219 40.9101 18.4993 40.9101 16.2265C40.9101 11.4207 34.5255 13.4679 34.5255 10.9349C34.5255 10.2236 35.1674 9.73781 36.191 9.73781C37.3535 9.73781 38.0821 10.3624 38.1689 11.3166H40.6498C40.5804 9.00914 38.8108 7.49974 36.191 7.49974C33.7274 7.49974 31.9925 8.92239 31.9925 10.9349C31.9925 15.706 38.2903 13.8843 38.2903 16.2612C38.2903 17.1807 37.5096 17.6665 36.3472 17.6665C35.0633 17.6665 34.2479 16.8858 34.1438 15.654H31.6455C31.7496 18.239 33.5886 19.9219 36.3472 19.9219Z" fill="#12232E"/>
<path d="M41.5001 23.3224H43.9117V19.0024C44.3801 19.5923 45.2302 19.9219 46.2191 19.9219C48.7348 19.9219 50.435 18.1349 50.435 15.4111C50.435 12.6872 48.8736 10.9002 46.4273 10.9002C45.2996 10.9002 44.4321 11.3166 43.9117 11.9932V11.039H41.5001V23.3224ZM45.9242 17.84C44.623 17.84 43.7729 16.8684 43.7729 15.4111C43.7729 13.9364 44.623 12.9648 45.9242 12.9648C47.1907 12.9648 48.0582 13.9364 48.0582 15.4111C48.0582 16.8684 47.1907 17.84 45.9242 17.84Z" fill="#12232E"/>
<path d="M51.0185 19.7831H53.4301V14.9947C53.4301 13.867 54.1761 13.0516 55.2345 13.0516C56.2407 13.0516 56.9347 13.8149 56.9347 14.8732V19.7831H59.3463V14.3354C59.3463 12.3229 58.0624 10.9002 56.1019 10.9002C54.8875 10.9002 53.9332 11.4034 53.4301 12.2535V7.2395H51.0185V19.7831Z" fill="#12232E"/>
<path d="M66.0925 16.8164C65.9016 17.5624 65.2597 17.9441 64.2881 17.9441C63.0737 17.9441 62.2929 17.1807 62.1195 15.9489H68.3999C68.4173 15.7581 68.4346 15.4978 68.4346 15.1682C68.4346 13.173 67.2028 10.9002 64.1146 10.9002C61.1479 10.9002 59.7946 13.173 59.7946 15.3937C59.7946 17.5971 61.3214 19.9219 64.2881 19.9219C66.4395 19.9219 68.105 18.7075 68.452 16.8164H66.0925ZM64.1146 12.6699C65.277 12.6699 65.9537 13.4506 66.0231 14.4222H62.1542C62.3623 13.2077 63.0216 12.6699 64.1146 12.6699Z" fill="#12232E"/>
<path d="M74.7593 13.0516V11.039H73.515C72.4567 11.039 71.7974 11.4034 71.329 12.4964V11.039H68.9001V19.7831H71.329V15.5325C71.329 14.0405 71.8668 13.0516 73.0639 13.0516H74.7593Z" fill="#12232E"/>
<path d="M83.087 11.039H80.6581V15.8275C80.6581 16.9378 79.9121 17.7706 78.8538 17.7706C77.8648 17.7706 77.1709 17.0072 77.1709 15.9489V11.039H74.7593V16.4867C74.7593 18.4819 76.0432 19.9219 78.0036 19.9219C79.2007 19.9219 80.1723 19.4014 80.6581 18.5687V19.7831H83.087V11.039Z" fill="#12232E"/>
<path d="M84.1281 19.7831H86.5397V7.2395H84.1281V19.7831Z" fill="#12232E"/>
<path d="M93.4245 16.8164C93.2337 17.5624 92.5918 17.9441 91.6202 17.9441C90.4057 17.9441 89.625 17.1807 89.4515 15.9489H95.732C95.7494 15.7581 95.7667 15.4978 95.7667 15.1682C95.7667 13.173 94.5349 10.9002 91.4467 10.9002C88.48 10.9002 87.1267 13.173 87.1267 15.3937C87.1267 17.5971 88.6535 19.9219 91.6202 19.9219C93.7715 19.9219 95.4371 18.7075 95.7841 16.8164H93.4245ZM91.4467 12.6699C92.6091 12.6699 93.2857 13.4506 93.3551 14.4222H89.4862C89.6944 13.2077 90.3537 12.6699 91.4467 12.6699Z" fill="#12232E"/>
</svg>
