<svg width="114" height="28" viewBox="0 0 114 28" fill="none" xmlns="http://www.w3.org/2000/svg">
<path d="M17.9542 1.38074H8.28444L0.5 9.16516V18.8349L8.28444 26.6193H17.9542L25.7386 18.8349V9.16516L17.9542 1.38074ZM9.62238 18.9565L4.63549 13.9696L9.62238 8.98272C11.5077 7.09743 14.6093 7.09743 16.4946 8.98272L21.4815 13.9696L16.4946 18.9565C14.6093 20.8418 11.5685 20.8418 9.62238 18.9565Z" fill="#12232E"/>
<path d="M36.8322 19.8738C38.3809 19.8738 39.6543 19.0822 40.0501 17.8949V19.7362H42.3388V15.09C42.3388 14.0403 41.5128 13.1454 40.3943 13.1454H37.1247V15.09H39.4478C39.7404 15.09 39.9297 15.2792 39.9297 15.5718C39.9297 16.6903 38.4498 17.7744 36.9526 17.7744C34.9565 17.7744 33.3734 16.2085 33.3734 13.7133C33.3734 11.2181 34.9565 9.77265 37.0043 9.77265C38.553 9.77265 39.6199 10.6158 39.8092 11.9065H42.3732C42.2183 9.32524 40.0501 7.5528 37.0215 7.5528C33.838 7.5528 30.9126 9.60057 30.9126 13.7133C30.9126 17.826 33.7519 19.8738 36.8322 19.8738Z" fill="#12232E"/>
<path d="M43.3213 19.7362H45.7132V7.29468H43.3213V19.7362Z" fill="#12232E"/>
<path d="M50.8728 19.8738C53.5401 19.8738 55.4502 17.9809 55.4502 15.3997C55.4502 12.8185 53.5401 10.9256 50.8728 10.9256C48.2055 10.9256 46.2954 12.8185 46.2954 15.3997C46.2954 17.9809 48.2055 19.8738 50.8728 19.8738ZM50.8728 17.8088C49.5822 17.8088 48.7046 16.828 48.7046 15.3997C48.7046 13.9542 49.5822 12.9734 50.8728 12.9734C52.1634 12.9734 53.041 13.9542 53.041 15.3997C53.041 16.828 52.1634 17.8088 50.8728 17.8088Z" fill="#12232E"/>
<path d="M60.8024 19.8738C63.3664 19.8738 64.898 18.1014 64.898 15.3997C64.898 12.698 63.3664 10.9256 60.8368 10.9256C59.7527 10.9256 58.9095 11.3386 58.4277 11.9753V7.29468H56.0358V19.7362H58.4277V18.7897C58.9095 19.4608 59.8044 19.8738 60.8024 19.8738ZM60.4239 17.8088C59.1332 17.8088 58.29 16.8452 58.29 15.3997C58.29 13.937 59.1332 12.9734 60.4239 12.9734C61.68 12.9734 62.5405 13.937 62.5405 15.3997C62.5405 16.8452 61.68 17.8088 60.4239 17.8088Z" fill="#12232E"/>
<path d="M68.9019 10.9256C66.5272 10.9256 65.1162 12.3195 65.0129 14.0575H67.1467C67.1811 13.3347 67.7146 12.6808 68.7643 12.6808C69.7451 12.6808 70.313 13.1799 70.313 13.9026C70.313 14.264 70.0893 14.5393 69.6591 14.5393H68.1964C66.3035 14.5393 65.0301 15.5718 65.0301 17.2754C65.0301 18.7553 66.1831 19.8738 67.8695 19.8738C69.0568 19.8738 70.0205 19.3404 70.313 18.5316V19.7362H72.6877V14.1607C72.6877 12.199 71.0874 10.9256 68.9019 10.9256ZM68.4717 18.1358C67.8006 18.1358 67.3188 17.74 67.3188 17.1721C67.3188 16.501 67.835 16.0536 68.5578 16.0536H70.313V16.1741C70.313 17.2754 69.6419 18.1358 68.4717 18.1358Z" fill="#12232E"/>
<path d="M73.6069 19.7362H75.9988V7.29468H73.6069V19.7362Z" fill="#12232E"/>
<path d="M77.2694 19.7362H82.1909C84.7377 19.7362 86.4929 18.4283 86.4929 16.1397C86.4929 14.5565 85.5637 13.5929 84.4624 13.1626C85.1679 12.7841 85.8735 11.9237 85.8735 10.7879C85.8735 8.77458 84.2387 7.69046 82.0533 7.69046H77.2694V19.7362ZM79.8162 12.285V9.73823H81.8123C82.9653 9.73823 83.4815 10.2029 83.4815 11.0116C83.4815 11.8204 82.9653 12.285 81.864 12.285H79.8162ZM79.8162 17.4991V14.4705H81.9672C83.3955 14.4705 84.0322 15.0211 84.0322 16.002C84.0322 16.9829 83.3955 17.4991 81.9672 17.4991H79.8162Z" fill="#12232E"/>
<path d="M90.6541 10.9256C88.2794 10.9256 86.8683 12.3195 86.7651 14.0575H88.8989C88.9333 13.3347 89.4667 12.6808 90.5164 12.6808C91.4973 12.6808 92.0652 13.1799 92.0652 13.9026C92.0652 14.264 91.8415 14.5393 91.4112 14.5393H89.9486C88.0557 14.5393 86.7823 15.5718 86.7823 17.2754C86.7823 18.7553 87.9352 19.8738 89.6216 19.8738C90.809 19.8738 91.7726 19.3404 92.0652 18.5316V19.7362H94.4399V14.1607C94.4399 12.199 92.8395 10.9256 90.6541 10.9256ZM90.2239 18.1358C89.5528 18.1358 89.0709 17.74 89.0709 17.1721C89.0709 16.501 89.5872 16.0536 90.3099 16.0536H92.0652V16.1741C92.0652 17.2754 91.394 18.1358 90.2239 18.1358Z" fill="#12232E"/>
<path d="M95.2214 19.7362H97.6305V14.9867C97.6305 13.8682 98.3705 13.0594 99.4201 13.0594C100.418 13.0594 101.089 13.8166 101.089 14.8663V19.7362H103.498V14.3328C103.498 12.3367 102.225 10.9256 100.263 10.9256C99.076 10.9256 98.1123 11.4246 97.6305 12.2678V11.0633H95.2214V19.7362Z" fill="#12232E"/>
<path d="M110.365 19.7362H113.256L109.521 14.4705L112.98 11.0633H109.952L106.94 14.0231V7.29468H104.531V19.7362H106.94V17.0173L107.904 16.0708L110.365 19.7362Z" fill="#12232E"/>
</svg>
